<?xml version="1.0" encoding="utf-8"?>
<!-- Generator: Adobe Illustrator 22.0.1, SVG Export Plug-In . SVG Version: 6.00 Build 0)  -->
<svg version="1.1" id="Layer_1" xmlns="http://www.w3.org/2000/svg" xmlns:xlink="http://www.w3.org/1999/xlink" x="0px" y="0px"
	 viewBox="0 0 2241 1343" style="enable-background:new 0 0 2241 1343;" xml:space="preserve">
<style type="text/css">
	.st0{opacity:0.35;fill:#FFFFFF;enable-background:new    ;}
</style>
<path class="st0" d="M1891.7,1343c-8.5-14-17-27.7-25.4-41.5c-201.1-323.3-443.1-490-683.1-471.2c-227.5,18.1-446.5,207-635.3,512.5
	h1343.8V1343z"/>
<path class="st0" d="M2394,1076.9c-171.2-380.7-372.4-786.5-602.4-689.5c-162.3,68.4-269.1,445.6-411.9,629.3
	c-185.5,238.4-330.9-66.1-496.9-270.9c-224-276-500.7-200.9-700.4,190C120.6,1056.9,61.5,1209.4,0,1339.1h2394L2394,1076.9
	L2394,1076.9z"/>
<path class="st0" d="M3432.9,905.2c-21.6-7.1-43-8.2-62.3-4.2c-73,14.5-142.2,88.2-209.5,164.6s-134.9,156.9-207.2,187.3
	c-241.2,101.2-440.7-353-663.5-499.4c-201.9-132.6-415.8-18-611.8,165.4c-199.5,186.5-405.5,448.4-612.9,336.9
	c-146-78.5-268.2-332.6-403.1-499.6c-239.1-296.4-493-289.8-740.5-146.4V1402h3510.8V905.2z"/>
</svg>
