<?xml version="1.0" encoding="utf-8"?>
<!-- Generator: Adobe Illustrator 21.0.0, SVG Export Plug-In . SVG Version: 6.00 Build 0)  -->
<svg version="1.1" id="Layer_1" xmlns="http://www.w3.org/2000/svg" xmlns:xlink="http://www.w3.org/1999/xlink" x="0px" y="0px"
	 viewBox="0 0 3510.8 424.9" style="enable-background:new 0 0 3510.8 424.9;" xml:space="preserve">
<style type="text/css">
	.st0{opacity:0.29;fill:#FFFFFF;}
	.st1{fill:#FFFFFF;}
</style>
<path class="st0" d="M0,3v150.3c45.7-20.4,98-35.2,153.1-42.6c107.3-14.4,223.9-1,315.1,36.3c122,49.8,190.5,140.7,322.4,182
	c154.8,48.5,314.2-13.7,448.7-58.3c130.5-43.2,273.4-74.3,421.4-82c270.1-14.1,502.5,53.2,746.4,111c125.4,29.7,270.2,46,392.2,11.3
	c138.8-39.4,220.1-136.7,365.6-165.7c94.3-18.8,200.9-4,283.7,29.4c18.5,7.4,37.3,16.2,55.7,26V3H0z"/>
<title>waves</title>
<path class="st0" d="M0,3.9v400.8c1.9-1.2,3.8-2.4,5.7-3.7c46.3-30.8,94.3-59,143.7-84.7c208.8-108.5,445.1-171.7,680.7-175.9
	c239.4-4.2,476,54.3,683.1,192.3c56.9,37.9,114.7,82.4,182.5,86.5c116.7,7.1,202.3-103.1,297.4-172.5
	c137.1-100.1,327-119.3,480.7-48.6c113.9,52.4,213.7,130.3,341,69.3c98-46.9,171.3-143.5,282.7-161c154.9-24.4,290.8,75.2,406.9,171
	V3.9H0z"/>
<path class="st1" d="M0,3v47.1C247.5-4.2,501.4-6.7,740.6,105.4c22,10.3,43.6,21.5,65.1,33.1c8.1-0.4,16.2-0.8,24.3-1.1
	c175.9-5.8,352.9,29.8,514,102c100.8-26.7,207.4-45.1,316.7-50.8c13.6-0.7,27.1-1.2,40.5-1.5c18.5-6.9,36.9-13.6,55.3-20.1
	c196.1-69.4,410-112.8,611.8-62.6c148.1,36.8,285.9,125.2,432.5,169c4.6-1.9,9.2-3.9,13.8-6.1c98-46.9,171.3-143.5,282.7-161
	c71.6-11.3,139,3.9,202.4,33c41.3,3.8,81.8,12.3,118.8,24.4c9.9-1.6,19.9-2.8,29.9-3.5c18.2-1.4,38.4-1.1,58.8,1.2V3H0z"/>
</svg>
