<svg xmlns="http://www.w3.org/2000/svg" viewBox="0 0 3507.2 416.527">
  <defs>
    <style>
      .cls-1 {
        fill: #fff;
        opacity: 0.29;
      }

      .cls-2 {
        fill: #f1f3fe;
      }
    </style>
  </defs>
  <g id="Group_41" data-name="Group 41" transform="translate(-2156 -4401)">
    <g id="waves2" transform="translate(2156 4398)">
      <path id="Path_326" data-name="Path 326" class="cls-1" d="M0,3V153.3c45.7-20.4,98-35.2,153.1-42.6,107.3-14.4,223.9-1,315.1,36.3,122,49.8,190.5,140.7,322.4,182,154.8,48.5,314.2-13.7,448.7-58.3,130.5-43.2,273.4-74.3,421.4-82,270.1-14.1,502.5,53.2,746.4,111,125.4,29.7,270.2,46,392.2,11.3,138.8-39.4,220.1-136.7,365.6-165.7,94.3-18.8,200.9-4,283.7,29.4a568.429,568.429,0,0,1,55.7,26V3Z"/>
      <path id="Path_327" data-name="Path 327" class="cls-1" d="M0,3.9V404.7c1.9-1.2,3.8-2.4,5.7-3.7a1555.25,1555.25,0,0,1,143.7-84.7C358.2,207.8,594.5,144.6,830.1,140.4c239.4-4.2,476,54.3,683.1,192.3,56.9,37.9,114.7,82.4,182.5,86.5,116.7,7.1,202.3-103.1,297.4-172.5,137.1-100.1,327-119.3,480.7-48.6,113.9,52.4,213.7,130.3,341,69.3,98-46.9,171.3-143.5,282.7-161,154.9-24.4,290.8,75.2,406.9,171V3.9Z"/>
      <path id="Path_328" data-name="Path 328" class="cls-2" d="M0,3V50.1C247.5-4.2,501.4-6.7,740.6,105.4c22,10.3,43.6,21.5,65.1,33.1,8.1-.4,16.2-.8,24.3-1.1,175.9-5.8,352.9,29.8,514,102,100.8-26.7,207.4-45.1,316.7-50.8q20.4-1.05,40.5-1.5,27.75-10.35,55.3-20.1c196.1-69.4,410-112.8,611.8-62.6,148.1,36.8,285.9,125.2,432.5,169,4.6-1.9,9.2-3.9,13.8-6.1,98-46.9,171.3-143.5,282.7-161,71.6-11.3,139,3.9,202.4,33a546.6,546.6,0,0,1,118.8,24.4c9.9-1.6,19.9-2.8,29.9-3.5a315.926,315.926,0,0,1,58.8,1.2V3Z"/>
    </g>
  </g>
</svg>
