<svg width="233" height="221" viewBox="0 0 233 221" fill="none" xmlns="http://www.w3.org/2000/svg">
<path d="M232.172 179.454L220.086 158.736L231.849 137.801L152.535 138.448L152.858 180.102L232.172 179.454Z" fill="#5D07BB"/>
<path d="M0.705078 181.721L12.791 161.002L1.02881 140.067L101.817 140.715L101.493 182.368L0.705078 181.721Z" fill="#5D07BB"/>
<path d="M196.13 70.3574V137.585C196.13 144.923 192.138 151.83 185.771 155.499L127.5 189.166C121.133 192.835 113.255 192.835 106.781 189.166L65.9908 165.642L52.9336 158.088L48.5093 155.606C46.7827 154.635 45.272 153.448 43.9771 152.045C40.3081 148.269 38.1499 143.089 38.1499 137.693V70.3574C38.1499 63.0195 42.1426 56.1133 48.5093 52.4443L106.781 18.7764C113.147 15.1074 121.025 15.1074 127.5 18.7764L161.275 38.3081L185.771 52.4443C187.821 53.6313 189.548 55.1421 191.059 56.8687C193.217 59.4585 194.835 62.48 195.591 65.8252C195.915 67.228 196.13 68.8467 196.13 70.3574Z" fill="url(#paint0_linear)"/>
<path d="M196.13 70.3574V137.585C196.13 144.923 192.138 151.83 185.771 155.499L127.5 189.166C121.133 192.835 113.255 192.835 106.781 189.166L65.9908 165.642L52.9336 158.088L48.5093 155.606C46.7827 154.635 45.272 153.448 43.9771 152.045C40.3081 148.269 38.1499 143.089 38.1499 137.693V70.3574C38.1499 63.0195 42.1426 56.1133 48.5093 52.4443L106.781 18.7764C113.147 15.1074 121.025 15.1074 127.5 18.7764L161.275 38.3081L185.771 52.4443C187.821 53.6313 189.548 55.1421 191.059 56.8687C193.217 59.4585 194.835 62.48 195.591 65.8252C195.915 67.228 196.13 68.8467 196.13 70.3574Z" stroke="#FFAB00" stroke-width="10.1977" stroke-miterlimit="10" stroke-linecap="round" stroke-linejoin="round"/>
<path d="M117.248 16.0785C120.809 16.0785 124.37 17.0497 127.607 18.8842L161.383 38.4159L185.879 52.5521C187.929 53.7391 189.656 55.2499 191.167 56.9764C193.325 59.5663 194.943 62.5878 195.699 65.933C196.022 67.4437 196.238 68.9545 196.238 70.4652V137.693C196.238 145.031 192.246 151.937 185.879 155.606L127.607 189.274C124.37 191.109 120.809 192.08 117.248 192.08C113.687 192.08 110.126 191.109 106.889 189.274L66.0987 165.75L53.0415 158.196L48.6172 155.714C46.8907 154.743 45.3799 153.556 44.085 152.153C40.416 148.376 38.2578 143.197 38.2578 137.801V70.3573C38.2578 63.0194 42.2505 56.1132 48.6172 52.4442L106.889 18.7762C110.018 16.9418 113.579 16.0785 117.248 16.0785ZM117.248 11.0067C112.716 11.0067 108.292 12.1937 104.407 14.4598L46.1353 48.1278C38.2578 52.66 33.294 61.1849 33.294 70.3573V137.585C33.294 144.276 35.8838 150.535 40.524 155.391C42.2505 157.117 44.085 158.628 46.2432 159.815L50.5596 162.297L63.6167 169.85L104.299 193.483C108.184 195.749 112.608 196.936 117.14 196.936C121.672 196.936 126.097 195.749 129.981 193.483L188.253 159.815C196.13 155.283 201.094 146.758 201.094 137.585V70.3573C201.094 68.4149 200.878 66.5804 200.447 64.746C199.584 60.6454 197.641 56.8685 194.835 53.6312C193.001 51.473 190.735 49.6385 188.253 48.1278L163.757 33.9916L129.981 14.4598C126.097 12.1937 121.672 11.0067 117.248 11.0067Z" fill="#FFDA6A"/>
<path opacity="0.68" d="M191.059 56.8687L44.0849 151.938C40.416 148.161 38.2578 142.981 38.2578 137.585V117.838L161.275 38.3081L185.771 52.4443C187.821 53.6313 189.548 55.1421 191.059 56.8687Z" fill="#FFDA6A"/>
<path opacity="0.68" d="M196.13 70.3574V81.4722L66.0986 165.534L53.0415 157.98L195.591 65.8252C195.915 67.228 196.13 68.8467 196.13 70.3574Z" fill="#FFDA6A"/>
<g filter="url(#filter0_di)">
<path d="M95.388 71.2251V118.256H79.532V83.1843H71.4697V71.2251H95.388ZM145.037 118.256L144.902 96.8231L134.69 114.023H127.703L117.49 97.5622V118.256H103.045V71.2251H116.079L131.398 96.2856L146.313 71.2251H159.347L159.482 118.256H145.037Z" fill="#FFFCFF"/>
</g>
<path d="M171.743 91.7235L174.333 96.9032L180.052 97.7665L175.951 101.867L176.922 107.586L171.743 104.889L166.563 107.586L167.534 101.867L163.326 97.7665L169.153 96.9032L171.743 91.7235Z" fill="#FFFCFF"/>
<path d="M66.0986 92.9105L68.6884 98.0902L74.4077 98.9535L70.1992 103.054L71.2783 108.773L66.0986 106.076L60.9189 108.773L61.8901 103.054L57.6816 98.9535L63.5088 98.0902L66.0986 92.9105Z" fill="#FFFCFF"/>
<path d="M207.677 133.053H23.3662V165.858H207.677V133.053Z" fill="#8601F8"/>
<path d="M36.7471 144L38.1499 146.914L41.3872 147.345L39.0132 149.611L39.5527 152.741L36.7471 151.23L33.9414 152.741L34.481 149.611L32.2148 147.345L35.3442 146.914L36.7471 144Z" fill="#FFFCFF"/>
<path d="M194.08 144L195.483 146.914L198.72 147.345L196.346 149.611L196.886 152.741L194.08 151.23L191.274 152.741L191.814 149.611L189.548 147.345L192.677 146.914L194.08 144Z" fill="#FFFCFF"/>
<path d="M52.59 141.923H59.0349C60.4921 141.923 61.7748 142.191 62.8832 142.727C64.0041 143.25 64.8697 144.003 65.4799 144.987C66.1026 145.971 66.414 147.129 66.414 148.462C66.414 149.794 66.1026 150.952 65.4799 151.936C64.8697 152.92 64.0041 153.68 62.8832 154.215C61.7748 154.738 60.4921 155 59.0349 155H52.59V141.923ZM58.8481 151.563C59.7946 151.563 60.5481 151.295 61.1085 150.759C61.6814 150.211 61.9679 149.445 61.9679 148.462C61.9679 147.478 61.6814 146.718 61.1085 146.183C60.5481 145.635 59.7946 145.361 58.8481 145.361H56.9987V151.563H58.8481ZM74.8797 155.299C73.4724 155.299 72.2083 155.006 71.0874 154.421C69.9666 153.836 69.0886 153.026 68.4534 151.992C67.8183 150.946 67.5007 149.769 67.5007 148.462C67.5007 147.154 67.8183 145.983 68.4534 144.95C69.0886 143.903 69.9666 143.088 71.0874 142.502C72.2083 141.917 73.4724 141.624 74.8797 141.624C76.287 141.624 77.5511 141.917 78.672 142.502C79.7928 143.088 80.6708 143.903 81.306 144.95C81.9412 145.983 82.2587 147.154 82.2587 148.462C82.2587 149.769 81.9412 150.946 81.306 151.992C80.6708 153.026 79.7928 153.836 78.672 154.421C77.5511 155.006 76.287 155.299 74.8797 155.299ZM74.8797 151.731C75.4277 151.731 75.9196 151.6 76.3555 151.339C76.8039 151.065 77.1588 150.685 77.4203 150.199C77.6819 149.701 77.8126 149.122 77.8126 148.462C77.8126 147.802 77.6819 147.229 77.4203 146.743C77.1588 146.245 76.8039 145.865 76.3555 145.603C75.9196 145.329 75.4277 145.192 74.8797 145.192C74.3317 145.192 73.8336 145.329 73.3852 145.603C72.9493 145.865 72.6006 146.245 72.3391 146.743C72.0775 147.229 71.9468 147.802 71.9468 148.462C71.9468 149.122 72.0775 149.701 72.3391 150.199C72.6006 150.685 72.9493 151.065 73.3852 151.339C73.8336 151.6 74.3317 151.731 74.8797 151.731ZM104.662 141.923L100.478 155H95.7514L93.6405 148.013L91.4174 155H86.6911L82.5065 141.923H87.046L89.3251 149.358L91.735 141.923H95.7888L98.0679 149.452L100.478 141.923H104.662ZM118.531 141.923V155H114.907L109.938 149.059V155H105.641V141.923H109.265L114.235 147.864V141.923H118.531ZM120.655 141.923H125.064V151.581H130.967V155H120.655V141.923ZM138.859 155.299C137.451 155.299 136.187 155.006 135.066 154.421C133.946 153.836 133.068 153.026 132.432 151.992C131.797 150.946 131.48 149.769 131.48 148.462C131.48 147.154 131.797 145.983 132.432 144.95C133.068 143.903 133.946 143.088 135.066 142.502C136.187 141.917 137.451 141.624 138.859 141.624C140.266 141.624 141.53 141.917 142.651 142.502C143.772 143.088 144.65 143.903 145.285 144.95C145.92 145.983 146.238 147.154 146.238 148.462C146.238 149.769 145.92 150.946 145.285 151.992C144.65 153.026 143.772 153.836 142.651 154.421C141.53 155.006 140.266 155.299 138.859 155.299ZM138.859 151.731C139.407 151.731 139.899 151.6 140.335 151.339C140.783 151.065 141.138 150.685 141.399 150.199C141.661 149.701 141.792 149.122 141.792 148.462C141.792 147.802 141.661 147.229 141.399 146.743C141.138 146.245 140.783 145.865 140.335 145.603C139.899 145.329 139.407 145.192 138.859 145.192C138.311 145.192 137.813 145.329 137.364 145.603C136.928 145.865 136.58 146.245 136.318 146.743C136.057 147.229 135.926 147.802 135.926 148.462C135.926 149.122 136.057 149.701 136.318 150.199C136.58 150.685 136.928 151.065 137.364 151.339C137.813 151.6 138.311 151.731 138.859 151.731ZM156.566 152.721H151.597L150.719 155H146.236L151.952 141.923H156.286L162.003 155H157.444L156.566 152.721ZM155.352 149.545L154.082 146.257L152.811 149.545H155.352ZM162.706 141.923H169.151C170.608 141.923 171.891 142.191 172.999 142.727C174.12 143.25 174.986 144.003 175.596 144.987C176.219 145.971 176.53 147.129 176.53 148.462C176.53 149.794 176.219 150.952 175.596 151.936C174.986 152.92 174.12 153.68 172.999 154.215C171.891 154.738 170.608 155 169.151 155H162.706V141.923ZM168.964 151.563C169.911 151.563 170.664 151.295 171.225 150.759C171.798 150.211 172.084 149.445 172.084 148.462C172.084 147.478 171.798 146.718 171.225 146.183C170.664 145.635 169.911 145.361 168.964 145.361H167.115V151.563H168.964Z" fill="#FFFCFF"/>
<path d="M21.1001 117.514C22.4113 117.514 23.4742 116.451 23.4742 115.14C23.4742 113.829 22.4113 112.766 21.1001 112.766C19.789 112.766 18.7261 113.829 18.7261 115.14C18.7261 116.451 19.789 117.514 21.1001 117.514Z" fill="#8601F8"/>
<path d="M97.8242 2.37402C97.8242 3.66895 96.7451 4.74805 95.4502 4.74805C94.1553 4.74805 93.0762 3.66895 93.0762 2.37402C93.0762 1.0791 94.1553 0 95.4502 0C96.7451 0 97.8242 1.0791 97.8242 2.37402Z" fill="#8601F8"/>
<path d="M227.748 99.0613C229.715 99.0613 231.309 97.467 231.309 95.5002C231.309 93.5335 229.715 91.9392 227.748 91.9392C225.781 91.9392 224.187 93.5335 224.187 95.5002C224.187 97.467 225.781 99.0613 227.748 99.0613Z" fill="#8601F8"/>
<path d="M71.9257 202.655C74.3692 202.655 76.3501 200.674 76.3501 198.231C76.3501 195.787 74.3692 193.806 71.9257 193.806C69.4823 193.806 67.5014 195.787 67.5014 198.231C67.5014 200.674 69.4823 202.655 71.9257 202.655Z" fill="white"/>
<path d="M184.152 23.9561C188.563 23.9561 192.138 20.3809 192.138 15.9707C192.138 11.5605 188.563 7.98535 184.152 7.98535C179.742 7.98535 176.167 11.5605 176.167 15.9707C176.167 20.3809 179.742 23.9561 184.152 23.9561Z" stroke="#8601F8" stroke-width="1.19899" stroke-miterlimit="10"/>
<path d="M56.2788 27.9487C58.4839 27.9487 60.2715 26.1611 60.2715 23.9561C60.2715 21.751 58.4839 19.9634 56.2788 19.9634C54.0737 19.9634 52.2861 21.751 52.2861 23.9561C52.2861 26.1611 54.0737 27.9487 56.2788 27.9487Z" stroke="url(#paint1_linear)" stroke-width="1.19899" stroke-miterlimit="10"/>
<path d="M157.067 205.029C157.067 206.972 155.448 208.59 153.506 208.59C151.563 208.59 149.945 206.972 149.945 205.029C149.945 203.087 151.563 201.468 153.506 201.468C155.448 201.468 157.067 203.087 157.067 205.029Z" stroke="url(#paint2_linear)" stroke-width="1.19899" stroke-miterlimit="10"/>
<path d="M15.9204 82.3353C15.2729 82.3353 14.7334 81.7958 14.7334 81.1483V68.307C14.7334 67.6595 15.2729 67.12 15.9204 67.12C16.5678 67.12 17.1074 67.6595 17.1074 68.307V81.1483C17.1074 81.7958 16.5678 82.3353 15.9204 82.3353Z" fill="url(#paint3_linear)"/>
<path d="M8.36673 74.7815C8.36673 74.134 8.90628 73.5945 9.55374 73.5945H22.2871C22.9346 73.5945 23.4742 74.134 23.4742 74.7815C23.4742 75.429 22.9346 75.9685 22.2871 75.9685H9.55374C8.90628 75.9685 8.36673 75.429 8.36673 74.7815Z" fill="url(#paint4_linear)"/>
<path d="M216.202 47.5883C215.554 47.5883 215.015 47.0487 215.015 46.4012V33.5599C215.015 32.9125 215.554 32.3729 216.202 32.3729C216.849 32.3729 217.389 32.9125 217.389 33.5599V46.4012C217.389 47.0487 216.849 47.5883 216.202 47.5883Z" fill="white"/>
<path d="M208.54 39.9268C208.54 39.2793 209.08 38.7397 209.727 38.7397H222.568C223.216 38.7397 223.755 39.2793 223.755 39.9268C223.755 40.5742 223.216 41.1138 222.568 41.1138H209.727C209.08 41.1138 208.54 40.5742 208.54 39.9268Z" fill="white"/>
<path d="M96.3135 221C95.666 221 95.1265 220.46 95.1265 219.813V206.971C95.1265 206.324 95.666 205.784 96.3135 205.784C96.9609 205.784 97.5005 206.324 97.5005 206.971V219.813C97.5005 220.46 96.9609 221 96.3135 221Z" fill="#8601F8"/>
<path d="M88.6519 213.446C88.6519 212.799 89.1914 212.259 89.8389 212.259H102.68C103.328 212.259 103.867 212.799 103.867 213.446C103.867 214.094 103.328 214.633 102.68 214.633H89.8389C89.1914 214.633 88.6519 214.094 88.6519 213.446Z" fill="#8601F8"/>
<defs>
<filter id="filter0_di" x="71.4697" y="71.2251" width="88.0121" height="50.0476" filterUnits="userSpaceOnUse" color-interpolation-filters="sRGB">
<feFlood flood-opacity="0" result="BackgroundImageFix"/>
<feColorMatrix in="SourceAlpha" type="matrix" values="0 0 0 0 0 0 0 0 0 0 0 0 0 0 0 0 0 0 127 0" result="hardAlpha"/>
<feOffset dy="3.01707"/>
<feComposite in2="hardAlpha" operator="out"/>
<feColorMatrix type="matrix" values="0 0 0 0 1 0 0 0 0 0.412549 0 0 0 0 0.160784 0 0 0 1 0"/>
<feBlend mode="normal" in2="BackgroundImageFix" result="effect1_dropShadow"/>
<feBlend mode="normal" in="SourceGraphic" in2="effect1_dropShadow" result="shape"/>
<feColorMatrix in="SourceAlpha" type="matrix" values="0 0 0 0 0 0 0 0 0 0 0 0 0 0 0 0 0 0 127 0" result="hardAlpha"/>
<feOffset dy="3.01707"/>
<feComposite in2="hardAlpha" operator="arithmetic" k2="-1" k3="1"/>
<feColorMatrix type="matrix" values="0 0 0 0 0.975 0 0 0 0 0.975 0 0 0 0 0.975 0 0 0 1 0"/>
<feBlend mode="normal" in2="shape" result="effect2_innerShadow"/>
</filter>
<linearGradient id="paint0_linear" x1="70.293" y1="42.2846" x2="165.989" y2="168.108" gradientUnits="userSpaceOnUse">
<stop stop-color="#FFC500"/>
<stop offset="0.1046" stop-color="#FFB811"/>
<stop offset="0.3109" stop-color="#FF963C"/>
<stop offset="0.5993" stop-color="#FF6082"/>
<stop offset="0.9555" stop-color="#FF16E2"/>
<stop offset="1" stop-color="#FF0CEE"/>
</linearGradient>
<linearGradient id="paint1_linear" x1="56.2788" y1="19.9634" x2="56.2788" y2="27.9487" gradientUnits="userSpaceOnUse">
<stop stop-color="#4289FF"/>
<stop offset="1" stop-color="#01FDD6"/>
</linearGradient>
<linearGradient id="paint2_linear" x1="148.726" y1="200.854" x2="153.479" y2="208.606" gradientUnits="userSpaceOnUse">
<stop stop-color="#FFCC3E"/>
<stop offset="1" stop-color="#F79C41"/>
</linearGradient>
<linearGradient id="paint3_linear" x1="18.6551" y1="73.5034" x2="13.8153" y2="73.3397" gradientUnits="userSpaceOnUse">
<stop stop-color="#FF3E6C"/>
<stop offset="1" stop-color="#FC5E51"/>
</linearGradient>
<linearGradient id="paint4_linear" x1="33.323" y1="74.5905" x2="22.7036" y2="59.9391" gradientUnits="userSpaceOnUse">
<stop stop-color="#FF3E6C"/>
<stop offset="1" stop-color="#FC5E51"/>
</linearGradient>
</defs>
</svg>
