<svg width="131" height="131" viewBox="0 0 131 131" fill="none" xmlns="http://www.w3.org/2000/svg">
<rect width="130.935" height="130.935" rx="33.4467" fill="url(#paint0_linear)"/>
<g clip-path="url(#clip0)">
<path d="M65.5001 28C61.6433 28 57.8732 29.1437 54.6664 31.2863C51.4597 33.429 48.9603 36.4745 47.4844 40.0377C46.0085 43.6008 45.6223 47.5216 46.3748 51.3043C47.1272 55.0869 48.9844 58.5615 51.7115 61.2886C54.4386 64.0157 57.9132 65.8729 61.6958 66.6253C65.4784 67.3777 69.3992 66.9916 72.9624 65.5156C76.5256 64.0397 79.571 61.5404 81.7137 58.3336C83.8564 55.1269 85.0001 51.3567 85.0001 47.5C84.9945 42.33 82.9382 37.3733 79.2825 33.7176C75.6267 30.0618 70.6701 28.0056 65.5001 28V28ZM67.1251 47.3034C67.1252 47.5788 67.0554 47.8498 66.9221 48.0909C66.7888 48.3319 66.5964 48.5351 66.3629 48.6814L60.1229 52.5814C59.9416 52.6947 59.7396 52.7712 59.5287 52.8064C59.3177 52.8417 59.1019 52.8351 58.8935 52.787C58.6851 52.7388 58.4883 52.6501 58.3142 52.5259C58.1401 52.4017 57.9921 52.2444 57.8788 52.063C57.7655 51.8816 57.689 51.6797 57.6538 51.4687C57.6185 51.2578 57.6251 51.042 57.6732 50.8336C57.7214 50.6252 57.8101 50.4283 57.9343 50.2542C58.0585 50.0801 58.2158 49.9322 58.3972 49.8189L63.8751 46.4031V39.375C63.8751 38.944 64.0463 38.5307 64.351 38.226C64.6558 37.9212 65.0691 37.75 65.5001 37.75C65.931 37.75 66.3444 37.9212 66.6491 38.226C66.9539 38.5307 67.1251 38.944 67.1251 39.375V47.3034Z" fill="white"/>
</g>
<path d="M53.9761 75C55.8321 75 57.4174 75.3222 58.7321 75.9667C60.0725 76.6111 61.0778 77.5004 61.7481 78.6347C62.4441 79.7689 62.7921 81.032 62.7921 82.424C62.7921 84.1769 62.3152 85.6204 61.3614 86.7547C60.4076 87.8631 59.1445 88.5462 57.5721 88.804V88.9973C61.3872 90.1316 63.2947 92.3742 63.2947 95.7253C63.2947 98.0711 62.5085 99.9787 60.9361 101.448C59.3636 102.892 57.1467 103.613 54.2854 103.613C51.2436 103.613 48.8205 102.866 47.0161 101.371C45.2116 99.8498 44.2063 97.5684 44.0001 94.5267H49.3361C49.465 95.9187 49.9161 97.0271 50.6894 97.852C51.4885 98.6511 52.6098 99.0507 54.0534 99.0507C55.2907 99.0507 56.2574 98.7156 56.9534 98.0453C57.6494 97.3493 57.9974 96.4471 57.9974 95.3387C57.9974 94.024 57.4947 93.0187 56.4894 92.3227C55.4841 91.6267 54.0018 91.2787 52.0427 91.2787H50.9214V86.832H52.0427C55.6516 86.8836 57.4561 85.6333 57.4561 83.0813C57.4561 81.9729 57.1338 81.1093 56.4894 80.4907C55.845 79.8462 54.9685 79.524 53.8601 79.524C52.7001 79.524 51.7463 79.8978 50.9987 80.6453C50.2512 81.3671 49.8258 82.3853 49.7227 83.7H44.3867C44.5414 80.916 45.4436 78.7764 47.0934 77.2813C48.7432 75.7604 51.0374 75 53.9761 75Z" fill="white"/>
<path d="M80.9899 103.343L76.1179 96.46L72.0192 103.343H66.0259L73.1019 92.168L65.8712 81.9213H71.9805L76.7365 88.688L80.8352 81.9213H86.8285L79.6365 92.7867L87.0992 103.343H80.9899Z" fill="white"/>
<defs>
<linearGradient id="paint0_linear" x1="-22.4101" y1="-11.2875" x2="64.9791" y2="131.235" gradientUnits="userSpaceOnUse">
<stop stop-color="#FFCC3E"/>
<stop offset="1" stop-color="#F79C41"/>
</linearGradient>
<clipPath id="clip0">
<rect width="39" height="39" fill="white" transform="translate(46.0001 28)"/>
</clipPath>
</defs>
</svg>
