<svg width="556" height="450" viewBox="0 0 556 450" fill="none" xmlns="http://www.w3.org/2000/svg">
<path d="M555.848 134.5L468.348 186.5L393.648 159.9L302.348 235L235.448 223.1L149.648 280.8V286L236.748 227.9L303.448 239.7L394.348 164.8L468.848 191.3L555.848 139.4V134.5Z" fill="url(#paint0_linear)"/>
<path d="M382.248 163.3C381.948 157 387.048 151.5 393.548 151C400.048 150.5 405.448 155.2 405.748 161.5C406.048 167.8 400.948 173.3 394.448 173.8C387.948 174.3 382.548 169.6 382.248 163.3Z" fill="url(#paint1_linear)"/>
<path d="M290.948 237.7C290.748 231.2 295.948 225.5 302.648 225C309.348 224.4 314.948 229.2 315.148 235.6C315.348 242 310.148 247.7 303.448 248.3C296.748 248.9 291.148 244.2 290.948 237.7Z" fill="url(#paint2_linear)"/>
<path d="M224.348 227C224.148 220.5 229.548 214.8 236.348 214.2C243.148 213.6 248.748 218.4 248.948 224.9C249.148 231.4 243.848 237.1 237.048 237.7C230.248 238.3 224.548 233.5 224.348 227Z" fill="url(#paint3_linear)"/>
<path d="M457.248 188.9C456.948 182.6 461.948 177.1 468.248 176.6C474.648 176.1 479.948 180.7 480.248 187C480.548 193.3 475.648 198.8 469.248 199.3C462.948 199.8 457.548 195.1 457.248 188.9Z" fill="url(#paint4_linear)"/>
<path d="M518.748 449H95.8481V450H518.748V449Z" fill="#34234D"/>
<path d="M231.048 80.4H230.948C225.248 75.8 218.148 74.3 211.248 76.5C211.848 74.4 212.948 72.5 212.048 70.2C211.148 67.9 208.548 66.6 206.348 66C202.248 64.9 197.948 65.4 194.748 67.9C193.548 62.4 188.948 57.7 182.948 58C176.548 58.3 172.148 64 172.048 70C168.748 69.1 165.048 68.7 161.748 69.8C158.948 70.8 158.148 73.6 156.048 74.6C153.248 75.9 149.948 73.6 147.348 76.3C146.248 77.5 145.948 78.8 146.348 80.2C146.848 81.2 147.748 82.1 148.648 82.9H230.248C230.848 83.2 231.448 83.1 231.848 82.7C232.548 82.1 232.348 80.4 231.048 80.4Z" fill="#282339"/>
<path d="M525.848 90C522.548 87.4 518.548 86.6 514.648 87.8C515.048 86.6 515.548 85.5 515.048 84.3C514.548 83 513.048 82.3 511.848 81.9C509.548 81.3 507.048 81.6 505.248 83C504.548 79.9 501.948 77.3 498.548 77.4C494.948 77.6 492.448 80.8 492.348 84.2C490.448 83.7 488.348 83.5 486.548 84.1C484.948 84.6 484.548 86.3 483.348 86.8C481.748 87.5 479.848 86.3 478.448 87.8C477.848 88.5 477.648 89.2 477.848 90C478.148 90.6 478.648 91.1 479.148 91.5H525.148C525.448 91.7 525.848 91.6 526.048 91.4C526.648 90.9 526.548 90 525.848 90Z" fill="#282339"/>
<path d="M416.248 35.8C411.048 31.7 404.648 30.3 398.348 32.3C398.948 30.4 399.848 28.7 399.048 26.7C398.248 24.7 395.948 23.5 393.948 22.9C390.248 21.9 386.348 22.4 383.448 24.6C382.448 19.6 378.248 15.4 372.748 15.7C367.048 16 363.048 21.1 362.848 26.5C359.848 25.7 356.548 25.3 353.548 26.4C350.948 27.3 350.248 29.9 348.348 30.7C345.748 31.8 342.848 29.8 340.548 32.3C339.548 33.4 339.348 34.6 339.648 35.8C340.148 36.7 340.848 37.6 341.748 38.2H415.348C415.848 38.5 416.448 38.4 416.748 38C417.648 37.4 417.448 35.8 416.248 35.8Z" fill="#282339"/>
<path d="M470.248 54.3H448.148V87.8H470.248V54.3Z" fill="url(#paint5_linear)"/>
<path d="M433.648 57.7H484.748L459.248 32.2L433.648 57.7Z" fill="url(#paint6_linear)"/>
<path d="M422.148 231.1H405.148V256.8H422.148V231.1Z" fill="#6D6A78"/>
<path d="M394.048 233.8H433.148L413.548 214.2L394.048 233.8Z" fill="#6D6A78"/>
<path d="M273.548 258.2H256.548V293.9H273.548V258.2Z" fill="#282339"/>
<path d="M245.448 260.9H284.648L265.048 241.3L245.448 260.9Z" fill="#282339"/>
<path d="M500.148 120H489.548V142.3H500.148V120Z" fill="#DBDBDB"/>
<path d="M482.648 121.6H507.048L494.848 109.4L482.648 121.6Z" fill="#DBDBDB"/>
<path d="M382.248 67.5H368.948V95.6H382.248V67.5Z" fill="#DBDBDB"/>
<path d="M360.248 69.6H391.048L375.648 54.2L360.248 69.6Z" fill="#DBDBDB"/>
<path d="M321.048 380.1H312.948V397.2H321.048V380.1Z" fill="#DBDBDB"/>
<path d="M307.648 381.3H326.348L316.948 372L307.648 381.3Z" fill="#DBDBDB"/>
<path d="M499.148 241.2H486.948V279.7H499.148V241.2Z" fill="url(#paint7_linear)"/>
<path d="M478.948 243.1H507.048L493.048 229L478.948 243.1Z" fill="url(#paint8_linear)"/>
<path d="M427.648 128H419.548V153.7H427.648V128Z" fill="url(#paint9_linear)"/>
<path d="M414.248 129.3H433.048L423.648 119.9L414.248 129.3Z" fill="url(#paint10_linear)"/>
<path d="M320.648 18.4H302.248V56.6H320.648V18.4Z" fill="url(#paint11_linear)"/>
<path d="M290.248 21.2H332.748L311.448 0L290.248 21.2Z" fill="url(#paint12_linear)"/>
<path d="M363.748 289.4H341.648V352.9H363.748V289.4Z" fill="url(#paint13_linear)"/>
<path d="M327.148 292.8H378.248L352.748 267.3L327.148 292.8Z" fill="url(#paint14_linear)"/>
<path d="M331.148 158C331.148 158 273.648 195.3 253.948 199.8C253.948 199.8 246.448 191.6 250.248 172.1L329.248 141.6L331.148 158Z" fill="white"/>
<path d="M253.848 200.2L253.748 200C253.448 199.7 246.148 191.4 249.948 172V171.8L250.148 171.7L329.648 141L331.548 158.1L331.348 158.2C330.748 158.6 273.548 195.5 254.048 200.1L253.848 200.2ZM250.648 172.3C247.248 189.8 253.148 198.1 254.148 199.3C273.148 194.7 327.148 160.1 330.848 157.7L329.048 142L250.648 172.3Z" fill="#451DE4"/>
<path d="M263.848 201.3C263.848 201.3 295.648 186.2 316.948 175.1C316.948 175.1 315.548 154.3 306.148 140.1L249.148 171.9C249.148 171.9 246.448 196.5 250.748 199.8C254.948 203.1 263.848 201.3 263.848 201.3Z" fill="#451DE4"/>
<path d="M249.748 116.7C255.948 123.6 263.748 141.6 274.448 174.2C274.448 174.3 264.848 202.9 251.948 200.5C251.748 200.5 251.548 200.4 251.448 200.4L251.348 200.3C245.348 194.7 238.248 189.4 231.448 177.6C213.848 147.4 211.948 135 216.748 118.8C219.548 109 233.348 98.6 249.748 116.7Z" fill="#451DE4"/>
<path d="M270.048 159.6L269.048 159.9C268.948 159.7 263.248 141.7 259.448 136L260.348 135.4C264.248 141.2 269.848 158.8 270.048 159.6Z" fill="#221733"/>
<path d="M341.248 132C341.248 132 339.048 131.3 337.648 131C336.148 130.7 335.248 131 333.448 133.5C331.748 136 327.148 138.7 326.748 142.2C326.348 145.6 325.148 157 331.548 159.7C337.948 162.4 341.348 154.8 337.748 151.4C337.748 151.4 345.048 150 342.248 145.6C342.248 145.6 348.848 141.4 345.148 139.1C345.048 139.1 349.148 132.2 341.248 132Z" fill="white"/>
<path d="M334.148 160.6C333.348 160.6 332.348 160.4 331.348 160C328.248 158.7 324.848 154.5 326.348 142.1C326.648 139.7 328.748 137.7 330.648 135.9C331.648 135 332.548 134.1 333.148 133.3C334.848 130.9 335.948 130.3 337.748 130.7C339.048 131 340.948 131.6 341.348 131.7C343.748 131.8 345.348 132.5 346.148 133.8C347.148 135.7 346.148 138.2 345.648 139.1C346.348 139.6 346.648 140.2 346.648 140.9C346.648 142.9 343.748 145.1 342.748 145.8C343.348 146.8 343.448 147.8 343.048 148.6C342.248 150.4 339.648 151.3 338.448 151.6C339.848 153.4 339.948 156.2 338.548 158.3C337.748 159.5 336.148 160.6 334.148 160.6ZM336.748 131.2C335.848 131.2 335.048 131.8 333.648 133.6C333.048 134.5 332.048 135.4 331.148 136.3C329.348 138 327.248 140 327.048 142.1C325.648 154 328.748 158 331.648 159.2C334.248 160.3 336.548 159.7 337.948 157.7C339.048 156 339.248 153.2 337.448 151.5L336.948 151L337.648 150.9C337.648 150.9 341.448 150.1 342.348 148.2C342.648 147.5 342.448 146.7 341.848 145.7L341.648 145.4L341.948 145.2C343.048 144.5 345.848 142.4 345.848 140.8C345.848 140.3 345.548 139.8 344.848 139.4L344.548 139.2L344.748 138.9C344.748 138.9 346.448 136 345.448 134.1C344.848 133 343.448 132.5 341.248 132.4H341.148C341.148 132.4 338.948 131.7 337.548 131.4C337.248 131.3 337.048 131.2 336.748 131.2Z" fill="#34234D"/>
<path d="M327.148 141.7C327.148 141.7 327.248 142.9 325.648 143.4C323.948 143.9 323.348 156.8 323.348 156.8L328.748 158.2L329.848 155.6L330.548 151.6C330.548 151.6 330.748 148.2 330.548 146.9C330.348 145.6 329.948 143.9 329.948 143.9L327.148 141.7Z" fill="white"/>
<path d="M221.948 421.8C229.248 423.3 246.548 414.6 244.348 413.5C241.948 405.6 240.048 395.9 240.248 392.7C237.348 392.7 214.248 398.2 214.248 398.2C214.248 398.2 217.448 408.4 221.948 421.8Z" fill="white"/>
<path d="M223.748 422.3C223.048 422.3 222.448 422.2 221.848 422.1H221.648L221.548 421.9C217.048 408.6 213.848 398.4 213.848 398.3L213.748 397.9L214.148 397.8C215.048 397.6 237.348 392.3 240.248 392.3H240.648V392.7C240.448 395.8 242.348 405.2 244.748 413.3C244.948 413.5 245.048 413.7 244.948 414C244.148 416.2 231.048 422.3 223.748 422.3ZM222.248 421.5C227.748 422.5 238.848 417.8 242.948 415C243.848 414.4 244.148 414 244.148 413.9H244.048L243.948 413.7C241.548 405.7 239.748 396.7 239.748 393.2C235.948 393.5 217.548 397.9 214.648 398.6C215.248 400.5 218.248 409.7 222.248 421.5Z" fill="#34234D"/>
<path d="M249.448 412.4C249.448 412.4 250.448 422.2 259.848 422.4C269.248 422.6 283.148 420 284.448 425C285.848 430 285.348 429.7 285.348 429.7C285.348 429.7 265.748 441.8 247.948 444C230.248 446.2 221.948 447.6 219.848 443.9C217.648 440.2 217.648 421.3 217.648 418.1C217.748 414.5 243.248 406.6 249.448 412.4Z" fill="#00B5F4"/>
<path d="M246.448 438.9C230.948 440.9 222.248 442.3 218.548 440.6C218.948 442 219.348 443.1 219.748 443.7C221.948 447.4 230.148 446 247.848 443.8C265.548 441.6 285.248 429.5 285.248 429.5C285.248 429.5 285.748 429.9 284.348 424.9C279.548 427.7 262.248 436.9 246.448 438.9Z" fill="white"/>
<path d="M226.648 446.3C222.848 446.3 220.548 445.6 219.548 443.8C219.148 443.2 218.748 442.1 218.248 440.6L218.048 439.8L218.748 440.2C221.948 441.7 229.348 440.7 241.548 439.2C243.048 439 244.748 438.8 246.448 438.6C262.148 436.6 279.348 427.4 284.348 424.7L284.748 424.5L284.848 424.9C286.148 429.5 285.848 429.7 285.648 429.9L285.448 430C283.348 431.2 264.848 442.2 248.148 444.2C246.548 444.4 244.948 444.6 243.448 444.8C235.848 445.7 230.448 446.3 226.648 446.3ZM219.148 441.2C219.548 442.3 219.848 443.1 220.148 443.6C221.948 446.8 229.048 445.9 243.248 444.1C244.748 443.9 246.248 443.7 247.948 443.5C264.848 441.4 283.648 430.2 285.048 429.3C285.048 429 284.948 428.2 284.248 425.5C278.848 428.5 261.948 437.3 246.548 439.3V438.9V439.3C244.848 439.5 243.248 439.7 241.648 439.9C229.748 441.4 222.848 442.3 219.148 441.2Z" fill="#34234D"/>
<path d="M259.148 421.2C258.048 421.2 257.248 421.5 256.748 422.2C255.648 423.7 256.448 426.4 256.548 426.5L257.248 426.3C257.248 426.3 256.448 423.9 257.348 422.7C257.748 422.2 258.248 422 259.148 422V421.2Z" fill="white"/>
<path d="M264.548 421.2C263.448 421.2 262.648 421.5 262.148 422.2C261.048 423.7 261.848 426.4 261.948 426.5L262.648 426.3C262.648 426.3 261.848 423.9 262.748 422.7C263.148 422.2 263.648 422 264.548 422V421.2Z" fill="white"/>
<path d="M240.648 308.1C244.348 321 265.048 393.2 265.048 393.2C265.048 393.2 248.548 403.6 203.448 407.4C203.448 407.4 190.148 343.2 188.348 327.2C186.548 311.1 234.148 285 240.648 308.1Z" fill="#451DE4"/>
<path d="M160.048 242C163.148 255.3 176.148 310.9 189.948 335C197.348 348 247.248 334.7 241.748 312C237.648 294.9 232.048 258.6 218.348 218C208.948 190.4 152.648 210.1 160.048 242Z" fill="#451DE4"/>
<path d="M225.648 386.7C225.648 386.5 228.748 371 234.548 359.5L233.748 359.1C227.948 370.8 224.748 386.4 224.748 386.6L225.648 386.7Z" fill="#F5DCDB"/>
<path d="M128.248 417.7C134.948 421 154.248 421.1 152.448 419.5C152.248 411.2 153.548 404.2 159.248 397.8C152.348 393.6 141.448 389.3 136.448 381.9C130.548 392.7 128.748 403.5 128.248 417.7Z" fill="white"/>
<path d="M146.548 421C140.548 421 131.848 420.1 128.048 418.1L127.848 418V417.8C128.348 404.4 129.948 393.2 136.048 381.9L136.348 381.4L136.648 381.9C140.348 387.3 147.348 391.1 153.548 394.4C155.648 395.5 157.648 396.6 159.348 397.7L159.748 397.9L159.448 398.2C154.448 403.8 152.548 410 152.748 419.5C152.948 419.7 152.848 420 152.748 420.2C152.448 420.7 149.948 421 146.548 421ZM128.548 417.5C134.548 420.3 150.148 420.6 152.048 419.7V419.6C151.848 412.9 152.448 405.1 158.648 398C157.048 397 155.148 396 153.248 395C147.148 391.7 140.348 388.1 136.448 382.8C130.648 393.7 129.148 404.6 128.548 417.5Z" fill="#34234D"/>
<path d="M157.148 415.4C157.148 415.4 155.848 425.2 164.948 427.5C174.048 429.8 188.148 430.5 188.348 435.7C188.548 440.9 188.148 440.4 188.148 440.4C188.148 440.4 166.248 447.6 148.548 445.7C130.848 443.7 122.448 443.2 121.148 439.1C119.948 435 124.248 416.6 125.048 413.5C125.748 410.1 152.448 408.3 157.148 415.4Z" fill="#00B5F4"/>
<path d="M148.148 440.5C132.548 438.9 123.848 438.2 120.648 435.7C120.748 437.1 120.948 438.3 121.148 439C122.348 443.1 130.748 443.6 148.548 445.6C166.248 447.6 188.148 440.3 188.148 440.3C188.148 440.3 188.548 440.8 188.348 435.6C182.848 437.2 163.948 442.2 148.148 440.5Z" fill="white"/>
<path d="M154.948 446.3C152.748 446.3 150.548 446.2 148.448 446C146.848 445.8 145.248 445.6 143.748 445.5C128.748 443.9 121.948 443.1 120.748 439.2C120.548 438.5 120.348 437.4 120.248 435.8L120.148 435L120.748 435.5C123.548 437.7 130.948 438.5 143.148 439.7C144.748 439.9 146.348 440 148.048 440.2C163.748 441.9 182.648 436.9 188.048 435.4L188.448 435.3V435.8C188.648 440.6 188.348 440.7 188.048 440.8L187.848 440.9C185.948 441.4 170.048 446.3 154.948 446.3ZM121.048 436.4C121.148 437.5 121.248 438.4 121.448 438.9C122.548 442.4 129.648 443.2 143.848 444.7C145.348 444.9 146.848 445 148.548 445.2C165.448 447.1 186.348 440.5 187.948 440C188.048 439.7 188.148 438.9 188.048 436.1C182.048 437.8 163.648 442.4 148.148 440.8C146.448 440.6 144.748 440.4 143.248 440.3C131.248 439.1 124.248 438.4 121.048 436.4Z" fill="#34234D"/>
<path d="M164.448 426.2C163.448 425.9 162.548 426 161.848 426.6C160.348 427.8 160.648 430.6 160.648 430.8L161.448 430.7C161.448 430.7 161.248 428.1 162.448 427.2C162.948 426.8 163.548 426.7 164.348 427L164.448 426.2Z" fill="white"/>
<path d="M169.748 427.4C168.648 427.1 167.848 427.2 167.148 427.8C165.648 429 165.948 431.8 165.948 432L166.748 431.9C166.748 431.9 166.548 429.3 167.748 428.4C168.248 428 168.848 427.9 169.648 428.2L169.748 427.4Z" fill="white"/>
<path d="M195.948 319.1C195.948 332.5 194.248 356 192.048 373.7C189.848 391.4 185.748 400.7 185.748 400.7C185.748 400.7 149.448 421 125.848 398.6C125.848 398.6 138.148 345 140.748 329.1C143.248 313.1 195.948 295.1 195.948 319.1Z" fill="#451DE4"/>
<path d="M126.548 226.2C125.948 239.9 129.948 323.4 151.348 341.5C162.848 351.2 195.848 346.6 196.748 323.2C197.448 305.6 198.748 254.6 181.948 215.3C170.748 189.5 128.048 193.5 126.548 226.2Z" fill="#451DE4"/>
<path d="M154.348 383.3C154.448 383.2 161.548 369.1 170.248 359.5L169.548 358.9C160.748 368.6 153.548 382.8 153.448 382.9L154.348 383.3Z" fill="#F5DCDB"/>
<path d="M210.748 224.8C210.748 224.8 206.548 243.9 206.548 261.4C206.548 273.1 232.648 269 232.648 269L227.948 249.7L220.648 222.3L210.748 224.8Z" fill="#3110B4"/>
<path d="M128.348 261.2C128.348 261.2 158.548 275.2 184.048 261.2C184.048 261.2 185.648 235.7 186.448 227.9C187.248 220.1 165.048 223.5 165.048 223.5L133.848 236.3L127.048 246.7C127.048 246.8 127.848 257.4 128.348 261.2Z" fill="#3110B4"/>
<path d="M226.748 103.8C230.448 105.3 239.148 108.8 244.448 113C249.648 117.2 251.848 119.5 247.448 144C243.148 168.5 226.648 202.4 224.348 222.3C224.348 222.3 209.448 220.7 201.648 224.6C193.848 228.6 171.248 216.1 156.748 204.8C142.248 193.5 126.748 206 126.748 206C126.748 206 168.448 119 179.748 107.4C191.048 95.9 205.948 95.4 226.748 103.8Z" fill="white"/>
<path d="M197.948 225.8C187.748 225.8 168.648 214.6 156.548 205.2C142.448 194.2 127.148 206.3 126.948 206.4L125.748 207.4L126.448 206C128.148 202.4 168.248 118.9 179.448 107.3C190.548 95.8 205.148 94.7 226.948 103.5L227.248 103.6C231.248 105.2 239.548 108.6 244.648 112.7C250.048 117.1 252.048 119.8 247.848 144.1C245.748 156.1 240.748 170.3 235.848 184.1C230.748 198.6 225.948 212.3 224.748 222.4V222.8H224.348C224.248 222.8 209.548 221.2 201.848 225.1C200.748 225.6 199.448 225.8 197.948 225.8ZM143.448 199.9C147.748 199.9 152.448 201.1 156.948 204.7C172.748 217 194.348 228.1 201.448 224.4C208.748 220.7 221.648 221.8 223.948 222C225.148 211.8 229.948 198.2 235.048 183.9C239.848 170.2 244.848 156 246.948 144C251.348 119.2 249.048 117.4 244.048 113.3C239.048 109.2 230.748 105.9 226.748 104.3L226.448 104.2C205.048 95.5 190.648 96.6 179.748 107.9C169.348 118.6 132.648 194.3 127.448 205.1C130.148 203.4 136.248 199.9 143.448 199.9Z" fill="#34234D"/>
<path d="M124.348 209.2L125.948 205.8C127.648 202.2 167.848 118.6 179.048 107C190.348 95.4 205.148 94.2 227.048 103.1L227.348 103.2C231.348 104.8 239.748 108.2 244.848 112.4C250.448 116.9 252.548 119.7 248.148 144.2C246.048 156.1 241.148 171.4 236.348 186.2C231.148 202.3 226.248 217.6 225.048 227.8L224.948 229L223.848 228.5C223.748 228.4 209.248 221.7 201.848 225.5C193.348 229.8 169.948 216.5 156.048 205.6C142.248 194.8 127.648 206.3 127.048 206.8L124.348 209.2ZM148.848 200.1C151.648 200.8 154.448 202.1 157.248 204.3C172.948 216.5 194.248 227.5 201.248 224C208.248 220.5 220.048 225 223.648 226.5C225.048 216.1 229.848 201.3 234.848 185.7C239.548 170.9 244.548 155.7 246.548 143.9C250.848 119.4 248.648 117.6 243.848 113.7C238.848 109.7 230.648 106.4 226.748 104.8L226.448 104.7C205.248 96.1 191.048 97.2 180.348 108.2C170.448 118.4 136.148 188.8 128.848 203.8C132.748 201.4 140.448 197.9 148.848 200.1Z" fill="#221733"/>
<path d="M176.148 228.3C191.448 228.3 209.548 226.4 227.448 220.2L224.648 212C183.448 226.4 139.448 215.9 139.048 215.7L136.948 224.1C138.148 224.4 154.248 228.3 176.148 228.3Z" fill="#221733"/>
<path d="M229.548 105C229.548 105 224.348 121.7 224.448 132.3C224.548 143 209.948 245.1 213.048 255.1C216.148 265.1 230.248 262.6 230.248 262.6C230.248 262.6 225.248 225.3 231.848 204.9C237.748 186.5 248.048 145 249.848 124.4C250.348 118.9 245.148 113.8 245.148 113.8C245.148 113.8 239.748 108.2 229.548 105Z" fill="#451DE4"/>
<path d="M230.448 102.4C230.448 102.4 234.548 105.4 237.548 107.7C237.548 107.7 234.248 118.4 233.748 122.6L229.348 123.9L232.448 127.5L219.348 190.5C219.348 190.5 223.048 133.3 225.248 123C227.348 112.8 230.448 102.4 230.448 102.4Z" fill="#3110B4"/>
<path d="M110.248 244.8C110.248 244.8 141.548 266.6 174.548 257C174.548 257 203.048 115.5 212.148 99.2C212.148 99.2 191.148 92.3 174.548 97.4C157.948 102.5 156.448 133.7 143.948 159.2C131.348 184.6 110.248 244.8 110.248 244.8Z" fill="#451DE4"/>
<path d="M97.1483 251.7L69.0483 237.5C67.7483 236.9 66.8483 235.6 66.6483 234.2C66.4483 232.8 66.8483 231.4 67.9483 230.3L74.6483 223.6C76.0483 222.2 78.0483 221.9 79.8483 222.8L102.648 234.3C104.348 235.2 105.348 237 105.048 238.9L103.648 248.3C103.448 249.7 102.548 250.9 101.248 251.6C99.9483 252.4 98.4483 252.4 97.1483 251.7ZM78.0483 226.4C77.8483 226.3 77.6483 226.3 77.4483 226.5L70.7483 233.2C70.5483 233.4 70.5483 233.5 70.6483 233.6C70.6483 233.7 70.7483 233.9 70.9483 234L98.9483 248.2C99.1483 248.3 99.3483 248.3 99.4483 248.2C99.5483 248.1 99.6483 248 99.7483 247.8L101.148 238.4C101.148 238.2 101.048 238 100.848 237.9L78.0483 226.4Z" fill="#221733"/>
<path d="M100.448 338L10.2483 292.3C7.34828 290.8 6.14828 287.3 7.64828 284.3L38.3483 223.6C39.8483 220.7 43.3483 219.5 46.3483 221L136.548 266.7C139.448 268.2 140.648 271.7 139.148 274.7L108.448 335.4C106.948 338.3 103.348 339.4 100.448 338Z" fill="#221733"/>
<path d="M93.3483 334.4L3.24828 288.7C0.348281 287.2 -0.851719 283.7 0.648281 280.7L31.3483 220C32.8483 217.1 36.4483 215.9 39.3483 217.4L129.548 263.1C132.448 264.6 133.648 268.1 132.148 271.1L101.448 331.8C99.8483 334.7 96.3483 335.9 93.3483 334.4Z" fill="#FF5168"/>
<path d="M25.2662 231.971L24.0918 234.291L124.821 285.288L125.996 282.968L25.2662 231.971Z" fill="white"/>
<path d="M81.8483 270.9L62.8483 261.3L69.9483 247.2L88.9483 256.8L81.8483 270.9ZM64.5483 260.6L81.2483 269L87.2483 257.2L70.5483 248.9L64.5483 260.6Z" fill="white"/>
<path d="M93.5482 193.9L92.4482 193.6C95.0482 183.1 104.048 152.8 104.148 152.5L105.148 152.8C105.148 153.2 96.1482 183.5 93.5482 193.9Z" fill="#221733"/>
<path d="M88.8483 210.7C88.8483 210.7 101.448 155.5 111.548 138C111.548 138 122.748 138.1 134.248 154.3L105.548 223.2L88.8483 210.7Z" fill="white"/>
<path d="M105.748 223.7L88.4482 210.8L88.5482 210.6C88.6482 210 101.248 155.1 111.248 137.8L111.348 137.6H111.548C112.048 137.6 123.048 137.9 134.548 154L134.648 154.2L134.548 154.4L105.748 223.7ZM89.3482 210.5L105.448 222.5L133.948 154.3C123.548 139.9 113.448 138.5 111.848 138.4C102.148 155.2 90.2482 206.6 89.3482 210.5Z" fill="#451DE4"/>
<path d="M99.5482 240.9C99.5482 240.9 102.148 239 103.748 237.6C105.348 236.2 106.048 234.9 105.748 231.4C105.548 227.8 107.648 221 105.448 218.3C103.248 215.6 95.6482 206.7 87.4482 211.9C79.2482 217.1 74.8482 232.3 80.9482 230.7C80.9482 230.7 78.7482 236.5 84.7482 236.2C84.7482 236.2 85.1482 243 90.4482 240.5C90.5482 240.4 91.9482 249.5 99.5482 240.9Z" fill="white"/>
<path d="M94.0483 245C93.7483 245 93.4483 245 93.2483 244.9C91.3483 244.3 90.5483 242 90.3483 241C89.0483 241.6 87.8483 241.6 86.8483 241C85.1483 240 84.6483 237.5 84.5483 236.6H84.4483C82.7483 236.6 81.5483 236.1 80.9483 235.2C80.0483 233.9 80.3483 232.2 80.5483 231.2C79.4483 231.3 78.6483 230.9 78.2483 229.9C76.7483 226.4 80.7483 215.9 87.4483 211.6C91.3483 209.1 97.7483 208.1 105.948 218C107.548 219.9 107.048 223.6 106.648 226.9C106.448 228.6 106.248 230.2 106.348 231.3C106.648 235.1 105.848 236.5 104.148 237.9C102.648 239.2 100.248 240.9 99.9483 241.2C97.6483 243.7 95.6483 245 94.0483 245ZM90.8483 239.9L90.9483 240.4C90.9483 240.4 91.4483 243.6 93.4483 244.2C94.9483 244.6 96.9483 243.4 99.3483 240.7L99.4483 240.6C99.4483 240.6 102.048 238.7 103.648 237.3C105.148 236 105.748 234.9 105.548 231.4C105.448 230.1 105.648 228.5 105.848 226.8C106.248 223.7 106.648 220.1 105.348 218.5C99.1483 211 93.1483 208.8 87.8483 212.2C81.5483 216.2 77.5483 226.4 78.9483 229.6C79.3483 230.4 79.9483 230.6 80.9483 230.4L81.6483 230.2L81.3483 230.9C81.3483 230.9 80.4483 233.3 81.4483 234.8C82.0483 235.6 83.1483 236 84.7483 235.9H85.1483V236.3C85.1483 236.3 85.3483 239.5 87.1483 240.5C87.9483 241 89.0483 240.9 90.3483 240.3L90.8483 239.9Z" fill="#451DE4"/>
<path d="M90.5482 240.4C91.6482 239.6 92.5482 238.7 93.4482 237.7C94.2482 236.7 95.0482 235.7 95.7482 234.5C94.6482 235.3 93.7482 236.2 92.8482 237.2C91.9482 238.2 91.1482 239.2 90.5482 240.4Z" fill="#221733"/>
<path d="M84.8483 236.2C86.1483 235 87.3483 233.7 88.4483 232.4C89.5483 231.1 90.6483 229.7 91.6483 228.3C90.8483 228.8 90.2483 229.4 89.5483 230C88.9483 230.6 88.3483 231.3 87.7483 231.9C86.6483 233.2 85.6483 234.6 84.8483 236.2Z" fill="#221733"/>
<path d="M80.9482 230.7C81.6482 229.7 82.2482 228.7 82.9482 227.7C83.2482 227.2 83.5482 226.7 83.9482 226.2C84.2482 225.7 84.6482 225.2 84.9482 224.7C83.8482 225.3 82.9482 226.2 82.2482 227.3C81.9482 227.8 81.6482 228.4 81.4482 229C81.1482 229.5 80.9482 230.1 80.9482 230.7Z" fill="#221733"/>
<path d="M103.748 144.1C103.748 144.1 93.0483 177.6 86.6483 200.7C86.6483 200.7 102.848 213.9 119.548 216.8L135.348 153.5C135.348 153.5 119.248 134.7 113.848 135.6C108.548 136.4 103.748 144.1 103.748 144.1Z" fill="#451DE4"/>
<path d="M186.148 129C180.248 136.2 163.748 146.7 133.148 162.2C133.048 162.2 103.348 157.2 103.748 144C103.748 143.8 103.748 143.6 103.748 143.5L103.848 143.4C108.448 136.6 112.648 128.8 123.248 120.2C150.448 98.2 162.348 94.4 179.048 96.6C189.148 98.1 201.648 110.1 186.148 129Z" fill="#451DE4"/>
<path d="M146.948 155.7L146.448 154.7C146.648 154.6 163.548 146.2 168.648 141.5L169.348 142.3C164.148 147.1 147.648 155.4 146.948 155.7Z" fill="#221733"/>
<path d="M89.3483 210.4C89.3483 210.4 89.3483 211.6 88.2483 211.9C87.1483 212.2 87.6483 215.8 87.6483 215.8L90.6483 219.3L96.7483 222.1C96.7483 222.1 101.748 223.1 102.348 223.2C102.948 223.3 106.148 221 106.148 221L106.748 219.1L105.248 214.3L98.0483 209.5L93.7483 208.4L89.3483 210.4Z" fill="white"/>
<path d="M212.948 95.7C212.948 95.7 206.148 95.9 198.748 94.4C198.748 94.4 196.448 96.2 195.348 106.7L199.548 113.5L191.948 117.3L188.048 192.9C188.048 192.9 199.848 142 204.548 123.9C209.148 105.9 212.948 95.7 212.948 95.7Z" fill="#3110B4"/>
<path d="M233.148 94.7L227.948 109.2C226.648 110 219.448 111 210.148 103L217.448 82.7C217.448 82.7 223.248 87.8 233.148 94.7Z" fill="white"/>
<path d="M225.148 110.2C221.748 110.2 216.248 108.8 209.948 103.3L209.748 103.1L217.248 82L217.648 82.4C217.748 82.5 223.448 87.6 233.348 94.4L233.548 94.6L228.248 109.5L228.148 109.6C227.748 109.9 226.648 110.2 225.148 110.2ZM210.648 102.9C219.548 110.5 226.448 109.6 227.648 109L232.648 94.9C224.448 89.1 219.048 84.6 217.548 83.3L210.648 102.9Z" fill="#34234D"/>
<path d="M229.148 102.8C223.448 102.7 216.148 99.5 213.348 94.2L217.448 82.6C217.448 82.6 223.048 88.1 232.848 95.6L230.248 102.8C229.948 102.8 229.548 102.8 229.148 102.8Z" fill="#34234D" fill-opacity="0.2"/>
<path d="M232.048 101.3C226.648 100.6 217.848 91.9 216.348 86.8C215.848 84.9 216.848 80.5 217.148 78.1C218.248 69.6 223.548 65.3 229.248 64.1C231.648 63.6 239.048 64.7 241.048 65.4C247.848 67.8 247.948 74.7 247.048 81.8C246.048 89.7 241.448 102.6 232.048 101.3Z" fill="white"/>
<path d="M233.348 101.7C232.848 101.7 232.448 101.7 231.948 101.6C226.348 100.8 217.448 92 215.948 86.8C215.548 85.3 216.048 82.3 216.448 79.9C216.548 79.2 216.648 78.5 216.748 77.9C217.748 70.2 222.248 65 229.148 63.5C231.648 63 239.048 64.1 241.148 64.9C248.248 67.4 248.348 74.4 247.448 81.7C246.748 87.6 244.148 95.9 239.148 99.6C237.348 101 235.448 101.7 233.348 101.7ZM230.748 64.2C230.148 64.2 229.548 64.2 229.148 64.3C222.648 65.7 218.348 70.7 217.348 78C217.248 78.6 217.148 79.2 217.048 80C216.648 82.3 216.148 85.2 216.548 86.6C217.948 91.5 226.648 100.1 231.948 100.9C234.348 101.2 236.548 100.6 238.548 99.1C243.248 95.5 245.748 87.5 246.548 81.7C247.448 74.8 247.348 68 240.748 65.7C239.148 65.1 233.848 64.2 230.748 64.2Z" fill="#34234D"/>
<path d="M237.948 89.1L237.748 87.9C239.248 87.7 241.148 87.1 241.448 86.6C241.448 86.6 241.448 86.5 241.448 86.3C239.048 82.3 240.648 77.5 240.748 77.3V77.2L240.848 77.1C240.948 77 243.548 74.6 247.148 76.4L246.648 77.5C244.148 76.3 242.248 77.6 241.848 77.9C241.648 78.7 240.648 82.5 242.548 85.7C242.848 86.3 242.748 86.8 242.648 87.1C241.748 88.6 238.548 89.1 237.948 89.1Z" fill="#221733"/>
<path d="M225.748 67.1C229.948 72.9 244.748 68.3 247.548 73.8C250.548 79.7 260.848 66.5 252.448 58.6C245.148 51.7 238.948 56 230.948 57.1C222.948 58.1 220.848 54.6 215.148 60.7C209.448 66.7 211.948 79.6 215.448 87.4C216.948 90.8 215.248 74.5 221.048 74.9C226.748 75.2 225.748 67.1 225.748 67.1Z" fill="#34234D"/>
<path d="M221.948 110.7L210.148 191.1L196.348 206.5L191.048 182L216.748 109.4L221.948 110.7Z" fill="#FF5168"/>
<path d="M229.748 76.2L229.348 75.1C232.048 74 234.148 73.8 235.748 74.5C236.948 75 237.248 75.9 237.348 76L236.248 76.4C236.148 76.4 235.048 74.1 229.748 76.2Z" fill="#221733"/>
<path d="M232.448 79C232.148 79.8 232.348 80.7 233.048 81C233.748 81.3 234.548 80.8 234.848 80C235.148 79.2 234.948 78.3 234.248 78C233.548 77.7 232.748 78.2 232.448 79Z" fill="#221733"/>
<path d="M242.948 80.4C242.648 81.2 242.848 82.1 243.548 82.4C244.248 82.7 245.048 82.2 245.348 81.4C245.648 80.6 245.448 79.7 244.748 79.4C244.148 79.1 243.348 79.5 242.948 80.4Z" fill="#221733"/>
<path d="M223.348 79.7C222.648 82.8 219.648 84.7 216.648 84C213.548 83.3 211.648 80.3 212.348 77.3C213.048 74.2 216.048 72.3 219.048 73C222.048 73.7 224.048 76.7 223.348 79.7Z" fill="white"/>
<path d="M217.848 84.6C217.448 84.6 216.948 84.6 216.548 84.5C214.948 84.2 213.648 83.2 212.748 81.9C211.848 80.5 211.548 78.9 211.948 77.4C212.648 74.1 215.848 72.1 219.148 72.8C220.748 73.1 222.048 74.1 222.948 75.4C223.848 76.8 224.148 78.4 223.748 79.9C223.448 81.5 222.448 82.8 221.148 83.7C220.148 84.3 219.048 84.6 217.848 84.6ZM217.848 73.3C215.448 73.3 213.248 75 212.648 77.5C212.348 78.9 212.648 80.3 213.348 81.5C214.148 82.7 215.248 83.5 216.648 83.8C218.048 84.1 219.448 83.8 220.648 83.1C221.848 82.3 222.648 81.2 222.948 79.8C223.248 78.4 222.948 77 222.248 75.8C221.448 74.6 220.348 73.8 218.948 73.5C218.548 73.3 218.248 73.3 217.848 73.3Z" fill="#34234D"/>
<path d="M217.248 82.7C216.448 82.6 215.648 82 215.548 82L216.248 81.1C216.448 81.3 217.148 81.7 217.548 81.6C217.648 81.6 217.748 81.5 217.848 81.4C217.948 81.2 217.948 81.2 217.748 80.9C217.448 80.4 216.948 79.8 217.248 78.6C217.448 77.8 217.948 77.3 218.348 76.8C218.948 76.2 218.948 76.2 218.448 75.7C217.548 74.9 215.548 76.3 214.948 76.8L214.148 75.9C214.448 75.6 217.448 73.2 219.248 74.8C220.548 76 219.748 76.9 219.248 77.5C218.948 77.9 218.548 78.3 218.348 78.8C218.148 79.4 218.348 79.7 218.648 80.1C218.948 80.5 219.448 81.1 218.748 82C218.448 82.4 218.148 82.6 217.648 82.7C217.548 82.7 217.448 82.7 217.248 82.7Z" fill="#221733"/>
<path d="M241.848 93.7C241.848 93.7 235.848 94.6 231.248 92C231.248 92 230.748 96 232.548 97.4C234.248 98.6 241.848 93.7 241.848 93.7Z" fill="#221733"/>
<path d="M242.656 162.055L237.35 182.891L238.513 183.187L243.819 162.352L242.656 162.055Z" fill="#221733"/>
<path d="M209.048 107.6L214.548 111.5L219.948 110L223.048 114.3C223.048 114.3 226.748 113.7 227.848 111.3L228.848 107.3C228.848 107.3 224.348 110.7 217.848 107.9C211.448 105.1 210.148 103.1 210.148 103.1L209.048 107.6Z" fill="white"/>
<path d="M222.948 114.7L219.948 110.4L214.648 111.9L208.748 107.7L210.148 102.1L210.548 102.8C210.548 102.8 211.948 104.8 218.148 107.5C224.248 110.2 228.648 107 228.748 107L229.548 106.4L228.248 111.3C227.048 113.9 223.248 114.6 223.148 114.6L222.948 114.7ZM220.148 109.6L223.248 113.9C224.048 113.7 226.748 113 227.548 111.1L228.348 108.1C226.748 109 222.848 110.4 217.848 108.2C213.248 106.2 211.248 104.6 210.448 103.8L209.548 107.5L214.748 111.2L220.148 109.6Z" fill="#34234D"/>
<path d="M194.348 358.9L192.948 358.6C193.048 358.3 199.148 324.2 195.248 297.6L196.648 297.4C200.648 324.3 194.448 358.6 194.348 358.9Z" fill="#F5DCDB"/>
<path d="M344.048 121.2L341.248 127.8L346.248 129.9L349.048 123.3L344.048 121.2Z" fill="white"/>
<path d="M346.448 130.3L340.748 128L343.848 120.7L349.548 123.1L346.448 130.3ZM341.748 127.6L346.048 129.4L348.548 123.5L344.248 121.7L341.748 127.6Z" fill="#34234D"/>
<g opacity="0.3">
<path opacity="0.3" d="M380.948 106.2C375.448 119.1 360.548 125.2 347.548 119.9C334.548 114.6 328.548 99.9 334.048 87C339.548 74.1 354.448 68 367.448 73.3C380.348 78.7 386.448 93.4 380.948 106.2Z" fill="#00B5F4"/>
</g>
<path d="M341.448 121.5L340.548 123.5C340.248 124.1 340.548 124.9 341.248 125.1L348.148 127.9C348.748 128.2 349.548 127.9 349.748 127.2L350.648 125.2L341.448 121.5Z" fill="white"/>
<path d="M348.648 128.4C348.448 128.4 348.248 128.4 348.048 128.3L341.148 125.5C340.748 125.3 340.448 125 340.248 124.6C340.048 124.2 340.048 123.8 340.248 123.4L341.248 121L351.148 125L350.148 127.4C349.948 128 349.348 128.4 348.648 128.4ZM341.648 121.9L340.948 123.6C340.848 123.8 340.848 124 340.948 124.3C341.048 124.5 341.248 124.7 341.448 124.8L348.348 127.6C348.748 127.8 349.348 127.6 349.548 127.1L350.248 125.4L341.648 121.9Z" fill="#34234D"/>
<path d="M385.148 108C391.648 92.8 384.448 75.4 369.148 69.1C353.848 62.9 336.148 70.1 329.648 85.3C323.148 100.5 330.348 117.9 345.648 124.2C361.048 130.5 378.748 123.2 385.148 108ZM334.048 87.1C339.548 74.2 354.448 68.1 367.448 73.4C380.348 78.7 386.448 93.4 380.948 106.2C375.448 119.1 360.548 125.2 347.548 119.9C334.648 114.7 328.548 100 334.048 87.1Z" fill="white"/>
<path d="M333.848 87C339.348 74.1 354.448 67.9 367.448 73.2C373.748 75.8 378.648 80.6 381.248 86.9C383.848 93.2 383.748 100.1 381.048 106.3C375.548 119.2 360.448 125.4 347.448 120.1C341.148 117.5 336.248 112.7 333.648 106.4C331.148 100.2 331.148 93.3 333.848 87ZM380.948 106.2L380.748 106.1C383.348 99.9 383.448 93.1 380.948 87C378.448 80.8 373.548 76.1 367.348 73.5C354.548 68.3 339.648 74.4 334.248 87.1C331.648 93.3 331.548 100.1 334.048 106.2C336.548 112.4 341.448 117.1 347.648 119.7C360.448 124.9 375.348 118.8 380.748 106.1L380.948 106.2Z" fill="#312113"/>
<path d="M322.148 189.5L323.748 185.8L317.248 183.2L315.648 186.9C314.848 188.7 315.748 190.7 317.548 191.5C319.248 192.1 321.348 191.3 322.148 189.5Z" fill="#221733"/>
<path d="M338.648 128.2L315.548 182.5C314.448 185.2 315.648 188.2 318.348 189.3C321.048 190.4 324.148 189.1 325.348 186.4L348.448 132.1C348.848 131.1 348.448 130.1 347.448 129.7L341.148 127.2C340.148 126.8 339.048 127.2 338.648 128.2Z" fill="#34234D"/>
<path d="M372.648 76.5C371.948 76.1 371.248 75.8 370.548 75.4C369.848 75.1 369.148 74.8 368.448 74.5C366.948 74 365.548 73.5 364.048 73.2C361.048 72.5 357.948 72.4 354.948 72.8C351.948 73.2 349.048 74.2 346.448 75.8C343.848 77.3 341.548 79.3 339.548 81.6C338.548 82.7 337.548 83.9 336.648 85.1C335.748 86.3 335.048 87.6 334.448 89C333.848 90.4 333.448 91.8 333.148 93.3C332.948 94.8 332.848 96.3 332.948 97.8C333.148 100.8 333.848 103.8 334.948 106.7C336.048 109.6 337.548 112.3 339.248 114.9C337.148 112.6 335.448 109.9 334.048 107.1C332.648 104.2 331.748 101.2 331.348 98C331.048 94.8 331.448 91.5 332.648 88.4C333.248 86.9 334.048 85.5 334.948 84.1C335.848 82.8 336.848 81.5 337.948 80.4C340.148 78 342.548 75.9 345.448 74.3C348.248 72.7 351.448 71.7 354.648 71.4C357.848 71.1 361.048 71.5 364.148 72.4C365.648 72.9 367.148 73.4 368.548 74.1C370.048 74.8 371.448 75.6 372.648 76.5Z" fill="#34234D"/>
<path d="M337.448 74.7001C351.048 61.9001 367.948 68.5 368.048 68.5L367.948 68.8C367.748 68.7 351.048 62.2 337.648 74.9L337.448 74.7001Z" fill="#34234D"/>
<path d="M330.207 147.547L318.552 174.975L318.829 175.092L330.483 147.665L330.207 147.547Z" fill="#34234D"/>
<path d="M344.648 116.2L344.848 116C357.448 126.1 372.848 115.1 372.948 114.9L373.148 115.1C373.048 115.3 357.448 126.5 344.648 116.2Z" fill="#34234D"/>
<path d="M375.648 111.4C375.748 111.3 381.048 105.6 381.148 99.7H381.448C381.348 105.7 375.848 111.5 375.848 111.6L375.648 111.4Z" fill="#34234D"/>
<path d="M348.348 142.4C348.348 142.4 353.148 142.2 350.648 136.2C348.148 130.2 343.848 131.1 343.448 133.1C343.048 135.2 342.648 136.5 345.248 138.9C345.248 138.9 342.248 138 341.448 140.3C340.648 142.5 341.948 144.6 341.948 144.6C341.948 144.6 339.448 143.3 338.548 144.1C337.648 144.9 337.348 148 339.448 150.3C339.448 150.3 336.348 149.7 336.648 153.5C336.948 157.2 337.948 156.5 337.948 156.5L335.948 160.4C335.948 160.4 341.848 161.3 342.948 154.3C342.948 154.3 347.348 153.3 345.148 148.5C345.248 148.4 351.348 147.7 348.348 142.4Z" fill="white"/>
<path d="M336.648 160.6C336.248 160.6 336.048 160.6 336.048 160.6L335.548 160.5L337.548 156.6C336.948 156.3 336.648 155.2 336.448 153.3C336.348 152 336.648 151 337.348 150.4C337.848 150 338.448 149.8 338.948 149.8C337.248 147.4 337.648 144.6 338.548 143.7C339.248 143.1 340.548 143.4 341.448 143.7C341.148 142.9 340.848 141.5 341.348 140C341.848 138.5 343.248 138.2 344.448 138.2C342.648 136.2 342.948 134.9 343.248 133.2L343.348 132.9C343.548 131.9 344.448 131.2 345.548 131.1C346.348 131 349.148 131.1 351.148 135.9C352.048 138.1 352.148 139.8 351.348 141C350.748 142 349.648 142.4 349.048 142.5C349.748 144 349.848 145.3 349.348 146.3C348.548 147.8 346.748 148.4 345.848 148.6C346.448 150.1 346.448 151.3 345.948 152.4C345.348 153.7 343.948 154.2 343.448 154.4C342.348 160.1 338.248 160.6 336.648 160.6ZM336.648 159.9C338.048 159.9 341.948 159.5 342.748 154.1V153.9L342.948 153.8C342.948 153.8 344.548 153.4 345.248 152.1C345.748 151.2 345.648 150 344.948 148.5L344.748 148.1L345.248 148C345.248 148 347.848 147.7 348.648 146C349.148 145.1 348.948 143.9 348.148 142.4L347.848 141.9H348.448C348.448 141.9 350.048 141.8 350.748 140.6C351.348 139.6 351.248 138.1 350.448 136.1C349.048 132.6 346.948 131.6 345.548 131.7C344.748 131.8 344.048 132.3 343.948 133L343.848 133.3C343.448 135.2 343.248 136.3 345.648 138.5L346.748 139.5L345.348 139.1C345.248 139.1 342.648 138.3 342.048 140.2C341.348 142.3 342.448 144.1 342.448 144.2L343.148 145.3L341.948 144.7C341.248 144.3 339.548 143.6 338.948 144.1C338.248 144.8 337.848 147.6 339.848 149.8L340.548 150.6L339.548 150.4C339.548 150.4 338.448 150.2 337.748 150.9C337.248 151.4 337.048 152.2 337.148 153.3C337.348 155.6 337.748 156 337.848 156L339.048 155.1L338.348 156.5L336.648 159.9Z" fill="#34234D"/>
<path d="M342.148 144.6C342.448 144.8 342.748 145.1 343.048 145.3C343.348 145.6 343.648 145.8 343.848 146.1C344.148 146.4 344.348 146.7 344.548 147C344.748 147.3 344.948 147.7 345.148 148C345.048 147.6 344.948 147.3 344.748 146.9C344.548 146.6 344.348 146.2 344.048 145.9C343.548 145.4 342.848 144.9 342.148 144.6Z" fill="white"/>
<path d="M344.848 148.2C344.648 147.8 344.448 147.5 344.348 147.2C344.148 146.8 343.848 146.6 343.648 146.3C343.448 146 343.148 145.8 342.848 145.5C342.548 145.3 342.248 145 341.948 144.8L342.348 144.2C343.048 144.5 343.748 145.1 344.248 145.7C344.548 146 344.748 146.3 344.948 146.7C345.148 147 345.248 147.4 345.448 147.9L344.848 148.2Z" fill="#34234D"/>
<path d="M339.848 150.3C340.148 150.5 340.448 150.8 340.748 151C341.048 151.3 341.348 151.5 341.548 151.8C341.848 152.1 342.048 152.4 342.248 152.7C342.448 153 342.648 153.4 342.848 153.7C342.748 153.3 342.648 153 342.448 152.6C342.248 152.3 342.048 151.9 341.748 151.6C341.148 151.2 340.548 150.7 339.848 150.3Z" fill="white"/>
<path d="M342.548 153.9C342.348 153.6 342.248 153.2 342.048 152.9C341.848 152.5 341.548 152.3 341.348 152C341.148 151.7 340.848 151.5 340.548 151.2C340.248 151 339.948 150.7 339.648 150.5L340.048 149.9C340.748 150.2 341.448 150.8 341.948 151.4C342.248 151.7 342.448 152.1 342.648 152.4C342.848 152.7 342.948 153.1 343.148 153.6L342.548 153.9Z" fill="#34234D"/>
<path d="M345.348 138.9C345.648 139.1 345.948 139.4 346.248 139.6C346.548 139.9 346.848 140.1 347.048 140.4C347.348 140.7 347.548 141 347.748 141.3C347.948 141.6 348.148 142 348.348 142.3C348.248 141.9 348.148 141.6 347.948 141.2C347.748 140.9 347.548 140.5 347.248 140.2C346.648 139.7 346.048 139.2 345.348 138.9Z" fill="white"/>
<path d="M348.048 142.5C347.848 142.2 347.748 141.8 347.548 141.5C347.348 141.1 347.048 140.9 346.848 140.6C346.648 140.3 346.348 140.1 346.048 139.8C345.748 139.6 345.448 139.3 345.148 139.1L345.548 138.5C346.248 138.8 346.948 139.4 347.448 140C347.748 140.3 347.948 140.6 348.148 141C348.348 141.3 348.448 141.7 348.648 142.2L348.048 142.5Z" fill="#34234D"/>
<path d="M356.348 127C355.348 127 354.748 126.9 354.648 126.9L354.748 125.9C354.948 125.9 372.648 127.5 382.248 112.2C388.248 102.7 386.948 93.1 385.748 88.2C383.948 81.6 380.148 75.8 376.048 73.6L376.548 72.7C380.948 75 384.948 81 386.748 87.9C388.048 92.9 389.448 102.9 383.148 112.7C374.948 125.8 361.048 127 356.348 127Z" fill="#34234D"/>
<defs>
<linearGradient id="paint0_linear" x1="820.659" y1="198.06" x2="201.008" y2="-162.143" gradientUnits="userSpaceOnUse">
<stop stop-color="#FF3E6C"/>
<stop offset="1" stop-color="#FC5E51"/>
</linearGradient>
<linearGradient id="paint1_linear" x1="393.998" y1="150.964" x2="393.998" y2="173.836" gradientUnits="userSpaceOnUse">
<stop stop-color="#4289FF"/>
<stop offset="1" stop-color="#01FDD6"/>
</linearGradient>
<linearGradient id="paint2_linear" x1="303.048" y1="224.949" x2="303.048" y2="248.352" gradientUnits="userSpaceOnUse">
<stop stop-color="#4289FF"/>
<stop offset="1" stop-color="#01FDD6"/>
</linearGradient>
<linearGradient id="paint3_linear" x1="236.648" y1="214.149" x2="236.648" y2="237.751" gradientUnits="userSpaceOnUse">
<stop stop-color="#4289FF"/>
<stop offset="1" stop-color="#01FDD6"/>
</linearGradient>
<linearGradient id="paint4_linear" x1="468.748" y1="176.563" x2="468.748" y2="199.336" gradientUnits="userSpaceOnUse">
<stop stop-color="#4289FF"/>
<stop offset="1" stop-color="#01FDD6"/>
</linearGradient>
<linearGradient id="paint5_linear" x1="459.198" y1="54.3" x2="459.198" y2="87.8" gradientUnits="userSpaceOnUse">
<stop stop-color="#4289FF"/>
<stop offset="1" stop-color="#01FDD6"/>
</linearGradient>
<linearGradient id="paint6_linear" x1="459.198" y1="32.2" x2="459.198" y2="57.7" gradientUnits="userSpaceOnUse">
<stop stop-color="#4289FF"/>
<stop offset="1" stop-color="#01FDD6"/>
</linearGradient>
<linearGradient id="paint7_linear" x1="493.048" y1="241.2" x2="493.048" y2="279.7" gradientUnits="userSpaceOnUse">
<stop stop-color="#4289FF"/>
<stop offset="1" stop-color="#01FDD6"/>
</linearGradient>
<linearGradient id="paint8_linear" x1="492.998" y1="229" x2="492.998" y2="243.1" gradientUnits="userSpaceOnUse">
<stop stop-color="#4289FF"/>
<stop offset="1" stop-color="#01FDD6"/>
</linearGradient>
<linearGradient id="paint9_linear" x1="423.598" y1="128" x2="423.598" y2="153.7" gradientUnits="userSpaceOnUse">
<stop stop-color="#4289FF"/>
<stop offset="1" stop-color="#01FDD6"/>
</linearGradient>
<linearGradient id="paint10_linear" x1="423.648" y1="119.9" x2="423.648" y2="129.3" gradientUnits="userSpaceOnUse">
<stop stop-color="#4289FF"/>
<stop offset="1" stop-color="#01FDD6"/>
</linearGradient>
<linearGradient id="paint11_linear" x1="332.644" y1="34.4265" x2="295.495" y2="30.547" gradientUnits="userSpaceOnUse">
<stop stop-color="#FF3E6C"/>
<stop offset="1" stop-color="#FC5E51"/>
</linearGradient>
<linearGradient id="paint12_linear" x1="360.455" y1="8.89425" x2="287.497" y2="-22.8161" gradientUnits="userSpaceOnUse">
<stop stop-color="#FF3E6C"/>
<stop offset="1" stop-color="#FC5E51"/>
</linearGradient>
<linearGradient id="paint13_linear" x1="378.156" y1="316.041" x2="333.306" y2="312.657" gradientUnits="userSpaceOnUse">
<stop stop-color="#FF3E6C"/>
<stop offset="1" stop-color="#FC5E51"/>
</linearGradient>
<linearGradient id="paint14_linear" x1="411.561" y1="277.998" x2="323.829" y2="239.882" gradientUnits="userSpaceOnUse">
<stop stop-color="#FF3E6C"/>
<stop offset="1" stop-color="#FC5E51"/>
</linearGradient>
</defs>
</svg>
