<svg width="193" height="57" viewBox="0 0 193 57" fill="none" xmlns="http://www.w3.org/2000/svg">
<path d="M185.849 56.5H7.15078C3.48478 56.5 0.5 53.5103 0.5 49.875V7.125C0.5 3.47609 3.48413 0.5 7.15078 0.5H185.849C189.512 0.5 192.5 3.47625 192.5 7.125V49.875C192.5 53.5102 189.512 56.5 185.849 56.5Z" fill="white" stroke="white"/>
<path d="M42.9126 27.333C42.8709 22.7402 46.705 20.5058 46.8803 20.4018C44.7089 17.2625 41.3434 16.8336 40.1607 16.7994C37.334 16.5044 34.5922 18.4766 33.1523 18.4766C31.6836 18.4766 29.4663 16.8279 27.0765 16.8763C24.0012 16.9233 21.1243 18.6889 19.5464 21.4306C16.2901 27.0209 18.7187 35.236 21.8385 39.7547C23.3991 41.9677 25.2227 44.4387 27.6096 44.3517C29.9448 44.2563 30.8171 42.8754 33.6351 42.8754C36.4273 42.8754 37.2464 44.3517 39.6807 44.2962C42.1869 44.2563 43.7648 42.0732 45.2708 39.8402C47.0743 37.3037 47.7985 34.8057 47.8273 34.6774C47.7684 34.6575 42.96 32.8377 42.9126 27.333Z" fill="#161616"/>
<path d="M38.314 13.8268C39.57 12.2693 40.4294 10.1503 40.1908 8C38.373 8.0798 36.0996 9.24688 34.7904 10.7702C33.6322 12.1126 32.5975 14.3127 32.8648 16.3818C34.9068 16.5329 37.0035 15.3601 38.314 13.8268Z" fill="#161616"/>
<path d="M76.7076 44.034H73.4441L71.6564 38.4636H65.4427L63.7398 44.034H60.5625L66.7188 25.0701H70.5212L76.7076 44.034ZM71.1175 36.1266L69.5009 31.1748C69.3299 30.6689 69.0094 29.4776 68.5366 27.6023H68.4791C68.2909 28.4088 67.9877 29.6001 67.5709 31.1748L65.983 36.1266H71.1175Z" fill="#161616"/>
<path d="M92.5395 37.0287C92.5395 39.3543 91.9057 41.1926 90.6383 42.542C89.503 43.7433 88.0933 44.3432 86.4105 44.3432C84.5941 44.3432 83.2893 43.6963 82.4946 42.4024H82.4371V49.6057H79.3734V34.8613C79.3734 33.3992 79.3346 31.8987 79.2598 30.3597H81.9543L82.1253 32.5271H82.1828C83.2045 30.8941 84.7551 30.079 86.8359 30.079C88.4626 30.079 89.8206 30.716 90.907 31.9913C91.9963 33.2681 92.5395 34.9468 92.5395 37.0287ZM89.4182 37.1399C89.4182 35.8089 89.1165 34.7117 88.51 33.8481C87.8476 32.9475 86.958 32.4972 85.8429 32.4972C85.087 32.4972 84.4001 32.748 83.7865 33.2425C83.1714 33.7412 82.7691 34.3925 82.5808 35.199C82.486 35.5752 82.4385 35.883 82.4385 36.1253V38.4053C82.4385 39.3999 82.7461 40.2392 83.3611 40.9247C83.9762 41.6101 84.7752 41.9521 85.7581 41.9521C86.912 41.9521 87.8102 41.5103 88.4525 40.6297C89.0963 39.7476 89.4182 38.5848 89.4182 37.1399Z" fill="#161616"/>
<path d="M108.4 37.0287C108.4 39.3543 107.766 41.1926 106.497 42.542C105.364 43.7433 103.954 44.3432 102.271 44.3432C100.455 44.3432 99.1498 43.6963 98.3565 42.4024H98.2991V49.6057H95.2353V34.8613C95.2353 33.3992 95.1965 31.8987 95.1218 30.3597H97.8162L97.9872 32.5271H98.0447C99.065 30.8941 100.616 30.079 102.698 30.079C104.323 30.079 105.681 30.716 106.77 31.9913C107.855 33.2681 108.4 34.9468 108.4 37.0287ZM105.279 37.1399C105.279 35.8089 104.976 34.7117 104.369 33.8481C103.707 32.9475 102.82 32.4972 101.703 32.4972C100.946 32.4972 100.261 32.748 99.6456 33.2425C99.0305 33.7412 98.6296 34.3925 98.4413 35.199C98.3479 35.5752 98.2991 35.883 98.2991 36.1253V38.4053C98.2991 39.3999 98.6066 40.2392 99.2188 40.9247C99.8338 41.6087 100.633 41.9521 101.619 41.9521C102.773 41.9521 103.671 41.5103 104.313 40.6297C104.957 39.7476 105.279 38.5848 105.279 37.1399Z" fill="#161616"/>
<path d="M126.133 38.7159C126.133 40.329 125.568 41.6414 124.435 42.6546C123.189 43.7618 121.454 44.3147 119.225 44.3147C117.167 44.3147 115.518 43.9214 114.269 43.1334L114.979 40.6012C116.324 41.4077 117.8 41.8124 119.408 41.8124C120.562 41.8124 121.46 41.5531 122.105 41.0372C122.747 40.5214 123.068 39.8288 123.068 38.9653C123.068 38.1958 122.803 37.5474 122.273 37.0216C121.746 36.4958 120.865 36.007 119.635 35.5553C116.287 34.3169 114.614 32.5029 114.614 30.1175C114.614 28.5585 115.2 27.2803 116.374 26.2856C117.544 25.2896 119.105 24.7922 121.056 24.7922C122.796 24.7922 124.242 25.0929 125.396 25.6928L124.63 28.1695C123.552 27.5881 122.334 27.2974 120.97 27.2974C119.892 27.2974 119.05 27.561 118.446 28.0854C117.936 28.5542 117.68 29.1257 117.68 29.8025C117.68 30.5521 117.972 31.172 118.558 31.6593C119.069 32.1096 119.996 32.597 121.341 33.1228C122.986 33.7797 124.195 34.5478 124.972 35.4284C125.747 36.3062 126.133 37.4049 126.133 38.7159Z" fill="#161616"/>
<path d="M136.263 32.6397H132.886V39.2788C132.886 40.9674 133.481 41.811 134.673 41.811C135.221 41.811 135.675 41.764 136.034 41.6699L136.119 43.977C135.515 44.2007 134.721 44.3133 133.736 44.3133C132.526 44.3133 131.581 43.9471 130.898 43.216C130.219 42.4836 129.877 41.2552 129.877 39.5296V32.6368H127.865V30.3568H129.877V27.8531L132.886 26.9525V30.3568H136.263V32.6397Z" fill="#161616"/>
<path d="M151.5 37.0843C151.5 39.1862 150.893 40.9119 149.683 42.2613C148.414 43.6507 146.73 44.3433 144.631 44.3433C142.607 44.3433 140.996 43.6778 139.795 42.3468C138.594 41.0159 137.993 39.3358 137.993 37.3109C137.993 35.1919 138.611 33.4563 139.851 32.1068C141.088 30.7559 142.758 30.0804 144.858 30.0804C146.881 30.0804 148.509 30.7459 149.738 32.0783C150.913 33.3708 151.5 35.0394 151.5 37.0843ZM148.321 37.1826C148.321 35.9215 148.049 34.8399 147.499 33.9379C146.857 32.8464 145.938 32.302 144.748 32.302C143.517 32.302 142.581 32.8478 141.939 33.9379C141.389 34.8414 141.117 35.94 141.117 37.2396C141.117 38.5008 141.389 39.5823 141.939 40.4829C142.602 41.5745 143.527 42.1188 144.721 42.1188C145.891 42.1188 146.809 41.5631 147.472 40.4544C148.036 39.5353 148.321 38.4423 148.321 37.1826Z" fill="#161616"/>
<path d="M161.458 33.0316C161.155 32.976 160.832 32.9475 160.493 32.9475C159.415 32.9475 158.581 33.3508 157.995 34.1588C157.485 34.8713 157.229 35.7719 157.229 36.8591V44.034H154.167L154.196 34.6661C154.196 33.09 154.157 31.655 154.081 30.3611H156.749L156.861 32.9774H156.946C157.269 32.0783 157.779 31.3544 158.478 30.8114C159.16 30.3227 159.898 30.079 160.692 30.079C160.975 30.079 161.231 30.0989 161.458 30.1346V33.0316Z" fill="#161616"/>
<path d="M175.16 36.5499C175.16 37.0943 175.125 37.5531 175.048 37.9279H165.857C165.893 39.2788 166.337 40.3119 167.191 41.0244C167.965 41.6614 168.967 41.9806 170.197 41.9806C171.558 41.9806 172.799 41.7654 173.916 41.3336L174.396 43.4426C173.091 44.0069 171.551 44.2877 169.773 44.2877C167.635 44.2877 165.956 43.6635 164.735 42.4166C163.516 41.1698 162.905 39.4954 162.905 37.3949C162.905 35.333 163.473 33.6158 164.61 32.2464C165.8 30.7844 167.408 30.0533 169.431 30.0533C171.418 30.0533 172.923 30.7844 173.945 32.2464C174.754 33.4078 175.16 34.8442 175.16 36.5499ZM172.239 35.7619C172.259 34.8613 172.059 34.0832 171.644 33.4263C171.114 32.5813 170.299 32.1595 169.202 32.1595C168.201 32.1595 167.386 32.5713 166.764 33.3978C166.254 34.0547 165.95 34.8428 165.857 35.7605H172.239V35.7619Z" fill="#161616"/>
<path d="M70.1045 13.4036C70.1045 15.0809 69.5972 16.3434 68.5841 17.1913C67.6457 17.9736 66.3121 18.3655 64.5848 18.3655C63.7283 18.3655 62.9955 18.3284 62.3818 18.2543V9.09016C63.1823 8.96191 64.0445 8.89636 64.9757 8.89636C66.6211 8.89636 67.8613 9.25119 68.6976 9.96084C69.6346 10.7631 70.1045 11.9102 70.1045 13.4036ZM68.5166 13.445C68.5166 12.3577 68.2263 11.5241 67.6457 10.9427C67.0651 10.3627 66.2173 10.072 65.1007 10.072C64.6265 10.072 64.2227 10.1033 63.8879 10.1689V17.1357C64.0732 17.1642 64.4124 17.177 64.9053 17.177C66.0578 17.177 66.9473 16.8593 67.5739 16.2237C68.2004 15.5882 68.5166 14.6619 68.5166 13.445Z" fill="#161616"/>
<path d="M78.5241 14.8685C78.5241 15.9017 78.2266 16.7481 77.6317 17.4122C77.008 18.0947 76.1817 18.4353 75.1499 18.4353C74.1555 18.4353 73.3637 18.109 72.7731 17.4535C72.1839 16.7994 71.8893 15.9743 71.8893 14.9797C71.8893 13.9394 72.1925 13.0859 72.8018 12.4232C73.4111 11.7606 74.2302 11.4286 75.262 11.4286C76.2564 11.4286 77.0554 11.7549 77.6604 12.409C78.2352 13.0445 78.5241 13.8653 78.5241 14.8685ZM76.962 14.917C76.962 14.2971 76.8269 13.7656 76.5582 13.3224C76.2421 12.7866 75.7923 12.5187 75.2074 12.5187C74.6024 12.5187 74.1426 12.7866 73.8264 13.3224C73.5562 13.7656 73.4226 14.3057 73.4226 14.9441C73.4226 15.5639 73.5577 16.0955 73.8264 16.5386C74.1526 17.0744 74.6067 17.3423 75.193 17.3423C75.7678 17.3423 76.2191 17.0702 76.5438 16.5244C76.8226 16.0727 76.962 15.5369 76.962 14.917Z" fill="#161616"/>
<path d="M89.8134 11.5654L87.6938 18.2829H86.3143L85.4362 15.3659C85.2135 14.6377 85.0324 13.9138 84.8916 13.1956H84.8643C84.7335 13.9338 84.5524 14.6563 84.3196 15.3659L83.387 18.2829H81.9916L79.9985 11.5654H81.5462L82.3121 14.7589C82.4975 15.5141 82.6498 16.2337 82.772 16.9149H82.7993C82.9113 16.3534 83.0967 15.6381 83.3583 14.7731L84.3196 11.5669H85.5469L86.468 14.7047C86.6908 15.4699 86.8718 16.2067 87.0112 16.9163H87.0529C87.1549 16.2252 87.3087 15.4885 87.5127 14.7047L88.3347 11.5669H89.8134V11.5654Z" fill="#161616"/>
<path d="M97.6209 18.2828H96.1149V14.4353C96.1149 13.2497 95.6608 12.6569 94.7497 12.6569C94.3028 12.6569 93.9421 12.8194 93.6618 13.1457C93.3845 13.472 93.2437 13.8568 93.2437 14.2971V18.2814H91.7376V13.4849C91.7376 12.8949 91.719 12.2551 91.683 11.5625H93.0066L93.077 12.6128H93.1186C93.294 12.2864 93.5555 12.0171 93.899 11.8019C94.3071 11.5511 94.764 11.4243 95.2641 11.4243C95.8964 11.4243 96.4224 11.6267 96.8406 12.0328C97.3608 12.5301 97.6209 13.2725 97.6209 14.2586V18.2828Z" fill="#161616"/>
<path d="M101.774 18.2829H100.269V8.48315H101.774V18.2829Z" fill="#161616"/>
<path d="M110.64 14.8685C110.64 15.9017 110.343 16.7481 109.748 17.4122C109.124 18.0947 108.297 18.4353 107.266 18.4353C106.27 18.4353 105.479 18.109 104.889 17.4535C104.3 16.7994 104.006 15.9743 104.006 14.9797C104.006 13.9394 104.309 13.0859 104.918 12.4232C105.527 11.7606 106.347 11.4286 107.377 11.4286C108.373 11.4286 109.17 11.7549 109.777 12.409C110.352 13.0445 110.64 13.8653 110.64 14.8685ZM109.077 14.917C109.077 14.2971 108.942 13.7656 108.673 13.3224C108.358 12.7866 107.907 12.5187 107.324 12.5187C106.717 12.5187 106.257 12.7866 105.943 13.3224C105.673 13.7656 105.539 14.3057 105.539 14.9441C105.539 15.5639 105.674 16.0955 105.943 16.5386C106.269 17.0744 106.723 17.3423 107.309 17.3423C107.884 17.3423 108.334 17.0702 108.659 16.5244C108.939 16.0727 109.077 15.5369 109.077 14.917Z" fill="#161616"/>
<path d="M117.929 18.2828H116.577L116.465 17.5091H116.423C115.96 18.1261 115.301 18.4353 114.444 18.4353C113.805 18.4353 113.287 18.2315 112.898 17.8268C112.544 17.4592 112.368 17.0018 112.368 16.4588C112.368 15.638 112.713 15.0125 113.407 14.5793C114.099 14.1461 115.074 13.9337 116.328 13.9437V13.8183C116.328 12.9334 115.86 12.4916 114.921 12.4916C114.253 12.4916 113.664 12.6584 113.155 12.989L112.849 12.0086C113.479 11.6224 114.256 11.4286 115.173 11.4286C116.943 11.4286 117.831 12.3548 117.831 14.2073V16.6811C117.831 17.3523 117.864 17.8867 117.929 18.2828ZM116.366 15.9743V14.9384C114.704 14.9099 113.874 15.3616 113.874 16.2921C113.874 16.6427 113.969 16.9049 114.163 17.0801C114.357 17.2554 114.604 17.3423 114.898 17.3423C115.229 17.3423 115.538 17.2383 115.82 17.0317C116.103 16.8236 116.276 16.56 116.341 16.2365C116.357 16.1639 116.366 16.0755 116.366 15.9743Z" fill="#161616"/>
<path d="M126.487 18.2829H125.15L125.08 17.2042H125.038C124.611 18.025 123.884 18.4354 122.862 18.4354C122.046 18.4354 121.366 18.1176 120.828 17.482C120.289 16.8465 120.02 16.0214 120.02 15.0082C120.02 13.921 120.312 13.0403 120.898 12.3677C121.466 11.7407 122.161 11.4272 122.989 11.4272C123.899 11.4272 124.535 11.7307 124.897 12.3392H124.926V8.48315H126.433V16.4731C126.433 17.1272 126.451 17.73 126.487 18.2829ZM124.926 15.45V14.3299C124.926 14.1361 124.912 13.9794 124.884 13.8597C124.8 13.5006 124.617 13.1985 124.34 12.9548C124.059 12.7111 123.722 12.5886 123.332 12.5886C122.77 12.5886 122.331 12.8095 122.007 13.2526C121.687 13.6958 121.525 14.2615 121.525 14.9527C121.525 15.6167 121.678 16.1554 121.987 16.57C122.313 17.0118 122.753 17.2327 123.304 17.2327C123.798 17.2327 124.193 17.0488 124.493 16.6798C124.784 16.3392 124.926 15.9288 124.926 15.45Z" fill="#161616"/>
<path d="M139.367 14.8685C139.367 15.9017 139.069 16.7481 138.474 17.4122C137.851 18.0947 137.026 18.4353 135.993 18.4353C135 18.4353 134.208 18.109 133.616 17.4535C133.027 16.7994 132.732 15.9743 132.732 14.9797C132.732 13.9394 133.035 13.0859 133.645 12.4232C134.254 11.7606 135.073 11.4286 136.106 11.4286C137.099 11.4286 137.9 11.7549 138.503 12.409C139.078 13.0445 139.367 13.8653 139.367 14.8685ZM137.806 14.917C137.806 14.2971 137.671 13.7656 137.402 13.3224C137.085 12.7866 136.636 12.5187 136.05 12.5187C135.447 12.5187 134.987 12.7866 134.669 13.3224C134.399 13.7656 134.265 14.3057 134.265 14.9441C134.265 15.5639 134.4 16.0955 134.669 16.5386C134.995 17.0744 135.449 17.3423 136.036 17.3423C136.611 17.3423 137.063 17.0702 137.388 16.5244C137.665 16.0727 137.806 15.5369 137.806 14.917Z" fill="#161616"/>
<path d="M147.464 18.2828H145.96V14.4353C145.96 13.2497 145.506 12.6569 144.593 12.6569C144.146 12.6569 143.786 12.8194 143.507 13.1457C143.228 13.472 143.089 13.8568 143.089 14.2971V18.2814H141.581V13.4849C141.581 12.8949 141.564 12.2551 141.528 11.5625H142.85L142.921 12.6128H142.962C143.139 12.2864 143.401 12.0171 143.743 11.8019C144.152 11.5511 144.608 11.4243 145.109 11.4243C145.74 11.4243 146.266 11.6267 146.684 12.0328C147.206 12.5301 147.464 13.2725 147.464 14.2586V18.2828Z" fill="#161616"/>
<path d="M157.6 12.684H155.942V15.9473C155.942 16.7766 156.236 17.1913 156.82 17.1913C157.09 17.1913 157.314 17.1685 157.491 17.1215L157.53 18.2544C157.232 18.3655 156.841 18.4211 156.36 18.4211C155.765 18.4211 155.302 18.2415 154.967 17.8824C154.631 17.5233 154.464 16.9191 154.464 16.0713V12.684H153.474V11.5654H154.464V10.3342L155.94 9.89246V11.564H157.598V12.684H157.6Z" fill="#161616"/>
<path d="M165.573 18.2829H164.065V14.4639C164.065 13.2598 163.611 12.657 162.701 12.657C162.003 12.657 161.526 13.0061 161.264 13.7044C161.22 13.8511 161.194 14.0307 161.194 14.2416V18.2815H159.689V8.48315H161.194V12.5316H161.223C161.697 11.7949 162.377 11.4272 163.257 11.4272C163.881 11.4272 164.397 11.6296 164.807 12.0357C165.317 12.5416 165.573 13.294 165.573 14.2886V18.2829Z" fill="#161616"/>
<path d="M173.797 14.6063C173.797 14.8742 173.777 15.0994 173.741 15.2832H169.224C169.244 15.9473 169.46 16.4531 169.878 16.8037C170.26 17.1172 170.753 17.2739 171.357 17.2739C172.025 17.2739 172.634 17.1685 173.183 16.9562L173.419 17.9936C172.776 18.27 172.021 18.4082 171.145 18.4082C170.096 18.4082 169.27 18.1019 168.672 17.4891C168.072 16.8764 167.774 16.0541 167.774 15.0224C167.774 14.0093 168.051 13.1657 168.61 12.4931C169.194 11.7749 169.983 11.4158 170.979 11.4158C171.953 11.4158 172.693 11.7749 173.193 12.4931C173.597 13.0631 173.797 13.7684 173.797 14.6063ZM172.36 14.2202C172.371 13.777 172.272 13.3951 172.068 13.073C171.806 12.6584 171.408 12.4503 170.869 12.4503C170.378 12.4503 169.977 12.6527 169.671 13.0588C169.421 13.3823 169.273 13.7684 169.224 14.2202H172.36Z" fill="#161616"/>
</svg>
