<svg width="131" height="131" viewBox="0 0 131 131" fill="none" xmlns="http://www.w3.org/2000/svg">
<rect y="0.0324707" width="130.935" height="130.935" rx="33.4467" fill="url(#paint0_linear)"/>
<g clip-path="url(#clip0)">
<path d="M95.1456 63.5307H35.7901C32.2999 63.5307 29.4607 66.3699 29.4607 69.8601V95.1776C29.4607 98.6678 32.2999 101.507 35.7901 101.507H95.1456C98.6358 101.507 101.475 98.6678 101.475 95.1776V69.8601C101.475 66.3699 98.6359 63.5307 95.1456 63.5307ZM48.5895 93.0678H40.1503C38.9841 93.0678 38.0405 92.1242 38.0405 90.958V74.0797C38.0405 72.9135 38.9841 71.9699 40.1503 71.9699C41.3165 71.9699 42.2601 72.9135 42.2601 74.0797V88.8482H48.5895C49.7556 88.8482 50.6993 89.7919 50.6993 90.958C50.6993 92.1242 49.7556 93.0678 48.5895 93.0678ZM59.1385 90.958C59.1385 92.1242 58.1948 93.0678 57.0287 93.0678C55.8625 93.0678 54.9189 92.1242 54.9189 90.958V74.0797C54.9189 72.9135 55.8625 71.9699 57.0287 71.9699C58.1948 71.9699 59.1385 72.9135 59.1385 74.0797V90.958ZM75.953 74.5907L71.7334 91.469C71.4985 92.4086 70.6558 93.0678 69.6874 93.0678C68.719 93.0678 67.8764 92.4085 67.6415 91.469L63.4219 74.5907C63.1376 73.4616 63.8257 72.316 64.9569 72.0337C66.0839 71.7412 67.2315 72.4376 67.5138 73.5687L69.6874 82.2594L71.8611 73.5688C72.1413 72.4377 73.2869 71.7392 74.418 72.0339C75.5492 72.316 76.2374 73.4616 75.953 74.5907ZM90.7854 80.4091C91.9515 80.4091 92.8952 81.3527 92.8952 82.5189C92.8952 83.685 91.9515 84.6287 90.7854 84.6287H84.456V88.8482H90.7854C91.9515 88.8482 92.8952 89.7919 92.8952 90.958C92.8952 92.1242 91.9515 93.0678 90.7854 93.0678H82.3462C81.1801 93.0678 80.2364 92.1242 80.2364 90.958V74.0797C80.2364 72.9135 81.1801 71.9699 82.3462 71.9699H90.7854C91.9515 71.9699 92.8952 72.9135 92.8952 74.0797C92.8952 75.2458 91.9515 76.1895 90.7854 76.1895H84.456V80.4091H90.7854Z" fill="white"/>
<path d="M46.8999 58.1873C40.7435 49.987 40.7435 38.5356 46.8999 30.3354C47.5984 29.4063 48.9232 29.2146 49.8544 29.9151C50.7857 30.6157 50.9732 31.9384 50.2747 32.8697C45.2372 39.5762 45.2372 48.9466 50.2747 55.653C50.9732 56.5842 50.7857 57.9069 49.8544 58.6075C48.9271 59.3032 47.6017 59.1229 46.8999 58.1873Z" fill="white"/>
<path d="M81.0809 58.6074C80.1496 57.907 79.9621 56.5841 80.6606 55.6529C85.6981 48.9464 85.6981 39.5759 80.6606 32.8696C79.9621 31.9383 80.1496 30.6156 81.0809 29.915C82.0121 29.2165 83.339 29.4061 84.0354 30.3353C90.1918 38.5355 90.1918 49.9869 84.0354 58.1871C83.3347 59.1214 82.01 59.3042 81.0809 58.6074Z" fill="white"/>
<path d="M54.4594 54.1079C49.4322 48.4956 49.4322 40.0276 54.4594 34.4151C55.2382 33.5477 56.5775 33.4776 57.4387 34.2502C58.3061 35.0269 58.3803 36.3621 57.6036 37.2296C54.0144 41.239 54.0144 47.284 57.6036 51.2935C58.3803 52.1609 58.3061 53.4959 57.4387 54.2728C56.5743 55.0485 55.2369 54.9779 54.4594 54.1079Z" fill="white"/>
<path d="M73.4973 54.2726C72.6299 53.4959 72.5558 52.1607 73.3325 51.2933C76.9217 47.2838 76.9217 41.2388 73.3325 37.2294C72.5558 36.362 72.6299 35.0269 73.4973 34.2501C74.3626 33.4754 75.6998 33.5454 76.4766 34.4149C81.5038 40.0273 81.5038 48.4953 76.4766 54.1078C75.6994 54.9774 74.3619 55.0484 73.4973 54.2726Z" fill="white"/>
<path d="M65.468 50.5907C61.9778 50.5907 59.1386 47.7514 59.1386 44.2613C59.1386 40.7711 61.9778 37.9319 65.468 37.9319C68.9581 37.9319 71.7974 40.7711 71.7974 44.2613C71.7974 47.7514 68.9583 50.5907 65.468 50.5907Z" fill="white"/>
</g>
<defs>
<linearGradient id="paint0_linear" x1="216.295" y1="54.9651" x2="-38.9411" y2="-0.37189" gradientUnits="userSpaceOnUse">
<stop stop-color="#FF3E6C"/>
<stop offset="1" stop-color="#FC5E51"/>
</linearGradient>
<clipPath id="clip0">
<rect width="72.0144" height="72.0144" fill="white" transform="translate(29.4603 29.4929)"/>
</clipPath>
</defs>
</svg>
