<svg width="87" height="87" viewBox="0 0 87 87" fill="none" xmlns="http://www.w3.org/2000/svg">
<circle cx="43.5" cy="43.5" r="43.5" fill="url(#paint0_linear)"/>
<path d="M22.232 49.36V45.356L31.276 32.952H36.428V45.188H38.808V49.36H36.428V53H31.584V49.36H22.232ZM31.976 38.496L27.104 45.188H31.976V38.496ZM45.5805 48.212V53H40.6245V48.212H45.5805ZM48.3057 37.656C48.3057 36.704 48.5764 35.808 49.1177 34.968C49.659 34.128 50.4617 33.4467 51.5257 32.924C52.6084 32.4013 53.915 32.14 55.4457 32.14C56.995 32.14 58.3017 32.4013 59.3657 32.924C60.4484 33.4467 61.251 34.128 61.7737 34.968C62.315 35.808 62.5857 36.704 62.5857 37.656C62.5857 38.7013 62.343 39.5973 61.8577 40.344C61.3724 41.072 60.663 41.632 59.7297 42.024C61.951 43.0133 63.0617 44.684 63.0617 47.036C63.0617 48.38 62.7257 49.5373 62.0537 50.508C61.3817 51.46 60.467 52.188 59.3097 52.692C58.171 53.1773 56.883 53.42 55.4457 53.42C54.027 53.42 52.739 53.1773 51.5817 52.692C50.4244 52.188 49.5097 51.46 48.8377 50.508C48.1657 49.5373 47.8297 48.38 47.8297 47.036C47.8297 44.684 48.9404 43.0133 51.1617 42.024C50.2284 41.632 49.519 41.072 49.0337 40.344C48.5484 39.5973 48.3057 38.7013 48.3057 37.656ZM53.0097 38.468C53.0097 39.2333 53.2244 39.8213 53.6537 40.232C54.1017 40.624 54.699 40.82 55.4457 40.82C56.1924 40.82 56.7804 40.624 57.2097 40.232C57.6577 39.8213 57.8817 39.2333 57.8817 38.468C57.8817 37.7213 57.6577 37.1333 57.2097 36.704C56.7617 36.2747 56.1737 36.06 55.4457 36.06C54.7177 36.06 54.1297 36.2747 53.6817 36.704C53.2337 37.1333 53.0097 37.7213 53.0097 38.468ZM52.4777 46.756C52.4777 47.596 52.739 48.2587 53.2617 48.744C53.803 49.2293 54.531 49.472 55.4457 49.472C56.3604 49.472 57.079 49.2293 57.6017 48.744C58.143 48.2587 58.4137 47.596 58.4137 46.756C58.4137 45.916 58.1337 45.2627 57.5737 44.796C57.0324 44.3107 56.323 44.068 55.4457 44.068C54.5684 44.068 53.8497 44.3107 53.2897 44.796C52.7484 45.2627 52.4777 45.916 52.4777 46.756Z" fill="white"/>
<defs>
<linearGradient id="paint0_linear" x1="43.5" y1="0" x2="43.5" y2="87" gradientUnits="userSpaceOnUse">
<stop stop-color="#FF3E6C"/>
<stop offset="1" stop-color="#FC5E51"/>
</linearGradient>
</defs>
</svg>
