<svg width="87" height="87" viewBox="0 0 87 87" fill="none" xmlns="http://www.w3.org/2000/svg">
<circle cx="43.5" cy="43.5" r="43.5" fill="url(#paint0_linear)"/>
<path d="M18.456 32.336C19.8373 32.336 21.0227 32.5787 22.012 33.064C23.0013 33.5307 23.748 34.184 24.252 35.024C24.7747 35.8453 25.036 36.7787 25.036 37.824C25.036 39.112 24.7 40.148 24.028 40.932C23.3747 41.716 22.5533 42.2107 21.564 42.416V42.556C24.1213 43.3773 25.4 44.9733 25.4 47.344C25.4 48.4827 25.1387 49.5 24.616 50.396C24.0933 51.2733 23.328 51.964 22.32 52.468C21.3307 52.9533 20.136 53.196 18.736 53.196C16.4587 53.196 14.648 52.636 13.304 51.516C11.9787 50.396 11.26 48.688 11.148 46.392H15.824C15.8613 47.2693 16.104 47.96 16.552 48.464C17 48.968 17.6533 49.22 18.512 49.22C19.2027 49.22 19.744 49.0147 20.136 48.604C20.5467 48.1933 20.752 47.6613 20.752 47.008C20.752 45.384 19.576 44.572 17.224 44.572H16.328V40.68H17.196C19.3053 40.7173 20.36 39.9613 20.36 38.412C20.36 37.74 20.1733 37.2267 19.8 36.872C19.4453 36.4987 18.96 36.312 18.344 36.312C17.672 36.312 17.14 36.5453 16.748 37.012C16.356 37.46 16.132 38.0667 16.076 38.832H11.4C11.4933 36.7413 12.1467 35.136 13.36 34.016C14.5733 32.896 16.272 32.336 18.456 32.336ZM35.4091 32.336C36.7905 32.336 37.9758 32.5787 38.9651 33.064C39.9545 33.5307 40.7011 34.184 41.2051 35.024C41.7278 35.8453 41.9891 36.7787 41.9891 37.824C41.9891 39.112 41.6531 40.148 40.9811 40.932C40.3278 41.716 39.5065 42.2107 38.5171 42.416V42.556C41.0745 43.3773 42.3531 44.9733 42.3531 47.344C42.3531 48.4827 42.0918 49.5 41.5691 50.396C41.0465 51.2733 40.2811 51.964 39.2731 52.468C38.2838 52.9533 37.0891 53.196 35.6891 53.196C33.4118 53.196 31.6011 52.636 30.2571 51.516C28.9318 50.396 28.2131 48.688 28.1011 46.392H32.7771C32.8145 47.2693 33.0571 47.96 33.5051 48.464C33.9531 48.968 34.6065 49.22 35.4651 49.22C36.1558 49.22 36.6971 49.0147 37.0891 48.604C37.4998 48.1933 37.7051 47.6613 37.7051 47.008C37.7051 45.384 36.5291 44.572 34.1771 44.572H33.2811V40.68H34.1491C36.2585 40.7173 37.3131 39.9613 37.3131 38.412C37.3131 37.74 37.1265 37.2267 36.7531 36.872C36.3985 36.4987 35.9131 36.312 35.2971 36.312C34.6251 36.312 34.0931 36.5453 33.7011 37.012C33.3091 37.46 33.0851 38.0667 33.0291 38.832H28.3531C28.4465 36.7413 29.0998 35.136 30.3131 34.016C31.5265 32.896 33.2251 32.336 35.4091 32.336ZM55.0223 53L50.3463 46.364V53H45.5583V32.28H50.3463V43.648L55.0223 37.376H60.6503L54.3503 45.188L60.7903 53H55.0223ZM75.8947 45.412H71.0507V50.34H66.4307V45.412H61.5867V41.016H66.4307V36.06H71.0507V41.016H75.8947V45.412Z" fill="white"/>
<defs>
<linearGradient id="paint0_linear" x1="-14.8904" y1="-7.5" x2="43.1754" y2="87.199" gradientUnits="userSpaceOnUse">
<stop stop-color="#FFCC3E"/>
<stop offset="1" stop-color="#F79C41"/>
</linearGradient>
</defs>
</svg>
