<svg width="442" height="412" viewBox="0 0 442 412" fill="none" xmlns="http://www.w3.org/2000/svg">
<path d="M149.123 147.904H10.0584C7.05109 147.904 4.59058 145.444 4.59058 142.437V4.10084C4.59058 2.00485 6.32205 0.364502 8.32692 0.364502H150.764C152.86 0.364502 154.5 2.09598 154.5 4.10084V142.437C154.591 145.444 152.13 147.904 149.123 147.904Z" fill="white"/>
<path d="M149.123 148.178H10.0583C6.86879 148.178 4.31714 145.627 4.31714 142.437V4.10128C4.31714 1.91415 6.13975 0.0915527 8.32687 0.0915527H150.763C152.951 0.0915527 154.773 1.91415 154.773 4.10128V142.437C154.864 145.627 152.222 148.178 149.123 148.178ZM8.418 0.547204C6.50427 0.547204 4.86393 2.09641 4.86393 4.10128V142.437C4.86393 145.353 7.23331 147.631 10.0583 147.631H149.032C151.948 147.631 154.226 145.262 154.226 142.437V4.10128C154.226 2.18754 152.677 0.547204 150.672 0.547204H8.418Z" fill="#34234D"/>
<path d="M150.763 0.273376H8.60018C6.50418 0.273376 4.77271 2.00485 4.77271 4.10085V8.56623H154.682V4.10085C154.591 2.00485 152.859 0.273376 150.763 0.273376Z" fill="#E6E6E6"/>
<path d="M154.865 8.83964H4.50024V4.10086C4.50024 1.82261 6.32285 0 8.60111 0H150.764C153.043 0 154.865 1.82261 154.865 4.10086V8.83964ZM4.9559 8.38399H154.318V4.192C154.318 2.18713 152.678 0.637916 150.764 0.637916H8.60111C6.59624 0.637916 5.04702 2.27826 5.04702 4.192V8.38399H4.9559Z" fill="#34234D"/>
<path d="M140.921 3.73633C140.375 3.73633 140.01 4.10085 140.01 4.64763C140.01 5.19441 140.375 5.55893 140.921 5.55893C141.468 5.55893 141.833 5.19441 141.833 4.64763C141.833 4.19198 141.377 3.73633 140.921 3.73633Z" fill="#2B1D40"/>
<path d="M144.749 3.73633C144.202 3.73633 143.837 4.10085 143.837 4.64763C143.837 5.19441 144.202 5.55893 144.749 5.55893C145.295 5.55893 145.66 5.19441 145.66 4.64763C145.66 4.19198 145.295 3.73633 144.749 3.73633Z" fill="#FF5168"/>
<path d="M148.667 3.73633C148.121 3.73633 147.756 4.10085 147.756 4.64763C147.756 5.19441 148.121 5.55893 148.667 5.55893C149.214 5.55893 149.579 5.19441 149.579 4.64763C149.579 4.19198 149.123 3.73633 148.667 3.73633Z" fill="#00B5F4"/>
<path d="M71.4802 15.6744H15.7085V71.4462H71.4802V15.6744Z" fill="url(#paint0_linear)"/>
<path d="M66.7414 67.6187L50.4291 35.2675L40.7692 55.6806L33.9345 44.9273L20.5383 67.5276L66.7414 67.6187Z" fill="#FFF7F8"/>
<path d="M36.395 31.5311C36.395 33.5359 38.0354 35.0852 40.0402 35.0852C42.0451 35.0852 43.5943 33.4448 43.5943 31.4399C43.5943 29.4351 41.954 27.8859 39.9491 27.8859C37.9442 27.8859 36.395 29.5262 36.395 31.5311Z" fill="#212121"/>
<path d="M19.764 19.2075L19.248 19.7225L67.4069 67.9632L67.9229 67.4482L19.764 19.2075Z" fill="#212121"/>
<path d="M67.4918 19.1736L19.292 67.3734L19.8075 67.8889L68.0073 19.6891L67.4918 19.1736Z" fill="#212121"/>
<path d="M20.5383 68.3477C21.723 68.3477 21.9053 68.0744 21.9053 67.801C21.9053 67.5276 21.723 67.2542 20.5383 67.2542C19.3536 67.2542 19.1714 67.5276 19.1714 67.801C19.1714 68.1655 19.3536 68.3477 20.5383 68.3477Z" fill="#212121"/>
<path d="M24.457 68.3477C25.6417 68.3477 25.824 68.0744 25.824 67.801C25.824 67.5276 25.6417 67.2542 24.457 67.2542C23.2723 67.2542 23.0901 67.5276 23.0901 67.801C23.0901 68.1655 23.2723 68.3477 24.457 68.3477Z" fill="#212121"/>
<path d="M28.3757 68.3477C29.5604 68.3477 29.7427 68.0744 29.7427 67.801C29.7427 67.5276 29.5604 67.2542 28.3757 67.2542C27.191 67.2542 27.0088 67.5276 27.0088 67.801C27.0999 68.1655 27.191 68.3477 28.3757 68.3477Z" fill="#212121"/>
<path d="M32.3855 68.3477C33.5702 68.3477 33.7525 68.0744 33.7525 67.801C33.7525 67.5276 33.5702 67.2542 32.3855 67.2542C31.2008 67.2542 31.0186 67.5276 31.0186 67.801C31.0186 68.1655 31.2008 68.3477 32.3855 68.3477Z" fill="#212121"/>
<path d="M36.304 68.3477C37.4887 68.3477 37.6709 68.0744 37.6709 67.801C37.6709 67.5276 37.4887 67.2542 36.304 67.2542C35.1193 67.2542 34.937 67.5276 34.937 67.801C34.937 68.1655 35.1193 68.3477 36.304 68.3477Z" fill="#212121"/>
<path d="M40.2227 68.3477C41.4074 68.3477 41.5896 68.0744 41.5896 67.801C41.5896 67.5276 41.4074 67.2542 40.2227 67.2542C39.038 67.2542 38.8557 67.5276 38.8557 67.801C38.9468 68.1655 39.038 68.3477 40.2227 68.3477Z" fill="#212121"/>
<path d="M44.2324 68.3477C45.4171 68.3477 45.5994 68.0744 45.5994 67.801C45.5994 67.5276 45.4171 67.2542 44.2324 67.2542C43.0477 67.2542 42.8655 67.5276 42.8655 67.801C42.8655 68.1655 43.0477 68.3477 44.2324 68.3477Z" fill="#212121"/>
<path d="M48.1509 68.3477C49.3356 68.3477 49.5178 68.0744 49.5178 67.801C49.5178 67.5276 49.3356 67.2542 48.1509 67.2542C46.9662 67.2542 46.7839 67.5276 46.7839 67.801C46.7839 68.1655 46.9662 68.3477 48.1509 68.3477Z" fill="#212121"/>
<path d="M52.0696 68.3477C53.2543 68.3477 53.4365 68.0744 53.4365 67.801C53.4365 67.5276 53.2543 67.2542 52.0696 67.2542C50.8849 67.2542 50.7026 67.5276 50.7026 67.801C50.7026 68.1655 50.8849 68.3477 52.0696 68.3477Z" fill="#212121"/>
<path d="M55.988 68.3477C57.1727 68.3477 57.355 68.0744 57.355 67.801C57.355 67.5276 57.1727 67.2542 55.988 67.2542C54.8034 67.2542 54.6211 67.5276 54.6211 67.801C54.7122 68.1655 54.8034 68.3477 55.988 68.3477Z" fill="#212121"/>
<path d="M59.9978 68.3477C61.1825 68.3477 61.3648 68.0744 61.3648 67.801C61.3648 67.5276 61.1825 67.2542 59.9978 67.2542C58.8131 67.2542 58.6309 67.5276 58.6309 67.801C58.6309 68.1655 58.8131 68.3477 59.9978 68.3477Z" fill="#212121"/>
<path d="M63.9165 68.3477C65.1012 68.3477 65.2835 68.0744 65.2835 67.801C65.2835 67.5276 65.1012 67.2542 63.9165 67.2542C62.7318 67.2542 62.5496 67.5276 62.5496 67.801C62.5496 68.1655 62.7318 68.3477 63.9165 68.3477Z" fill="#212121"/>
<path d="M67.1972 68.53L67.4706 68.3477C67.5618 68.3477 67.6529 68.3477 67.744 68.3477H68.2908V67.6187L68.6553 67.2542H68.2908C68.1997 66.434 68.0174 66.3429 67.744 66.3429C67.4706 66.3429 67.2884 66.434 67.1972 67.3453C66.8327 67.4364 66.5593 67.5276 66.5593 67.801C66.5593 68.0743 66.8327 68.2566 67.1972 68.2566V68.53Z" fill="#212121"/>
<path d="M67.7438 65.067C68.0172 65.067 68.2906 64.8848 68.2906 63.7001C68.2906 62.5154 68.0172 62.3331 67.7438 62.3331C67.4704 62.3331 67.197 62.5154 67.197 63.7001C67.197 64.9759 67.4704 65.067 67.7438 65.067Z" fill="#212121"/>
<path d="M67.7438 61.1485C68.0172 61.1485 68.2906 60.9662 68.2906 59.7815C68.2906 58.5968 68.0172 58.4146 67.7438 58.4146C67.4704 58.4146 67.197 58.5968 67.197 59.7815C67.197 60.9662 67.4704 61.1485 67.7438 61.1485Z" fill="#212121"/>
<path d="M67.7438 57.2298C68.0172 57.2298 68.2906 57.0476 68.2906 55.8629C68.2906 54.6782 68.0172 54.4959 67.7438 54.4959C67.4704 54.4959 67.197 54.6782 67.197 55.8629C67.197 57.0476 67.4704 57.2298 67.7438 57.2298Z" fill="#212121"/>
<path d="M67.7438 53.3112C68.0172 53.3112 68.2906 53.129 68.2906 51.9443C68.2906 50.7596 68.0172 50.5773 67.7438 50.5773C67.4704 50.5773 67.197 50.7596 67.197 51.9443C67.197 53.129 67.4704 53.3112 67.7438 53.3112Z" fill="#212121"/>
<path d="M67.7438 49.3015C68.0172 49.3015 68.2906 49.1192 68.2906 47.9346C68.2906 46.7499 68.0172 46.5676 67.7438 46.5676C67.4704 46.5676 67.197 46.7499 67.197 47.9346C67.197 49.1192 67.4704 49.3015 67.7438 49.3015Z" fill="#212121"/>
<path d="M67.7438 45.3829C68.0172 45.3829 68.2906 45.2006 68.2906 44.0159C68.2906 42.8312 68.0172 42.649 67.7438 42.649C67.4704 42.649 67.197 42.8312 67.197 44.0159C67.197 45.2006 67.4704 45.3829 67.7438 45.3829Z" fill="#212121"/>
<path d="M67.7438 41.4643C68.0172 41.4643 68.2906 41.2821 68.2906 40.0974C68.2906 38.9127 68.0172 38.7304 67.7438 38.7304C67.4704 38.7304 67.197 38.9127 67.197 40.0974C67.197 41.2821 67.4704 41.4643 67.7438 41.4643Z" fill="#212121"/>
<path d="M67.7438 37.4546C68.0172 37.4546 68.2906 37.2723 68.2906 36.0876C68.2906 34.9029 68.0172 34.7207 67.7438 34.7207C67.4704 34.7207 67.197 34.9029 67.197 36.0876C67.197 37.3635 67.4704 37.4546 67.7438 37.4546Z" fill="#212121"/>
<path d="M67.7438 33.536C68.0172 33.536 68.2906 33.3537 68.2906 32.169C68.2906 30.9843 68.0172 30.8021 67.7438 30.8021C67.4704 30.8021 67.197 30.9843 67.197 32.169C67.197 33.3537 67.4704 33.536 67.7438 33.536Z" fill="#212121"/>
<path d="M67.7438 29.6174C68.0172 29.6174 68.2906 29.4351 68.2906 28.2504C68.2906 27.0657 68.0172 26.8835 67.7438 26.8835C67.4704 26.8835 67.197 27.0657 67.197 28.2504C67.197 29.4351 67.4704 29.6174 67.7438 29.6174Z" fill="#212121"/>
<path d="M67.7438 25.6988C68.0172 25.6988 68.2906 25.5165 68.2906 24.3318C68.2906 23.1471 68.0172 22.9648 67.7438 22.9648C67.4704 22.9648 67.197 23.1471 67.197 24.3318C67.197 25.5165 67.4704 25.6988 67.7438 25.6988Z" fill="#212121"/>
<path d="M64.4631 20.231C65.6478 20.231 65.8301 19.9576 65.8301 19.6842C65.8301 19.4108 65.6478 19.1374 64.4631 19.1374C63.2785 19.1374 63.0962 19.4108 63.0962 19.6842C63.0962 19.9576 63.2785 20.231 64.4631 20.231Z" fill="#212121"/>
<path d="M60.5447 20.231C61.7294 20.231 61.9116 19.9576 61.9116 19.6842C61.9116 19.4108 61.7294 19.1374 60.5447 19.1374C59.36 19.1374 59.1777 19.4108 59.1777 19.6842C59.1777 19.9576 59.36 20.231 60.5447 20.231Z" fill="#212121"/>
<path d="M56.5349 20.231C57.7196 20.231 57.9019 19.9576 57.9019 19.6842C57.9019 19.4108 57.7196 19.1374 56.5349 19.1374C55.3502 19.1374 55.168 19.4108 55.168 19.6842C55.2591 19.9576 55.3502 20.231 56.5349 20.231Z" fill="#212121"/>
<path d="M52.6162 20.231C53.8009 20.231 53.9832 19.9576 53.9832 19.6842C53.9832 19.4108 53.8009 19.1374 52.6162 19.1374C51.4315 19.1374 51.2493 19.4108 51.2493 19.6842C51.2493 19.9576 51.4315 20.231 52.6162 20.231Z" fill="#212121"/>
<path d="M48.6978 20.231C49.8825 20.231 50.0647 19.9576 50.0647 19.6842C50.0647 19.4108 49.8825 19.1374 48.6978 19.1374C47.5131 19.1374 47.3308 19.4108 47.3308 19.6842C47.3308 19.9576 47.5131 20.231 48.6978 20.231Z" fill="#212121"/>
<path d="M44.7791 20.231C45.9638 20.231 46.146 19.9576 46.146 19.6842C46.146 19.4108 45.9638 19.1374 44.7791 19.1374C43.5944 19.1374 43.4121 19.4108 43.4121 19.6842C43.4121 19.9576 43.5944 20.231 44.7791 20.231Z" fill="#212121"/>
<path d="M40.7693 20.231C41.954 20.231 42.1363 19.9576 42.1363 19.6842C42.1363 19.4108 41.954 19.1374 40.7693 19.1374C39.5846 19.1374 39.4023 19.4108 39.4023 19.6842C39.4935 19.9576 39.5846 20.231 40.7693 20.231Z" fill="#212121"/>
<path d="M36.8508 20.231C38.0355 20.231 38.2178 19.9576 38.2178 19.6842C38.2178 19.4108 38.0355 19.1374 36.8508 19.1374C35.6661 19.1374 35.4839 19.4108 35.4839 19.6842C35.4839 19.9576 35.6661 20.231 36.8508 20.231Z" fill="#212121"/>
<path d="M32.9321 20.231C34.1168 20.231 34.2991 19.9576 34.2991 19.6842C34.2991 19.4108 34.1168 19.1374 32.9321 19.1374C31.7474 19.1374 31.5652 19.4108 31.5652 19.6842C31.5652 19.9576 31.7474 20.231 32.9321 20.231Z" fill="#212121"/>
<path d="M28.9224 20.231C30.1071 20.231 30.2893 19.9576 30.2893 19.6842C30.2893 19.4108 30.1071 19.1374 28.9224 19.1374C27.7377 19.1374 27.5554 19.4108 27.5554 19.6842C27.6466 19.9576 27.7377 20.231 28.9224 20.231Z" fill="#212121"/>
<path d="M25.0039 20.231C26.1886 20.231 26.3709 19.9576 26.3709 19.6842C26.3709 19.4108 26.1886 19.1374 25.0039 19.1374C23.8192 19.1374 23.637 19.4108 23.637 19.6842C23.637 19.9576 23.8192 20.231 25.0039 20.231Z" fill="#212121"/>
<path d="M21.0852 20.231C22.2699 20.231 22.4522 19.9576 22.4522 19.6842C22.4522 19.4108 22.2699 19.1374 21.0852 19.1374C19.9005 19.1374 19.7183 19.4108 19.7183 19.6842C19.7183 19.9576 19.9005 20.231 21.0852 20.231Z" fill="#212121"/>
<path d="M19.536 23.4205C19.8094 23.4205 20.0828 23.2382 20.0828 22.0535C20.0828 20.8688 19.8094 20.6866 19.536 20.6866C19.2626 20.6866 18.9893 20.8688 18.9893 22.0535C18.9893 23.2382 19.2626 23.4205 19.536 23.4205Z" fill="#212121"/>
<path d="M19.536 27.3391C19.8094 27.3391 20.0828 27.1569 20.0828 25.9722C20.0828 24.7875 19.8094 24.6052 19.536 24.6052C19.2626 24.6052 18.9893 24.7875 18.9893 25.9722C18.9893 27.248 19.2626 27.3391 19.536 27.3391Z" fill="#212121"/>
<path d="M19.536 31.3488C19.8094 31.3488 20.0828 31.1666 20.0828 29.9819C20.0828 28.7972 19.8094 28.6149 19.536 28.6149C19.2626 28.6149 18.9893 28.7972 18.9893 29.9819C18.9893 31.1666 19.2626 31.3488 19.536 31.3488Z" fill="#212121"/>
<path d="M19.536 35.2674C19.8094 35.2674 20.0828 35.0852 20.0828 33.9005C20.0828 32.7158 19.8094 32.5335 19.536 32.5335C19.2626 32.5335 18.9893 32.7158 18.9893 33.9005C18.9893 35.0852 19.2626 35.2674 19.536 35.2674Z" fill="#212121"/>
<path d="M19.536 39.1861C19.8094 39.1861 20.0828 39.0038 20.0828 37.8191C20.0828 36.6344 19.8094 36.4521 19.536 36.4521C19.2626 36.4521 18.9893 36.6344 18.9893 37.8191C18.9893 39.0949 19.2626 39.1861 19.536 39.1861Z" fill="#212121"/>
<path d="M19.536 43.1958C19.8094 43.1958 20.0828 43.0135 20.0828 41.8288C20.0828 40.6441 19.8094 40.4619 19.536 40.4619C19.2626 40.4619 18.9893 40.6441 18.9893 41.8288C18.9893 43.0135 19.2626 43.1958 19.536 43.1958Z" fill="#212121"/>
<path d="M19.536 47.1144C19.8094 47.1144 20.0828 46.9321 20.0828 45.7474C20.0828 44.5627 19.8094 44.3805 19.536 44.3805C19.2626 44.3805 18.9893 44.5627 18.9893 45.7474C18.9893 46.9321 19.2626 47.1144 19.536 47.1144Z" fill="#212121"/>
<path d="M19.536 51.033C19.8094 51.033 20.0828 50.8507 20.0828 49.666C20.0828 48.4813 19.8094 48.2991 19.536 48.2991C19.2626 48.2991 18.9893 48.4813 18.9893 49.666C18.9893 50.8507 19.2626 51.033 19.536 51.033Z" fill="#212121"/>
<path d="M19.536 54.9516C19.8094 54.9516 20.0828 54.7693 20.0828 53.5846C20.0828 52.3999 19.8094 52.2177 19.536 52.2177C19.2626 52.2177 18.9893 52.3999 18.9893 53.5846C18.9893 54.8605 19.2626 54.9516 19.536 54.9516Z" fill="#212121"/>
<path d="M19.536 58.9613C19.8094 58.9613 20.0828 58.7791 20.0828 57.5944C20.0828 56.4097 19.8094 56.2274 19.536 56.2274C19.2626 56.2274 18.9893 56.4097 18.9893 57.5944C18.9893 58.7791 19.2626 58.9613 19.536 58.9613Z" fill="#212121"/>
<path d="M19.536 62.8799C19.8094 62.8799 20.0828 62.6976 20.0828 61.513C20.0828 60.3283 19.8094 60.146 19.536 60.146C19.2626 60.146 18.9893 60.3283 18.9893 61.513C18.9893 62.6976 19.2626 62.8799 19.536 62.8799Z" fill="#212121"/>
<path d="M19.536 66.7985C19.8094 66.7985 20.0828 66.6163 20.0828 65.4316C20.0828 64.2469 19.8094 64.0646 19.536 64.0646C19.2626 64.0646 18.9893 64.2469 18.9893 65.4316C18.9893 66.7074 19.2626 66.7985 19.536 66.7985Z" fill="#212121"/>
<path d="M21.3585 65.6138H17.8044V69.1679H21.3585V65.6138Z" fill="#212121"/>
<path d="M17.4399 65.2493V69.5324H21.7231V65.2493H17.4399ZM20.994 68.8034H18.169V65.8872H20.994V68.8034Z" fill="#212121"/>
<path d="M69.4752 66.0695H65.9211V69.6235H69.4752V66.0695Z" fill="#212121"/>
<path d="M65.5566 65.705V69.9881H69.8398V65.705H65.5566ZM69.1107 69.259H66.2857V66.434H69.1107V69.259Z" fill="#212121"/>
<path d="M21.3585 17.497H17.8044V21.0511H21.3585V17.497Z" fill="#212121"/>
<path d="M17.4404 17.1325V21.4156H21.7236V17.1325H17.4404ZM20.9945 20.7777H18.1695V17.9527H20.9945V20.7777Z" fill="#212121"/>
<path d="M69.4752 17.8615H65.9211V21.4156H69.4752V17.8615Z" fill="#212121"/>
<path d="M65.5566 17.497V21.7801H69.8398V17.497H65.5566ZM69.1107 21.0511H66.2857V18.226H69.1107V21.0511Z" fill="#212121"/>
<path d="M100.551 133.415L100.46 131.41H82.5981L82.6893 133.415H100.551Z" fill="#B27DFF"/>
<path d="M113.218 127.218L113.127 125.122H82.4158V127.218H113.218Z" fill="#B27DFF"/>
<path d="M108.023 121.021V118.925H82.0513L82.1424 121.021H108.023Z" fill="#B27DFF"/>
<path d="M105.198 133.415V131.41H101.644L101.735 133.415H105.198Z" fill="#B27DFF"/>
<path d="M133.996 133.415L133.904 131.41H116.134V133.415H133.996Z" fill="#00B5F4"/>
<path d="M146.663 127.218L146.571 125.122H115.861V127.218H146.663Z" fill="#B27DFF"/>
<path d="M141.468 121.021V118.925H115.496L115.587 121.021H141.468Z" fill="#B27DFF"/>
<path d="M138.643 133.415V131.41H135.089L135.18 133.415H138.643Z" fill="#00B5F4"/>
<path d="M100.368 115.006V112.91H82.5068V115.006H100.368Z" fill="#B27DFF"/>
<path d="M105.107 115.006L105.016 112.91H101.553V115.006H105.107Z" fill="#B27DFF"/>
<path d="M133.813 115.006V112.91H115.952V115.006H133.813Z" fill="#B27DFF"/>
<path d="M138.552 115.006L138.461 112.91H134.998V115.006H138.552Z" fill="#B27DFF"/>
<path d="M100.824 107.989V105.984H82.9626L83.0538 107.989H100.824Z" fill="#B27DFF"/>
<path d="M113.491 101.793V99.7877H82.6892L82.7803 101.793H113.491Z" fill="#B27DFF"/>
<path d="M108.388 95.5957L108.297 93.4997H82.4158V95.5957H108.388Z" fill="#00B5F4"/>
<path d="M105.563 107.989V105.984H102.009L102.1 107.989H105.563Z" fill="#B27DFF"/>
<path d="M134.36 107.989L134.269 105.984H116.407L116.499 107.989H134.36Z" fill="#B27DFF"/>
<path d="M146.936 101.793V99.7877H116.134L116.225 101.793H146.936Z" fill="#B27DFF"/>
<path d="M141.833 95.5957L141.742 93.4997H115.861V95.5957H141.833Z" fill="#B27DFF"/>
<path d="M139.008 107.989V105.984H135.454L135.545 107.989H139.008Z" fill="#B27DFF"/>
<path d="M100.733 89.5811L100.642 87.5762H82.7803L82.8714 89.5811H100.733Z" fill="#B27DFF"/>
<path d="M113.4 83.3842L113.309 81.2882H82.5981V83.3842H113.4Z" fill="#B27DFF"/>
<path d="M108.206 77.1873L108.115 75.0913H82.2336L82.3248 77.1873H108.206Z" fill="#B27DFF"/>
<path d="M105.381 89.5811V87.5762H101.827L101.918 89.5811H105.381Z" fill="#B27DFF"/>
<path d="M134.178 89.5811L134.087 87.5762H116.225L116.316 89.5811H134.178Z" fill="#FF5168"/>
<path d="M146.845 83.3842L146.754 81.2882H116.043V83.3842H146.845Z" fill="#B27DFF"/>
<path d="M141.65 77.1873L141.559 75.0913H115.678L115.769 77.1873H141.65Z" fill="#777777"/>
<path d="M138.825 89.5811V87.5762H135.271L135.362 89.5811H138.825Z" fill="#B27DFF"/>
<path d="M100.551 71.1727L100.46 69.0767H82.5981L82.6893 71.1727H100.551Z" fill="#B27DFF"/>
<path d="M113.218 64.9759L113.127 62.8799H82.4158V64.9759H113.218Z" fill="#B27DFF"/>
<path d="M108.023 58.779V56.683H82.0513L82.1424 58.779H108.023Z" fill="#B27DFF"/>
<path d="M105.198 71.1727V69.0767H101.644L101.735 71.1727H105.198Z" fill="#B27DFF"/>
<path d="M133.996 71.1727L133.904 69.0767H116.134V71.1727H133.996Z" fill="#00B5F4"/>
<path d="M146.663 64.9759L146.571 62.8799H115.861V64.9759H146.663Z" fill="#B27DFF"/>
<path d="M141.468 58.779V56.683H115.496L115.587 58.779H141.468Z" fill="#B27DFF"/>
<path d="M138.643 71.1727V69.0767H135.089L135.18 71.1727H138.643Z" fill="#00B5F4"/>
<path d="M100.368 52.7644V50.6684H82.5068V52.7644H100.368Z" fill="#B27DFF"/>
<path d="M105.107 52.7644L105.016 50.6684H101.553V52.7644H105.107Z" fill="#B27DFF"/>
<path d="M133.813 52.7644V50.6684H115.952V52.7644H133.813Z" fill="#B27DFF"/>
<path d="M138.552 52.7644L138.461 50.6684H134.998V52.7644H138.552Z" fill="#B27DFF"/>
<path d="M113.491 26.8834V24.7874H82.6892L82.7803 26.8834H113.491Z" fill="#B27DFF"/>
<path d="M108.388 20.5954L108.297 18.5906H82.4158V20.5954H108.388Z" fill="#00B5F4"/>
<path d="M146.936 26.8834V24.7874H116.134L116.225 26.8834H146.936Z" fill="#B27DFF"/>
<path d="M141.833 20.5954L141.742 18.5906H115.861V20.5954H141.833Z" fill="#B27DFF"/>
<path d="M113.491 46.2031V44.1982H82.6892L82.7803 46.2031H113.491Z" fill="#B27DFF"/>
<path d="M108.388 40.0062L108.297 37.9102H82.4158V40.0062H108.388Z" fill="#00B5F4"/>
<path d="M146.936 46.2031V44.1982H116.134L116.225 46.2031H146.936Z" fill="#B27DFF"/>
<path d="M141.833 40.0062L141.742 37.9102H115.861V40.0062H141.833Z" fill="#B27DFF"/>
<path d="M100.733 33.9916L100.642 31.9868H82.7803L82.8714 33.9916H100.733Z" fill="#B27DFF"/>
<path d="M105.381 33.9916V31.9868H101.827L101.918 33.9916H105.381Z" fill="#B27DFF"/>
<path d="M134.178 33.9916L134.087 31.9868H116.225L116.316 33.9916H134.178Z" fill="#FF5168"/>
<path d="M138.825 33.9916V31.9868H135.271L135.362 33.9916H138.825Z" fill="#B27DFF"/>
<path d="M396.451 254.071L395.63 253.889L412.581 188.002C413.674 181.532 411.669 174.514 407.295 169.411C403.468 164.946 398.364 162.394 393.079 162.394H368.018C354.804 162.394 343.96 172.327 341.59 186.635L336.578 253.069L335.667 252.978L340.679 186.544C343.139 171.781 354.348 161.483 368.018 161.483H393.079C398.547 161.483 404.014 164.126 407.933 168.864C412.49 174.241 414.586 181.44 413.401 188.275L396.451 254.071Z" fill="#9079B3"/>
<path d="M387.702 253.98L386.791 253.889L396.815 188.002C397.635 179.253 395.266 169.867 390.983 165.128C389.251 163.214 387.429 162.303 385.515 162.303H370.752C363.097 162.303 356.718 172.236 355.351 186.544L352.344 252.978H351.432L354.44 186.544C355.898 171.507 362.459 161.483 370.752 161.483H385.515C387.611 161.483 389.798 162.576 391.621 164.672C396.086 169.593 398.547 179.253 397.727 188.275L387.702 253.98Z" fill="#9079B3"/>
<path d="M379.774 253.98L378.863 253.889L382.599 188.002C383.055 175.517 381.141 164.581 379.136 162.576C378.954 162.394 378.771 162.303 378.589 162.303H373.121C370.934 162.303 368.2 170.778 367.654 186.544L366.56 252.978H365.649L366.742 186.544C367.198 174.97 369.112 161.483 373.121 161.483H378.589C378.954 161.483 379.409 161.665 379.774 162.03C382.143 164.49 383.875 176.519 383.419 188.184L379.774 253.98Z" fill="#9079B3"/>
<path d="M384.513 411.818H370.114C366.196 411.818 363.006 408.628 362.915 404.71L359.999 267.285C359.908 264.187 361.001 261.271 362.915 259.266C364.464 257.716 366.378 256.896 368.383 256.896H386.153C388.158 256.896 390.072 257.716 391.621 259.266C393.535 261.271 394.628 264.187 394.537 267.285L391.712 404.71C391.621 408.628 388.431 411.818 384.513 411.818ZM368.383 257.808C366.651 257.808 364.92 258.537 363.553 259.904C361.821 261.726 360.819 264.369 360.819 267.194L363.644 404.618C363.735 408.081 366.56 410.906 369.932 410.906H384.33C387.702 410.906 390.527 408.081 390.618 404.618L393.444 267.194C393.535 264.369 392.532 261.635 390.71 259.904C389.343 258.537 387.702 257.808 385.88 257.808H368.383Z" fill="#9079B3"/>
<path d="M332.568 411.818H318.17C314.251 411.818 311.062 408.628 310.971 404.71L308.054 267.285C307.963 264.187 309.057 261.271 310.971 259.266C312.52 257.716 314.433 256.896 316.438 256.896H334.209C336.214 256.896 338.127 257.716 339.677 259.266C341.59 261.271 342.684 264.187 342.593 267.285L339.768 404.71C339.677 408.628 336.396 411.818 332.568 411.818ZM316.438 257.808C314.707 257.808 312.975 258.537 311.608 259.904C309.877 261.726 308.875 264.369 308.875 267.194L311.7 404.618C311.791 408.081 314.616 410.906 317.988 410.906H332.386C335.758 410.906 338.583 408.081 338.674 404.618L341.499 267.194C341.59 264.369 340.588 261.635 338.765 259.904C337.398 258.537 335.758 257.808 333.935 257.808H316.438Z" fill="#9079B3"/>
<path d="M306.961 260.359C337.216 262.546 367.654 262.546 397.909 260.359C400.369 260.177 402.101 258.081 401.919 255.712C401.736 253.342 399.64 251.52 397.271 251.702C367.38 253.889 337.398 253.889 307.599 251.702C305.229 251.52 303.133 253.342 302.951 255.712C302.769 258.081 304.591 260.177 306.961 260.359Z" fill="#9079B3"/>
<path d="M393.626 411.089H8.23584V412H393.626V411.089Z" fill="#34234D"/>
<path d="M5.13733 267.741C27.0086 244.138 55.6235 305.469 52.7985 329.709H41.954C31.3828 323.512 -12.5419 286.787 5.13733 267.741Z" fill="url(#paint1_linear)"/>
<path d="M47.1485 329.8L47.9686 329.436C31.8386 294.26 5.77531 267.741 5.50192 267.467L4.86401 268.105C5.04627 268.288 31.1095 294.715 47.1485 329.8Z" fill="#34234D"/>
<path d="M11.79 301.55C18.7159 303.737 33.6612 305.651 34.3903 305.742L34.4814 304.831C34.2991 304.831 15.6174 302.461 10.2407 300.001L9.87622 300.821C10.423 301.094 11.0609 301.277 11.79 301.55Z" fill="#34234D"/>
<path d="M21.1764 285.147C23.8191 277.492 24.3659 265.28 24.3659 265.189H23.4546C23.4546 265.28 22.9078 277.401 20.3562 284.873L21.1764 285.147Z" fill="#34234D"/>
<path d="M43.2298 290.068C49.8823 303.919 53.892 319.867 52.7073 329.618C37.5797 313.853 40.8604 292.619 43.2298 290.068Z" fill="#34234D" fill-opacity="0.2"/>
<path d="M61.0003 251.428C80.32 241.951 74.3965 299.09 57.3551 329.709H49.4268C45.5082 321.963 45.3259 259.083 61.0003 251.428Z" fill="url(#paint2_linear)"/>
<path d="M52.3428 329.527L53.2541 329.709C56.3525 312.759 64.7365 257.99 64.8276 257.443L63.9163 257.261C63.8252 257.899 55.4412 312.577 52.3428 329.527Z" fill="#34234D"/>
<path d="M64.5612 300.475L56.0891 310.497L56.7851 311.086L65.2571 301.064L64.5612 300.475Z" fill="#34234D"/>
<path d="M50.0205 279.839L49.4353 280.538L59.0062 288.554L59.5913 287.856L50.0205 279.839Z" fill="#34234D"/>
<path d="M20.4473 329.618V334.266C20.4473 339.551 21.9965 344.837 25.0038 349.485L26.1885 351.307L35.666 411.18L58.4486 411.271L65.4656 351.489L66.6503 349.667C69.6576 345.019 71.298 339.825 71.298 334.448V329.8L20.4473 329.618Z" fill="white"/>
<path d="M58.722 411.544L35.3927 411.453L25.9151 351.398L24.7304 349.576C21.7231 344.837 20.0828 339.551 20.0828 334.175V329.163L71.5714 329.345V334.357C71.5714 339.734 69.931 345.019 66.9237 349.758L65.739 351.489L58.722 411.544ZM35.9394 410.815L58.0841 410.906L65.1011 351.307L66.3769 349.393C69.3842 344.837 70.9335 339.642 70.9335 334.357V329.983L20.8118 329.8V334.175C20.8118 339.46 22.361 344.655 25.2772 349.211L26.553 351.216L35.9394 410.815Z" fill="#34234D"/>
<path d="M20.7071 340.909L20.7046 341.82L58.5237 341.924L58.5262 341.013L20.7071 340.909Z" fill="#34234D"/>
<path d="M52.1323 350.953L52.1296 351.865L65.708 351.904L65.7107 350.993L52.1323 350.953Z" fill="#34234D"/>
<path d="M35.2103 411.635H36.4861V410.724H36.0304L26.644 351.216L25.3682 349.302C22.452 344.746 20.9028 339.551 20.9028 334.357V330.165L71.2067 330.347V329.436L19.9004 329.254V334.448C19.9004 339.825 21.4496 345.201 24.548 349.94L25.6416 351.672L35.2103 411.635Z" fill="#34234D"/>
<path d="M358.358 57.8677L360.91 49.4838L355.716 47.3878C355.898 44.745 355.624 42.1933 354.987 39.7328L359.634 36.7255L355.533 28.9794L350.43 31.1666C348.79 29.2528 346.785 27.5214 344.507 26.2455L345.691 20.7777L337.307 18.2261L335.211 23.4205C332.568 23.2382 330.017 23.5116 327.556 24.1495L324.549 19.5019L316.803 23.6028L318.99 28.7061C317.076 30.3464 315.345 32.3513 314.069 34.6295L308.601 33.4448L306.05 41.8288L311.244 43.9248C311.062 46.5676 311.335 49.1192 311.973 51.5798L307.325 54.5871L311.426 62.3331L316.53 60.146C318.17 62.0597 320.175 63.7912 322.453 65.067L321.268 70.5349L329.652 73.0865L331.748 67.8921C334.391 68.0743 336.943 67.8009 339.403 67.163L342.411 71.8107L350.157 67.7098L347.969 62.6065C349.883 60.9662 351.615 58.9613 352.891 56.683L358.358 57.8677ZM328.741 60.7839C320.357 58.2323 315.618 49.3015 318.17 40.9175C320.722 32.5335 329.652 27.7948 338.036 30.3464C346.42 32.8981 351.159 41.8288 348.607 50.2128C346.056 58.6879 337.125 63.4267 328.741 60.7839Z" fill="url(#paint3_linear)"/>
<path d="M309.33 43.4692L305.685 41.9199L307.599 35.632L307.963 35.7231L306.141 41.7377L309.513 43.1046L309.33 43.4692Z" fill="#34234D"/>
<path d="M321.36 70.626L320.995 70.5348L322.089 65.2493C319.446 63.8823 317.441 61.6952 317.441 61.6952L317.714 61.4218C317.714 61.4218 319.81 63.7001 322.362 64.9759L322.453 65.067L321.36 70.626Z" fill="#34234D"/>
<path d="M342.319 58.9613L342.137 58.6879C352.344 51.4886 348.243 40.553 348.243 40.4619L348.607 40.2796C348.607 40.4619 352.799 51.6709 342.319 58.9613Z" fill="#34234D"/>
<path d="M355.624 43.9248C355.351 41.6465 354.804 39.7328 354.804 39.7328V39.6417L356.536 38.5481L356.718 38.9126L355.26 39.915C355.351 40.3707 355.807 42.1022 355.989 44.0159L355.624 43.9248Z" fill="#34234D"/>
<path d="M332.022 72.722L323.273 70.0792L324.458 64.6114C323.82 64.2468 320.722 62.4242 318.626 59.8726L313.431 62.0597L309.148 53.9491L313.887 50.9418C313.705 50.2128 312.884 47.1144 313.158 43.4691L307.963 41.3731L310.606 32.6246L316.074 33.8093C316.438 33.0803 318.534 29.7085 320.813 27.977L318.626 22.8737L326.736 18.5906L329.744 23.3294C330.381 23.056 333.206 22.2358 337.216 22.6003L339.312 17.4059L348.061 20.0487L346.876 25.5165C347.514 25.881 350.703 27.7036 352.708 30.2553L357.903 28.0681L362.186 36.1787L357.447 39.186C357.629 39.9151 358.541 42.9224 358.176 46.6587L363.371 48.7547L360.728 57.5032L355.26 56.3185C354.895 56.9564 353.346 59.7815 350.521 62.1508L352.708 67.3453L344.598 71.6284L341.59 66.8896C340.861 67.163 337.945 68.0743 334.118 67.6187L332.022 72.722ZM323.729 69.8058L331.84 72.2663L333.936 67.163H334.118C338.492 67.7098 341.682 66.434 341.682 66.434L341.864 66.3428L344.871 70.9905L352.344 66.9807L350.157 61.8775L350.248 61.7863C353.529 59.2347 355.078 55.954 355.078 55.8629L355.169 55.7717L360.637 56.9564L363.097 48.8458L357.994 46.7498V46.5676C358.45 42.2844 357.265 39.0038 357.265 39.0038L357.174 38.8215L361.821 35.8142L357.812 28.3415L352.708 30.5286L352.617 30.4375C350.43 27.5213 346.785 25.6076 346.694 25.6076L346.603 25.5165L347.787 20.1398L339.677 17.6793L337.581 22.7826H337.398C332.842 22.3269 329.835 23.5116 329.835 23.5116L329.652 23.6027L326.645 18.9551L319.172 22.9648L321.36 28.0681L321.268 28.1593C318.717 29.8907 316.439 33.9916 316.439 34.0827L316.347 34.1738L310.971 32.9892L308.51 41.0998L313.613 43.1957V43.378C313.249 47.4789 314.342 50.9418 314.342 51.033V51.2152L309.695 54.2225L313.705 61.6952L318.808 59.5081L318.899 59.5992C321.177 62.5154 324.731 64.4291 324.822 64.4291L324.914 64.5202L323.729 69.8058Z" fill="#34234D"/>
<path d="M335.667 61.0573C326.827 61.0573 319.537 53.858 319.537 44.9272C319.537 36.0876 326.736 28.7972 335.667 28.7972C344.507 28.7972 351.797 35.9965 351.797 44.9272C351.797 53.858 344.598 61.0573 335.667 61.0573ZM335.667 29.2528C327.01 29.2528 319.993 36.2699 319.993 44.9272C319.993 53.5846 327.01 60.6016 335.667 60.6016C344.324 60.6016 351.341 53.5846 351.341 44.9272C351.432 36.361 344.324 29.2528 335.667 29.2528Z" fill="#34234D"/>
<path d="M195.873 204.861C194.87 205.408 191.772 205.681 192.137 209.782C192.319 212.151 193.321 217.71 196.602 218.075C199.792 218.348 196.875 213.7 196.875 213.7C196.875 213.7 199.154 216.799 200.065 216.07C200.976 215.341 201.067 212.698 199.7 210.875C198.333 209.053 196.966 204.314 195.873 204.861Z" fill="#34234D"/>
<path d="M201.705 199.393C192.775 199.666 189.129 206.775 184.482 212.242C179.834 217.619 183.297 216.799 184.846 215.979C186.395 215.159 194.05 207.959 196.42 207.959C196.42 207.959 198.333 208.962 196.784 211.604C195.235 214.156 193.504 216.252 193.959 218.348C194.506 220.444 195.691 218.713 196.693 217.801C197.696 216.89 199.792 213.974 201.25 213.063C202.708 212.151 203.984 212.971 209.36 208.233C211.092 206.775 230.958 199.393 232.963 198.755L226.584 185.815C226.675 185.723 210.727 199.211 201.705 199.393Z" fill="white"/>
<path d="M194.779 219.533C194.688 219.533 194.688 219.533 194.597 219.533C194.233 219.442 193.959 219.077 193.777 218.348C193.321 216.525 194.415 214.794 195.782 212.698C196.055 212.242 196.329 211.878 196.602 211.422C197.149 210.602 197.331 209.782 197.149 209.235C196.966 208.688 196.602 208.324 196.42 208.233C194.779 208.324 190.678 211.696 187.945 213.974C186.578 215.067 185.575 215.888 185.028 216.252C184.937 216.343 182.841 217.437 182.112 216.617C181.748 216.252 181.657 215.341 184.299 212.151C185.12 211.149 185.94 210.146 186.669 209.144C190.314 204.405 194.141 199.484 201.614 199.302C210.363 199.028 226.219 185.815 226.402 185.723L226.675 185.541L233.327 199.028L233.054 199.12C230.685 199.849 211.183 207.139 209.542 208.597C205.624 211.969 203.801 212.607 202.617 212.971C202.161 213.154 201.796 213.245 201.341 213.518C200.521 214.065 199.336 215.432 198.333 216.617C197.696 217.346 197.24 217.892 196.784 218.257C196.602 218.439 196.42 218.53 196.329 218.713C195.873 218.986 195.326 219.533 194.779 219.533ZM196.42 207.686H196.602C196.602 207.686 197.331 208.142 197.604 209.053C197.787 209.873 197.604 210.693 197.058 211.696C196.784 212.151 196.511 212.607 196.237 213.063C194.962 214.976 193.868 216.708 194.324 218.257C194.415 218.713 194.597 218.986 194.779 219.077C195.144 219.168 195.691 218.53 196.146 218.075C196.329 217.892 196.511 217.71 196.693 217.619C197.058 217.255 197.604 216.708 198.151 215.979C199.154 214.794 200.338 213.427 201.25 212.789C201.705 212.516 202.161 212.334 202.617 212.242C203.801 211.878 205.533 211.331 209.36 208.05C211.092 206.501 229.864 199.575 232.781 198.573L226.675 186.179C224.488 188.002 210.271 199.484 201.887 199.666C194.688 199.849 190.952 204.679 187.307 209.326C186.486 210.329 185.666 211.422 184.846 212.334C182.294 215.341 182.568 216.07 182.659 216.161C182.841 216.434 183.935 216.161 184.846 215.614C185.302 215.341 186.395 214.429 187.671 213.427C190.496 211.058 194.597 207.686 196.42 207.686Z" fill="#34234D"/>
<path d="M261.942 119.745C260.029 125.213 244.172 166.13 244.172 166.13L208.54 186.452C201.249 189.551 209.998 211.969 214.555 213.245C222.665 215.614 251.827 204.041 259.026 199.575C279.713 186.544 294.84 141.981 293.382 133.506C287.003 97.3271 269.233 98.6029 261.942 119.745Z" fill="url(#paint4_linear)"/>
<path d="M269.415 381.198C262.216 391.313 251.371 394.867 242.987 392.771C233.054 390.22 227.404 397.692 227.404 397.692C227.404 397.692 245.995 402.158 253.923 403.798C261.942 405.439 279.257 410.086 283.358 411.089C287.459 412.182 288.552 406.441 288.188 399.788C287.823 393.136 291.742 385.299 291.742 385.299L269.415 381.198Z" fill="white"/>
<path d="M284.269 411.362C283.905 411.362 283.631 411.362 283.267 411.271C282.447 411.089 281.08 410.724 279.348 410.268C272.696 408.537 260.211 405.256 253.832 403.98C245.903 402.431 227.495 397.966 227.222 397.875L226.857 397.784L227.131 397.419C227.222 397.328 233.054 389.855 242.987 392.407C250.551 394.321 261.578 391.587 269.142 381.016L269.233 380.925L292.015 385.025L291.833 385.299C291.833 385.39 288.006 393.136 288.279 399.697C288.461 403.707 288.279 408.902 286.092 410.724C285.636 411.089 284.998 411.362 284.269 411.362ZM227.768 397.419C230.594 398.057 246.724 401.976 253.923 403.434C260.302 404.71 272.696 407.99 279.439 409.722C281.171 410.177 282.538 410.542 283.358 410.724C284.36 410.998 285.181 410.815 285.818 410.268C287.459 408.993 288.097 405.165 287.823 399.697C287.459 393.774 290.557 386.939 291.286 385.39L269.506 381.471C261.76 392.134 250.551 394.959 242.896 392.954C234.421 390.767 229.044 396.052 227.768 397.419Z" fill="#34234D"/>
<path d="M273.88 406.532L274.792 406.805C277.343 396.599 287.55 398.057 288.006 398.057L288.188 397.146C288.006 397.055 276.705 395.505 273.88 406.532Z" fill="#34234D"/>
<path d="M263.674 386.666L263.4 387.577C274.154 390.402 277.434 400.335 277.526 400.518L278.437 400.244C278.437 400.062 274.974 389.582 263.674 386.666Z" fill="#34234D"/>
<path d="M260.484 388.579L260.211 389.491C271.511 392.407 274.974 403.16 275.065 403.251L275.976 402.978C275.885 402.887 272.24 391.678 260.484 388.579Z" fill="#34234D"/>
<path d="M244.081 392.134L243.807 393.045C243.99 393.136 247.999 394.594 246.724 399.333L247.635 399.606C249.093 393.865 244.081 392.134 244.081 392.134Z" fill="#34234D"/>
<path d="M227.313 397.601C227.313 397.601 279.166 409.904 283.267 410.998C284.816 411.362 286.274 411.089 287.094 409.084L229.864 395.232C228.224 396.417 227.313 397.601 227.313 397.601Z" fill="#34234D"/>
<path d="M357.629 383.932L335.029 385.025C330.199 396.508 320.448 402.431 311.79 402.158C301.584 401.884 297.665 410.451 297.665 410.451C297.665 410.451 317.258 411.271 325.369 411.089C333.479 410.906 350.976 410.906 355.26 410.998C359.543 411.089 359.269 405.347 357.356 398.877C355.624 392.407 357.629 383.932 357.629 383.932Z" fill="white"/>
<path d="M322.362 411.362C313.249 411.362 297.939 410.724 297.757 410.724H297.392L297.575 410.36C297.575 410.268 301.493 401.976 311.518 401.976C311.609 401.976 311.791 401.976 311.973 401.976C312.064 401.976 312.247 401.976 312.338 401.976C320.084 401.976 330.017 396.781 334.938 384.934L335.029 384.752L358.176 383.658L358.085 384.023C358.085 384.114 356.08 392.498 357.903 398.786C358.996 402.613 359.999 407.717 358.267 409.995C357.629 410.815 356.718 411.18 355.533 411.18C351.25 411.089 333.844 411.089 325.734 411.271C324.549 411.362 323.547 411.362 322.362 411.362ZM298.213 410.177C301.038 410.268 318.079 410.997 325.46 410.815C333.571 410.633 351.068 410.633 355.351 410.724C356.354 410.724 357.083 410.451 357.629 409.722C358.905 408.081 358.723 404.254 357.265 398.968C355.625 393.227 356.992 385.937 357.356 384.296L335.303 385.299C330.29 397.237 320.175 402.522 312.338 402.522C312.247 402.522 312.064 402.522 311.973 402.522C311.882 402.522 311.7 402.522 311.609 402.522C303.042 402.431 299.033 408.628 298.213 410.177Z" fill="#34234D"/>
<path d="M345.144 408.81H346.146C346.42 398.33 356.626 397.419 357.082 397.328L356.991 396.326C356.809 396.417 345.417 397.419 345.144 408.81Z" fill="#34234D"/>
<path d="M330.746 391.678V392.68C341.863 392.954 347.331 401.976 347.422 402.067L348.243 401.611C348.152 401.429 342.41 392.042 330.746 391.678Z" fill="#34234D"/>
<path d="M328.012 394.23V395.232C339.676 395.596 345.509 405.256 345.509 405.347L346.329 404.892C346.329 404.71 340.223 394.594 328.012 394.23Z" fill="#34234D"/>
<path d="M312.884 401.338L312.793 402.249C312.975 402.249 317.167 402.796 317.076 407.717H318.079C318.17 401.976 312.884 401.338 312.884 401.338Z" fill="#34234D"/>
<path d="M297.301 410.906C297.301 410.906 351.068 410.815 355.351 410.998C356.991 410.998 358.267 410.36 358.723 408.264L299.852 407.535C298.394 409.084 297.301 410.906 297.301 410.906Z" fill="#34234D"/>
<path d="M266.955 213.883C266.225 237.668 268.868 309.478 267.228 347.115C266.863 356.684 266.863 382.747 266.863 382.747C292.289 393.774 308.966 392.589 308.966 392.589C308.966 392.589 327.465 216.799 322.179 203.403C317.987 192.376 267.866 186.726 266.955 213.883Z" fill="#451EE4"/>
<path d="M297.665 240.766C296.298 245.961 300.855 251.52 302.86 255.894C305.867 262.546 303.042 269.199 304.318 276.216C305.503 282.777 309.968 288.245 310.697 295.08C311.426 302.461 314.889 328.98 315.162 329.345C316.438 319.229 316.62 316.951 318.17 303.373C320.083 286.24 323.182 259.083 323.273 237.577C320.995 238.488 318.534 238.944 316.529 239.581C310.059 241.586 303.953 242.68 297.665 240.766Z" fill="#34234D"/>
<path d="M303.224 221.264C305.867 244.958 317.714 315.766 318.899 354.861C319.172 364.157 318.534 390.767 318.534 390.767C346.967 396.599 362.55 390.038 362.55 390.038C362.55 390.038 366.469 336.909 366.742 301.641C366.924 273.755 365.102 231.744 357.994 218.621C352.07 207.777 300.217 194.199 303.224 221.264Z" fill="#451EE4"/>
<path d="M356.797 251.693L355.795 251.726L355.842 253.183L356.844 253.151L356.797 251.693Z" fill="white"/>
<path d="M356.26 339.394L356.174 342.309L357.176 342.339L357.262 339.424L356.26 339.394Z" fill="white"/>
<path d="M356.353 335.45L357.356 335.542V332.534H356.444L356.353 335.45Z" fill="white"/>
<path d="M355.989 349.211H356.991C356.991 348.209 357.082 347.297 357.082 346.295H356.08C355.989 347.206 355.989 348.209 355.989 349.211Z" fill="white"/>
<path d="M356.575 318.871L356.545 321.787L357.548 321.797L357.577 318.882L356.575 318.871Z" fill="white"/>
<path d="M356.596 325.701L356.55 328.617L357.552 328.632L357.598 325.716L356.596 325.701Z" fill="white"/>
<path d="M353.528 383.385L354.44 383.476C354.531 382.474 354.622 381.562 354.804 380.56L353.893 380.469C353.711 381.471 353.619 382.474 353.528 383.385Z" fill="white"/>
<path d="M354.257 376.55L355.26 376.641C355.351 375.639 355.442 374.728 355.533 373.725L354.531 373.634C354.44 374.637 354.348 375.639 354.257 376.55Z" fill="white"/>
<path d="M355.26 362.881L356.262 362.972C356.353 361.969 356.353 361.058 356.444 360.056L355.442 359.965C355.442 360.967 355.351 361.969 355.26 362.881Z" fill="white"/>
<path d="M355.624 356.046L356.627 356.137C356.718 355.135 356.718 354.223 356.718 353.221H355.715C355.715 354.132 355.715 355.044 355.624 356.046Z" fill="white"/>
<path d="M354.804 369.715L355.807 369.807C355.898 368.804 355.989 367.893 355.989 366.89L354.986 366.799C354.986 367.802 354.895 368.804 354.804 369.715Z" fill="white"/>
<path d="M357.126 263.891L356.124 263.914L356.192 266.83L357.194 266.806L357.126 263.891Z" fill="white"/>
<path d="M357.43 277.67L356.427 277.684L356.47 280.6L357.473 280.585L357.43 277.67Z" fill="white"/>
<path d="M357.322 270.734L356.32 270.753L356.377 273.669L357.379 273.649L357.322 270.734Z" fill="white"/>
<path d="M356.955 257.068L355.953 257.097L356.037 260.012L357.039 259.983L356.955 257.068Z" fill="white"/>
<path d="M356.669 311.943L356.652 314.859L357.655 314.865L357.671 311.949L356.669 311.943Z" fill="white"/>
<path d="M357.506 284.49L356.504 284.501L356.537 287.417L357.539 287.406L357.506 284.49Z" fill="white"/>
<path d="M357.627 298.27L356.624 298.274L356.635 301.19L357.637 301.186L357.627 298.27Z" fill="white"/>
<path d="M357.72 305.104H356.718V308.02H357.72V305.104Z" fill="white"/>
<path d="M357.629 291.349L356.627 291.357L356.649 294.273L357.651 294.265L357.629 291.349Z" fill="white"/>
<path d="M352.89 388.579L353.802 388.671L353.984 387.304L353.073 387.121L352.89 388.579Z" fill="white"/>
<path d="M359.907 252.978H360.819V251.52H359.816L359.907 252.978Z" fill="white"/>
<path d="M360.363 339.28L360.277 342.195L361.279 342.225L361.365 339.31L360.363 339.28Z" fill="white"/>
<path d="M359.999 349.029H361.001C361.001 348.026 361.092 347.115 361.092 346.113H360.09C360.09 347.115 359.999 348.026 359.999 349.029Z" fill="white"/>
<path d="M360.608 325.494L360.562 328.41L361.565 328.426L361.611 325.51L360.608 325.494Z" fill="white"/>
<path d="M359.725 355.864L360.728 355.955C360.819 354.952 360.819 354.041 360.819 353.039H359.816C359.816 353.95 359.725 354.952 359.725 355.864Z" fill="white"/>
<path d="M360.711 318.72L360.684 321.637L361.686 321.646L361.713 318.73L360.711 318.72Z" fill="white"/>
<path d="M357.538 383.203L358.449 383.294C358.541 382.291 358.632 381.38 358.814 380.378L357.903 380.287C357.811 381.289 357.72 382.291 357.538 383.203Z" fill="white"/>
<path d="M358.267 376.459L359.178 376.55C359.27 375.548 359.361 374.637 359.452 373.634L358.54 373.543C358.449 374.454 358.358 375.457 358.267 376.459Z" fill="white"/>
<path d="M359.361 362.79L360.363 362.881C360.454 361.878 360.454 360.967 360.545 359.965L359.543 359.873C359.452 360.785 359.361 361.787 359.361 362.79Z" fill="white"/>
<path d="M358.905 369.624L359.907 369.715C359.999 368.713 360.09 367.802 360.09 366.799L359.087 366.617C358.996 367.619 358.905 368.622 358.905 369.624Z" fill="white"/>
<path d="M360.454 335.359H361.366L361.457 332.443L360.454 332.352V335.359Z" fill="white"/>
<path d="M361.327 270.638L360.324 270.656L360.378 273.572L361.381 273.554L361.327 270.638Z" fill="white"/>
<path d="M361.143 263.716L360.141 263.741L360.211 266.656L361.213 266.632L361.143 263.716Z" fill="white"/>
<path d="M360.964 256.887L359.962 256.916L360.046 259.831L361.048 259.802L360.964 256.887Z" fill="white"/>
<path d="M360.545 280.408H361.457V277.492H360.454L360.545 280.408Z" fill="white"/>
<path d="M360.771 311.829L360.755 314.745L361.758 314.75L361.774 311.834L360.771 311.829Z" fill="white"/>
<path d="M360.637 287.334H361.548V284.326H360.545L360.637 287.334Z" fill="white"/>
<path d="M361.727 298.088L360.725 298.091L360.736 301.007L361.738 301.004L361.727 298.088Z" fill="white"/>
<path d="M361.73 304.922H360.728V307.838H361.73V304.922Z" fill="white"/>
<path d="M361.64 291.259L360.637 291.266L360.659 294.182L361.662 294.175L361.64 291.259Z" fill="white"/>
<path d="M356.9 388.397L357.811 388.579C357.903 388.124 357.903 387.668 357.994 387.121L357.082 387.03C357.082 387.486 356.991 387.942 356.9 388.397Z" fill="white"/>
<path d="M292.106 94.7755C283.449 95.9601 265.405 101.884 261.851 121.568C258.297 141.343 262.216 263.822 262.216 263.822C320.812 275.213 370.478 251.702 370.478 251.702C370.478 251.702 337.763 116.556 329.379 106.531C316.529 91.3125 298.486 93.8641 292.106 94.7755Z" fill="url(#paint5_linear)"/>
<path d="M311.79 201.945L266.681 208.597C269.05 216.799 263.856 235.116 263.856 235.116C299.397 241.222 334.482 225.821 334.482 225.821C316.62 216.525 311.79 201.945 311.79 201.945Z" fill="url(#paint6_linear)"/>
<path d="M312.246 201.216L311.335 201.58C311.426 201.762 319.992 220.809 335.393 226.368L335.758 225.456C320.721 220.08 312.337 201.398 312.246 201.216Z" fill="#34234D"/>
<path d="M261.396 237.121L262.216 237.668C269.324 227.826 267.501 207.139 267.41 206.228L266.499 206.319C266.408 206.592 268.23 227.643 261.396 237.121Z" fill="#34234D"/>
<path d="M285.454 217.072C285.454 217.072 319.81 207.048 336.851 187.819C353.802 168.682 337.763 130.499 333.479 115.644C333.388 115.644 336.122 188.549 285.454 217.072Z" fill="#412EAD"/>
<path d="M274.336 83.6576L283.631 105.073C283.631 105.073 295.843 104.891 299.67 94.2287L292.471 81.1971L274.336 83.6576Z" fill="white"/>
<path d="M283.449 105.347L283.358 105.164L273.881 83.4753L292.562 80.9236L292.653 81.1059L299.944 94.2287V94.3198C296.116 105.073 283.814 105.347 283.632 105.347H283.449ZM274.701 83.9309L283.814 104.8C285.272 104.709 295.843 103.797 299.397 94.2287L292.289 81.4704L274.701 83.9309Z" fill="#34234D"/>
<path d="M277.981 92.1327L281.627 100.608C293.656 98.7852 289.646 80.7414 289.646 80.7414L277.981 92.1327Z" fill="#34234D"/>
<path d="M276.159 63.7C273.698 63.2444 266.408 66.1605 264.403 66.9807C257.659 69.6235 259.3 74.0889 260.393 81.2882C261.669 89.3076 264.859 103.068 274.336 101.428C279.713 100.517 288.37 91.5859 289.737 86.3003C290.193 84.3866 289.19 79.8301 288.097 77.643C284.725 70.8082 281.9 64.7025 276.159 63.7Z" fill="white"/>
<path d="M272.878 101.701C271.147 101.701 269.597 101.155 268.139 100.152C264.312 97.4182 261.669 91.0391 260.12 81.197C260.029 80.3769 259.846 79.6478 259.755 78.9188C258.753 72.9953 258.024 69.0767 264.312 66.6162L264.767 66.4339C269.051 64.7936 274.154 62.971 276.25 63.3355C281.9 64.3379 284.725 69.988 288.006 76.4583L288.461 77.3696C289.464 79.4656 290.648 84.1132 290.102 86.2092C288.735 91.4947 280.077 100.608 274.427 101.519C273.88 101.701 273.334 101.701 272.878 101.701ZM275.521 63.8823C272.969 63.8823 267.137 66.0694 264.859 66.9807L264.403 67.163C258.571 69.3501 259.209 72.9953 260.211 78.8276C260.302 79.5567 260.484 80.3769 260.575 81.1059C262.034 90.7657 264.676 97.0537 268.413 99.6965C270.144 100.972 272.149 101.428 274.245 101.063C279.622 100.152 288.188 91.1302 289.464 86.1181C289.919 84.3866 288.917 79.8301 287.823 77.6429L287.368 76.7316C284.178 70.3525 281.444 64.8847 275.976 63.8823C275.885 63.8823 275.703 63.8823 275.521 63.8823Z" fill="#34234D"/>
<path d="M273.334 54.9515C264.13 56.683 255.654 66.3428 259.391 75.6381C259.209 68.8945 261.942 69.0767 267.684 68.0743C272.331 67.2541 280.442 66.1605 280.715 71.5372C281.08 78.9188 285.545 79.0099 285.545 79.0099L296.663 88.1229C296.663 88.1229 293.838 78.0075 293.474 70.0792C293.2 60.0548 284.452 52.9467 273.334 54.9515Z" fill="#34234D"/>
<path d="M260.667 78.8277L261.122 79.6478C263.218 78.5543 264.859 79.6478 265.223 79.9212C265.406 80.5591 266.408 83.8398 264.859 86.5737C264.585 87.0294 264.676 87.485 264.768 87.7584C265.406 88.9431 268.139 89.3076 268.595 89.3076L268.686 88.3963C267.593 88.3052 265.861 87.8496 265.588 87.3028C265.588 87.3028 265.497 87.2117 265.588 87.0294C267.502 83.5664 266.043 79.6478 266.043 79.4656V79.3745L265.952 79.2833C265.952 79.2833 263.674 77.2785 260.667 78.8277Z" fill="#34234D"/>
<path d="M288.461 72.9953C285.636 73.451 283.814 76.0938 284.269 78.8277C284.725 81.5616 287.368 83.4753 290.102 83.0197C292.927 82.564 294.749 79.9212 294.294 77.1873C293.929 74.4534 291.286 72.5397 288.461 72.9953Z" fill="white"/>
<path d="M289.282 83.3842C288.188 83.3842 287.095 83.0196 286.183 82.3817C284.999 81.5616 284.269 80.2857 283.996 78.9188C283.814 77.4607 284.087 76.0937 284.907 74.909C285.728 73.7243 287.003 72.9953 288.37 72.7219C291.287 72.2663 294.02 74.2711 294.567 77.1873C294.749 78.6454 294.476 80.0123 293.656 81.197C292.836 82.3817 291.56 83.1108 290.193 83.3842C289.828 83.3842 289.555 83.3842 289.282 83.3842ZM288.553 73.2687C287.277 73.451 286.183 74.18 285.363 75.1824C284.634 76.276 284.27 77.5518 284.543 78.8276C284.725 80.1035 285.454 81.197 286.457 82.0172C287.55 82.7462 288.826 83.1108 290.102 82.8374C291.378 82.6551 292.471 81.9261 293.291 80.9236C294.02 79.8301 294.385 78.5543 294.112 77.2784C293.656 74.6357 291.195 72.8131 288.553 73.2687Z" fill="#34234D"/>
<path d="M287.094 75.3647C286.365 76.7316 287.277 77.2784 287.915 77.643C288.279 77.8252 288.735 78.0986 289.008 78.5543C289.373 79.101 289.281 79.3744 289.19 79.8301C289.099 80.2857 288.826 80.9237 289.646 81.4704C289.919 81.7438 290.284 81.7438 290.74 81.7438C290.922 81.7438 291.104 81.6527 291.195 81.5616C291.833 81.197 292.289 80.5591 292.289 80.468L291.469 79.9212C291.286 80.1946 290.831 80.6503 290.466 80.7414C290.375 80.7414 290.284 80.7414 290.193 80.6503C290.011 80.5591 290.011 80.5591 290.102 80.1035C290.284 79.6478 290.466 78.9188 289.828 78.0075C289.373 77.3696 288.826 77.0962 288.37 76.8228C287.732 76.4583 287.641 76.4583 287.915 75.9115C288.461 74.909 290.648 75.547 291.286 75.8203L291.651 74.909C291.56 74.8179 288.097 73.5421 287.094 75.3647Z" fill="#34234D"/>
<path d="M267.684 92.2238C267.684 92.2238 268.504 95.0489 271.329 94.4109C274.154 93.773 275.156 89.8544 275.156 89.8544C271.876 91.8593 267.684 92.2238 267.684 92.2238Z" fill="#34234D"/>
<path d="M268.139 78.1897L269.051 78.5543C269.051 78.5543 269.962 76.6405 274.427 78.0986L274.701 77.1873C269.324 75.3647 268.231 78.0075 268.139 78.1897Z" fill="#34234D"/>
<path d="M272.24 79.0099C271.511 79.101 271.055 79.8301 271.147 80.5591C271.238 81.2882 271.967 81.7438 272.696 81.6527C273.425 81.5616 273.88 80.8325 273.789 80.1035C273.607 79.3744 272.969 78.9188 272.24 79.0099Z" fill="#34234D"/>
<path d="M263.583 80.3768C262.854 80.468 262.398 81.197 262.489 81.9261C262.58 82.6551 263.31 83.1108 264.039 83.0196C264.768 82.9285 265.223 82.1995 265.132 81.4704C264.95 80.7414 264.312 80.2857 263.583 80.3768Z" fill="#34234D"/>
<path d="M332.659 307.291C332.751 307.382 339.768 316.404 338.583 325.7L339.494 325.791C340.679 316.131 333.662 307.109 333.297 306.653L332.659 307.291Z" fill="#34234D"/>
<path d="M289.008 323.877C287.732 327.978 285.545 330.621 282.629 331.896C277.799 333.992 272.422 331.35 272.331 331.35L271.875 332.17C272.058 332.261 274.883 333.628 278.437 333.628C279.895 333.628 281.444 333.355 282.902 332.717C286.092 331.35 288.461 328.433 289.828 324.15C294.294 310.299 299.488 288.154 299.579 287.881L298.668 287.698C298.668 287.972 293.473 310.025 289.008 323.877Z" fill="#34234D"/>
<path d="M265.405 255.256L265.223 256.167C282.447 259.266 300.491 258.628 316.712 256.349C346.876 252.157 366.287 244.411 366.651 244.229L366.287 243.318C365.74 243.682 314.16 264.187 265.405 255.256Z" fill="white"/>
<path d="M245.357 208.141C245.357 208.05 247.544 202.218 257.842 202.218C268.139 202.218 273.06 200.395 273.06 200.395L275.612 209.144C275.612 209.144 265.679 216.161 261.669 212.425C260.94 212.333 259.755 212.333 259.209 212.789C258.753 213.245 258.206 214.976 257.75 217.255C257.386 219.168 256.475 220.991 254.47 220.991C251.736 221.082 248.364 221.173 247.635 220.9C246.45 220.444 247.635 210.693 247.635 210.693C247.635 210.693 245.083 220.991 242.714 224.089C242.076 224.909 241.256 223.998 240.982 223.087C239.889 218.621 245.357 208.141 245.357 208.141Z" fill="white"/>
<path d="M242.167 224.818C242.076 224.818 242.076 224.818 241.985 224.818C241.347 224.727 240.891 223.907 240.709 223.269C239.615 218.895 244.537 209.144 245.083 208.141V208.05C245.174 207.777 247.453 202.036 257.842 202.036H257.933C268.048 202.036 272.878 200.213 272.969 200.213L273.243 200.122L275.976 209.326L275.794 209.417C275.339 209.691 265.77 216.434 261.578 212.698C260.575 212.607 259.755 212.698 259.391 213.063C259.117 213.336 258.571 214.612 258.024 217.437C257.477 219.988 256.292 221.355 254.47 221.447C248.455 221.629 247.817 221.447 247.544 221.355C246.633 220.991 246.815 217.255 246.997 214.065C246.086 217.346 244.445 222.358 242.805 224.454C242.623 224.727 242.349 224.818 242.167 224.818ZM245.63 208.141V208.324C245.539 208.415 240.162 218.804 241.347 223.178C241.529 223.725 241.894 224.272 242.167 224.363C242.258 224.363 242.349 224.363 242.623 224.18C244.992 221.082 247.544 210.967 247.544 210.875L248.091 210.967C247.453 216.161 247.453 220.626 247.908 220.9C248.182 220.991 249.458 221.173 254.652 220.991C256.201 220.9 257.204 219.715 257.659 217.437C257.933 216.252 258.479 213.427 259.208 212.789C259.846 212.242 261.031 212.242 261.851 212.333H261.942L262.034 212.425C265.588 215.705 274.245 210.055 275.521 209.235L273.06 200.942C271.876 201.307 266.955 202.674 258.115 202.674H258.024C248.364 202.491 245.903 207.504 245.63 208.141Z" fill="#34234D"/>
<path d="M255.472 211.422C255.472 211.422 253.559 217.437 253.832 220.991L255.472 211.422Z" fill="#34234D"/>
<path d="M251.371 209.873C251.371 209.873 249.913 217.71 250.551 221.173L251.371 209.873Z" fill="#34234D"/>
<path d="M298.486 121.385C298.668 127.218 304.865 160.572 304.865 160.572L267.501 191.647C265.314 195.019 265.496 199.393 267.866 202.491C272.058 208.05 274.701 214.612 278.528 216.981C282.538 219.533 288.461 215.888 290.831 213.518C294.932 209.326 314.98 196.841 317.532 195.201C352.252 173.239 337.672 135.511 335.211 122.479C328.285 86.2092 297.757 99.0586 298.486 121.385Z" fill="url(#paint7_linear)"/>
<path d="M301.128 110.359L300.217 109.903C298.577 113.366 297.757 117.285 297.939 121.294C298.121 126.762 303.407 156.015 304.227 160.116L267.046 191.191L267.684 191.92L305.32 160.845L305.229 160.389C305.138 160.025 299.124 126.944 298.941 121.294C298.85 117.467 299.579 113.731 301.128 110.359Z" fill="#34234D"/>
<path d="M282.082 218.257C281.171 218.257 280.26 218.166 279.348 217.892C276.159 217.163 271.602 209.053 271.146 208.142L271.967 207.686C273.334 210.055 277.252 216.434 279.622 216.981C282.355 217.619 284.816 217.255 287.094 215.796L287.641 216.526C285.818 217.71 283.996 218.257 282.082 218.257Z" fill="#34234D"/>
<path d="M260.211 198.391C259.937 192.194 259.938 153.372 259.938 152.917H260.849C260.849 153.281 260.849 192.103 261.122 198.299L260.211 198.391Z" fill="#34234D"/>
<path d="M337.763 233.931H274.701L284.998 252.157H337.763V233.931Z" fill="#00B5F4"/>
<path d="M262.216 410.815L314.251 241.769L305.594 239.308L254.197 410.815H262.216Z" fill="#E6E6E6"/>
<path d="M262.58 411.18H253.65L253.832 410.633L305.321 238.761L314.798 241.404L314.707 241.86L262.58 411.18ZM254.834 410.36H261.943L313.705 242.042L305.958 239.855L254.834 410.36Z" fill="#34234D"/>
<path d="M392.532 410.815L341.135 239.308L332.478 241.769L384.513 410.815H392.532Z" fill="#E6E6E6"/>
<path d="M393.079 411.18H384.148L384.057 410.906L331.931 241.404L341.408 238.761L341.499 239.217L393.079 411.18ZM384.786 410.36H391.894L340.861 239.855L333.115 242.042L384.786 410.36Z" fill="#34234D"/>
<path d="M292.38 252.157H355.351L347.696 233.931H292.38V252.157Z" fill="white"/>
<path d="M355.807 252.431H292.107V233.658H347.97L348.061 233.84L355.807 252.431ZM292.562 251.884H354.895L347.514 234.205H292.562V251.884Z" fill="#34234D"/>
<path d="M159.148 233.931H96.1765L106.474 252.157H159.148V233.931Z" fill="#00B5F4"/>
<path d="M86.4256 410.815L135.727 241.769L127.07 239.308L78.8618 410.815H86.4256Z" fill="#E6E6E6"/>
<path d="M86.7901 411.18H78.2239L126.705 238.761L136.183 241.404L136.092 241.86L86.7901 411.18ZM79.4086 410.36H86.1522L135.18 242.042L127.434 239.855L79.4086 410.36Z" fill="#34234D"/>
<path d="M210.818 410.815L162.611 239.308L153.953 241.769L203.163 410.815H210.818Z" fill="#E6E6E6"/>
<path d="M211.365 411.18H202.799L202.708 410.815L153.315 241.313L162.793 238.67L162.884 239.126L211.365 411.18ZM203.528 410.36H210.272L162.246 239.855L154.5 242.042L203.528 410.36Z" fill="#34234D"/>
<path d="M183.388 299.09H124.154V410.724H183.388V299.09Z" fill="white"/>
<path d="M183.662 410.998H123.881V298.817H183.662V410.998ZM124.427 410.451H183.115V299.272H124.427V410.451Z" fill="#34234D"/>
<path d="M183.753 411.089H123.789V298.725H183.753V411.089ZM124.518 410.36H183.024V299.454H124.518V410.36Z" fill="#34234D"/>
<path d="M124.518 299.09H99.2749V410.724H124.518V299.09Z" fill="#34234D"/>
<path d="M176.371 404.527H131.17V373.543H176.371V404.527ZM132.173 403.525H175.369V374.545H132.173V403.525Z" fill="#34234D"/>
<path d="M129.986 311.939C129.075 311.939 128.254 311.21 128.254 310.207C128.254 309.296 128.983 308.476 129.986 308.476C130.897 308.476 131.717 309.205 131.717 310.207C131.717 311.21 130.988 311.939 129.986 311.939ZM129.986 309.57C129.621 309.57 129.257 309.843 129.257 310.299C129.257 310.663 129.53 311.028 129.986 311.028C130.35 311.028 130.715 310.754 130.715 310.299C130.715 309.843 130.442 309.57 129.986 309.57Z" fill="#34234D"/>
<path d="M136.001 311.939C135.089 311.939 134.269 311.21 134.269 310.207C134.269 309.296 134.998 308.476 136.001 308.476C136.912 308.476 137.732 309.205 137.732 310.207C137.641 311.21 136.912 311.939 136.001 311.939ZM136.001 309.57C135.636 309.57 135.271 309.843 135.271 310.299C135.271 310.663 135.545 311.028 136.001 311.028C136.456 311.028 136.73 310.754 136.73 310.299C136.638 309.843 136.365 309.57 136.001 309.57Z" fill="#34234D"/>
<path d="M141.924 311.939C141.013 311.939 140.192 311.21 140.192 310.207C140.192 309.296 140.921 308.476 141.924 308.476C142.835 308.476 143.655 309.205 143.655 310.207C143.564 311.21 142.835 311.939 141.924 311.939ZM141.924 309.57C141.559 309.57 141.195 309.843 141.195 310.299C141.195 310.663 141.468 311.028 141.924 311.028C142.288 311.028 142.653 310.754 142.653 310.299C142.562 309.843 142.288 309.57 141.924 309.57Z" fill="#34234D"/>
<path d="M147.847 311.939C146.936 311.939 146.116 311.21 146.116 310.207C146.116 309.296 146.845 308.476 147.847 308.476C148.759 308.476 149.579 309.205 149.579 310.207C149.488 311.21 148.759 311.939 147.847 311.939ZM147.847 309.57C147.483 309.57 147.118 309.843 147.118 310.299C147.118 310.663 147.392 311.028 147.847 311.028C148.212 311.028 148.576 310.754 148.576 310.299C148.485 309.843 148.212 309.57 147.847 309.57Z" fill="#34234D"/>
<path d="M153.771 311.939C152.859 311.939 152.039 311.21 152.039 310.207C152.039 309.296 152.768 308.476 153.771 308.476C154.682 308.476 155.502 309.205 155.502 310.207C155.411 311.21 154.682 311.939 153.771 311.939ZM153.771 309.57C153.406 309.57 153.042 309.843 153.042 310.299C153.042 310.663 153.315 311.028 153.771 311.028C154.135 311.028 154.5 310.754 154.5 310.299C154.409 309.843 154.135 309.57 153.771 309.57Z" fill="#34234D"/>
<path d="M159.694 311.939C158.783 311.939 157.963 311.21 157.963 310.207C157.963 309.296 158.692 308.476 159.694 308.476C160.697 308.476 161.426 309.205 161.426 310.207C161.335 311.21 160.606 311.939 159.694 311.939ZM159.694 309.57C159.33 309.57 158.965 309.843 158.965 310.299C158.965 310.663 159.239 311.028 159.694 311.028C160.059 311.028 160.423 310.754 160.423 310.299C160.423 309.843 160.059 309.57 159.694 309.57Z" fill="#34234D"/>
<path d="M165.618 311.939C164.706 311.939 163.886 311.21 163.886 310.207C163.886 309.296 164.615 308.476 165.618 308.476C166.529 308.476 167.349 309.205 167.349 310.207C167.258 311.21 166.529 311.939 165.618 311.939ZM165.618 309.57C165.253 309.57 164.889 309.843 164.889 310.299C164.889 310.663 165.162 311.028 165.618 311.028C165.982 311.028 166.347 310.754 166.347 310.299C166.347 309.843 165.982 309.57 165.618 309.57Z" fill="#34234D"/>
<path d="M171.541 311.939C170.63 311.939 169.81 311.21 169.81 310.207C169.81 309.296 170.539 308.476 171.541 308.476C172.544 308.476 173.273 309.205 173.273 310.207C173.273 311.21 172.453 311.939 171.541 311.939ZM171.541 309.57C171.177 309.57 170.812 309.843 170.812 310.299C170.812 310.663 171.086 311.028 171.541 311.028C171.906 311.028 172.27 310.754 172.27 310.299C172.27 309.843 171.906 309.57 171.541 309.57Z" fill="#34234D"/>
<path d="M177.465 311.939C176.553 311.939 175.733 311.21 175.733 310.207C175.733 309.296 176.462 308.476 177.465 308.476C178.376 308.476 179.196 309.205 179.196 310.207C179.196 311.21 178.376 311.939 177.465 311.939ZM177.465 309.57C177.1 309.57 176.736 309.843 176.736 310.299C176.736 310.663 177.009 311.028 177.465 311.028C177.829 311.028 178.194 310.754 178.194 310.299C178.194 309.843 177.829 309.57 177.465 309.57Z" fill="#34234D"/>
<path d="M132.993 316.222C132.082 316.222 131.262 315.493 131.262 314.491C131.262 313.579 131.991 312.759 132.993 312.759C133.904 312.759 134.725 313.488 134.725 314.491C134.725 315.493 133.904 316.222 132.993 316.222ZM132.993 313.853C132.629 313.853 132.264 314.126 132.264 314.582C132.264 314.946 132.538 315.311 132.993 315.311C133.358 315.311 133.722 315.037 133.722 314.582C133.722 314.126 133.358 313.853 132.993 313.853Z" fill="#34234D"/>
<path d="M138.917 316.222C138.005 316.222 137.185 315.493 137.185 314.491C137.185 313.579 137.914 312.759 138.917 312.759C139.828 312.759 140.648 313.488 140.648 314.491C140.648 315.493 139.828 316.222 138.917 316.222ZM138.917 313.853C138.552 313.853 138.188 314.126 138.188 314.582C138.188 314.946 138.461 315.311 138.917 315.311C139.281 315.311 139.646 315.037 139.646 314.582C139.646 314.126 139.281 313.853 138.917 313.853Z" fill="#34234D"/>
<path d="M144.84 316.222C143.929 316.222 143.109 315.493 143.109 314.491C143.109 313.579 143.838 312.759 144.84 312.759C145.751 312.759 146.572 313.488 146.572 314.491C146.572 315.493 145.751 316.222 144.84 316.222ZM144.84 313.853C144.476 313.853 144.111 314.126 144.111 314.582C144.111 314.946 144.384 315.311 144.84 315.311C145.205 315.311 145.569 315.037 145.569 314.582C145.569 314.126 145.205 313.853 144.84 313.853Z" fill="#34234D"/>
<path d="M150.764 316.222C149.852 316.222 149.032 315.493 149.032 314.491C149.032 313.579 149.761 312.759 150.764 312.759C151.675 312.759 152.495 313.488 152.495 314.491C152.495 315.493 151.675 316.222 150.764 316.222ZM150.764 313.853C150.399 313.853 150.035 314.126 150.035 314.582C150.035 314.946 150.308 315.311 150.764 315.311C151.128 315.311 151.493 315.037 151.493 314.582C151.493 314.126 151.128 313.853 150.764 313.853Z" fill="#34234D"/>
<path d="M156.687 316.222C155.776 316.222 154.956 315.493 154.956 314.491C154.956 313.579 155.685 312.759 156.687 312.759C157.598 312.759 158.419 313.488 158.419 314.491C158.419 315.493 157.689 316.222 156.687 316.222ZM156.687 313.853C156.323 313.853 155.958 314.126 155.958 314.582C155.958 314.946 156.231 315.311 156.687 315.311C157.052 315.311 157.416 315.037 157.416 314.582C157.416 314.126 157.143 313.853 156.687 313.853Z" fill="#34234D"/>
<path d="M162.611 316.222C161.699 316.222 160.879 315.493 160.879 314.491C160.879 313.579 161.608 312.759 162.611 312.759C163.522 312.759 164.342 313.488 164.342 314.491C164.342 315.493 163.613 316.222 162.611 316.222ZM162.611 313.853C162.246 313.853 161.882 314.126 161.882 314.582C161.882 314.946 162.155 315.311 162.611 315.311C162.975 315.311 163.34 315.037 163.34 314.582C163.34 314.126 163.066 313.853 162.611 313.853Z" fill="#34234D"/>
<path d="M168.534 316.222C167.623 316.222 166.802 315.493 166.802 314.491C166.802 313.579 167.532 312.759 168.534 312.759C169.445 312.759 170.265 313.488 170.265 314.491C170.265 315.493 169.536 316.222 168.534 316.222ZM168.534 313.853C168.169 313.853 167.805 314.126 167.805 314.582C167.805 314.946 168.078 315.311 168.534 315.311C168.898 315.311 169.263 315.037 169.263 314.582C169.263 314.126 168.99 313.853 168.534 313.853Z" fill="#34234D"/>
<path d="M174.458 316.222C173.546 316.222 172.726 315.493 172.726 314.491C172.726 313.579 173.455 312.759 174.458 312.759C175.369 312.759 176.189 313.488 176.189 314.491C176.189 315.493 175.46 316.222 174.458 316.222ZM174.458 313.853C174.093 313.853 173.729 314.126 173.729 314.582C173.729 314.946 174.002 315.311 174.458 315.311C174.822 315.311 175.187 315.037 175.187 314.582C175.187 314.126 174.913 313.853 174.458 313.853Z" fill="#34234D"/>
<path d="M129.986 320.596C129.075 320.596 128.254 319.867 128.254 318.865C128.254 317.954 128.983 317.133 129.986 317.133C130.897 317.133 131.717 317.862 131.717 318.865C131.717 319.867 130.988 320.596 129.986 320.596ZM129.986 318.227C129.621 318.227 129.257 318.5 129.257 318.956C129.257 319.32 129.53 319.685 129.986 319.685C130.35 319.685 130.715 319.412 130.715 318.956C130.715 318.591 130.442 318.227 129.986 318.227Z" fill="#34234D"/>
<path d="M136.001 320.596C135.089 320.596 134.269 319.867 134.269 318.865C134.269 317.954 134.998 317.133 136.001 317.133C136.912 317.133 137.732 317.862 137.732 318.865C137.641 319.867 136.912 320.596 136.001 320.596ZM136.001 318.227C135.636 318.227 135.271 318.5 135.271 318.956C135.271 319.32 135.545 319.685 136.001 319.685C136.456 319.685 136.73 319.412 136.73 318.956C136.638 318.591 136.365 318.227 136.001 318.227Z" fill="#34234D"/>
<path d="M141.924 320.596C141.013 320.596 140.192 319.867 140.192 318.865C140.192 317.954 140.921 317.133 141.924 317.133C142.835 317.133 143.655 317.862 143.655 318.865C143.564 319.867 142.835 320.596 141.924 320.596ZM141.924 318.227C141.559 318.227 141.195 318.5 141.195 318.956C141.195 319.32 141.468 319.685 141.924 319.685C142.288 319.685 142.653 319.412 142.653 318.956C142.562 318.591 142.288 318.227 141.924 318.227Z" fill="#34234D"/>
<path d="M147.847 320.596C146.936 320.596 146.116 319.867 146.116 318.865C146.116 317.954 146.845 317.133 147.847 317.133C148.759 317.133 149.579 317.862 149.579 318.865C149.488 319.867 148.759 320.596 147.847 320.596ZM147.847 318.227C147.483 318.227 147.118 318.5 147.118 318.956C147.118 319.32 147.392 319.685 147.847 319.685C148.212 319.685 148.576 319.412 148.576 318.956C148.485 318.591 148.212 318.227 147.847 318.227Z" fill="#34234D"/>
<path d="M153.771 320.596C152.859 320.596 152.039 319.867 152.039 318.865C152.039 317.954 152.768 317.133 153.771 317.133C154.682 317.133 155.502 317.862 155.502 318.865C155.411 319.867 154.682 320.596 153.771 320.596ZM153.771 318.227C153.406 318.227 153.042 318.5 153.042 318.956C153.042 319.32 153.315 319.685 153.771 319.685C154.135 319.685 154.5 319.412 154.5 318.956C154.409 318.591 154.135 318.227 153.771 318.227Z" fill="#34234D"/>
<path d="M159.694 320.596C158.783 320.596 157.963 319.867 157.963 318.865C157.963 317.954 158.692 317.133 159.694 317.133C160.697 317.133 161.426 317.862 161.426 318.865C161.335 319.867 160.606 320.596 159.694 320.596ZM159.694 318.227C159.33 318.227 158.965 318.5 158.965 318.956C158.965 319.32 159.239 319.685 159.694 319.685C160.059 319.685 160.423 319.412 160.423 318.956C160.423 318.591 160.059 318.227 159.694 318.227Z" fill="#34234D"/>
<path d="M165.618 320.596C164.706 320.596 163.886 319.867 163.886 318.865C163.886 317.954 164.615 317.133 165.618 317.133C166.529 317.133 167.349 317.862 167.349 318.865C167.258 319.867 166.529 320.596 165.618 320.596ZM165.618 318.227C165.253 318.227 164.889 318.5 164.889 318.956C164.889 319.32 165.162 319.685 165.618 319.685C165.982 319.685 166.347 319.412 166.347 318.956C166.347 318.591 165.982 318.227 165.618 318.227Z" fill="#34234D"/>
<path d="M171.541 320.596C170.63 320.596 169.81 319.867 169.81 318.865C169.81 317.954 170.539 317.133 171.541 317.133C172.544 317.133 173.273 317.862 173.273 318.865C173.273 319.867 172.453 320.596 171.541 320.596ZM171.541 318.227C171.177 318.227 170.812 318.5 170.812 318.956C170.812 319.32 171.086 319.685 171.541 319.685C171.906 319.685 172.27 319.412 172.27 318.956C172.27 318.591 171.906 318.227 171.541 318.227Z" fill="#34234D"/>
<path d="M177.465 320.596C176.553 320.596 175.733 319.867 175.733 318.865C175.733 317.954 176.462 317.133 177.465 317.133C178.376 317.133 179.196 317.862 179.196 318.865C179.196 319.867 178.376 320.596 177.465 320.596ZM177.465 318.227C177.1 318.227 176.736 318.5 176.736 318.956C176.736 319.32 177.009 319.685 177.465 319.685C177.829 319.685 178.194 319.412 178.194 318.956C178.194 318.591 177.829 318.227 177.465 318.227Z" fill="#34234D"/>
<path d="M132.993 324.879C132.082 324.879 131.262 324.15 131.262 323.148C131.262 322.237 131.991 321.416 132.993 321.416C133.904 321.416 134.725 322.146 134.725 323.148C134.725 324.15 133.904 324.879 132.993 324.879ZM132.993 322.51C132.629 322.51 132.264 322.783 132.264 323.239C132.264 323.604 132.538 323.968 132.993 323.968C133.358 323.968 133.722 323.695 133.722 323.239C133.722 322.875 133.358 322.51 132.993 322.51Z" fill="#34234D"/>
<path d="M138.917 324.879C138.005 324.879 137.185 324.15 137.185 323.148C137.185 322.237 137.914 321.416 138.917 321.416C139.828 321.416 140.648 322.146 140.648 323.148C140.648 324.15 139.828 324.879 138.917 324.879ZM138.917 322.51C138.552 322.51 138.188 322.783 138.188 323.239C138.188 323.604 138.461 323.968 138.917 323.968C139.281 323.968 139.646 323.695 139.646 323.239C139.646 322.875 139.281 322.51 138.917 322.51Z" fill="#34234D"/>
<path d="M144.84 324.879C143.929 324.879 143.109 324.15 143.109 323.148C143.109 322.237 143.838 321.416 144.84 321.416C145.751 321.416 146.572 322.146 146.572 323.148C146.572 324.15 145.751 324.879 144.84 324.879ZM144.84 322.51C144.476 322.51 144.111 322.783 144.111 323.239C144.111 323.604 144.384 323.968 144.84 323.968C145.205 323.968 145.569 323.695 145.569 323.239C145.569 322.875 145.205 322.51 144.84 322.51Z" fill="#34234D"/>
<path d="M150.764 324.879C149.852 324.879 149.032 324.15 149.032 323.148C149.032 322.237 149.761 321.416 150.764 321.416C151.675 321.416 152.495 322.146 152.495 323.148C152.495 324.15 151.675 324.879 150.764 324.879ZM150.764 322.51C150.399 322.51 150.035 322.783 150.035 323.239C150.035 323.604 150.308 323.968 150.764 323.968C151.128 323.968 151.493 323.695 151.493 323.239C151.493 322.875 151.128 322.51 150.764 322.51Z" fill="#34234D"/>
<path d="M156.687 324.879C155.776 324.879 154.956 324.15 154.956 323.148C154.956 322.237 155.685 321.416 156.687 321.416C157.598 321.416 158.419 322.146 158.419 323.148C158.419 324.15 157.689 324.879 156.687 324.879ZM156.687 322.51C156.323 322.51 155.958 322.783 155.958 323.239C155.958 323.604 156.231 323.968 156.687 323.968C157.052 323.968 157.416 323.695 157.416 323.239C157.416 322.875 157.143 322.51 156.687 322.51Z" fill="#34234D"/>
<path d="M162.611 324.879C161.699 324.879 160.879 324.15 160.879 323.148C160.879 322.237 161.608 321.416 162.611 321.416C163.522 321.416 164.342 322.146 164.342 323.148C164.342 324.15 163.613 324.879 162.611 324.879ZM162.611 322.51C162.246 322.51 161.882 322.783 161.882 323.239C161.882 323.604 162.155 323.968 162.611 323.968C162.975 323.968 163.34 323.695 163.34 323.239C163.34 322.875 163.066 322.51 162.611 322.51Z" fill="#34234D"/>
<path d="M168.534 324.879C167.623 324.879 166.802 324.15 166.802 323.148C166.802 322.237 167.532 321.416 168.534 321.416C169.445 321.416 170.265 322.146 170.265 323.148C170.265 324.15 169.536 324.879 168.534 324.879ZM168.534 322.51C168.169 322.51 167.805 322.783 167.805 323.239C167.805 323.604 168.078 323.968 168.534 323.968C168.898 323.968 169.263 323.695 169.263 323.239C169.263 322.875 168.99 322.51 168.534 322.51Z" fill="#34234D"/>
<path d="M174.458 324.879C173.546 324.879 172.726 324.15 172.726 323.148C172.726 322.237 173.455 321.416 174.458 321.416C175.369 321.416 176.189 322.146 176.189 323.148C176.189 324.15 175.46 324.879 174.458 324.879ZM174.458 322.51C174.093 322.51 173.729 322.783 173.729 323.239C173.729 323.604 174.002 323.968 174.458 323.968C174.822 323.968 175.187 323.695 175.187 323.239C175.187 322.875 174.913 322.51 174.458 322.51Z" fill="#34234D"/>
<path d="M113.765 252.157H176.827L169.172 233.931H113.765V252.157Z" fill="white"/>
<path d="M177.191 252.431H113.491V233.658H169.354L169.445 233.84L177.191 252.431ZM114.038 251.884H176.371L168.898 234.205H113.947V251.884H114.038Z" fill="#34234D"/>
<path d="M357.538 228.646H83.1448V235.754H357.538V228.646Z" fill="white"/>
<path d="M357.994 236.21H82.6892V228.281H357.994V236.21ZM83.6005 235.298H357.174V229.01H83.6005V235.298Z" fill="#34234D"/>
<path d="M120.144 124.302H245.904C248 124.302 250.642 126.215 250.825 128.403L256.384 207.504C256.566 209.782 255.199 212.151 252.921 212.151H126.341C123.971 212.151 122.422 209.782 122.331 207.504L116.681 128.311C116.499 126.215 118.048 124.302 120.144 124.302Z" fill="#34234D"/>
<path d="M118.868 124.302H244.355C246.451 124.302 248.182 126.124 248.364 128.311L253.832 206.866C254.014 209.053 252.465 210.875 250.369 210.875H124.883C122.787 210.875 121.055 209.053 120.873 206.866L115.405 128.311C115.223 126.124 116.772 124.302 118.868 124.302Z" fill="white"/>
<path d="M132.629 202.4L128.984 150.274C128.892 149.454 129.166 148.542 129.713 147.996C130.259 147.449 130.897 147.175 131.626 147.175H214.919C216.469 147.175 217.927 148.542 218.018 150.274L221.663 202.4C221.754 203.22 221.481 204.132 220.843 204.679C220.296 205.225 219.658 205.499 218.929 205.499H135.636C134.178 205.499 132.72 204.132 132.629 202.4ZM131.717 147.996C131.171 147.996 130.715 148.178 130.442 148.542C130.077 148.998 129.895 149.545 129.895 150.183L133.54 202.309C133.631 203.585 134.634 204.587 135.818 204.587H219.111C219.658 204.587 220.114 204.405 220.387 204.041C220.752 203.585 220.934 203.038 220.934 202.4L217.289 150.274C217.198 148.998 216.195 147.996 215.011 147.996H131.717Z" fill="#34234D"/>
<path d="M164.98 211.422H250.369C251.463 211.422 252.465 210.967 253.194 210.238C254.014 209.417 254.379 208.233 254.288 206.957L248.82 128.403C248.638 125.942 246.633 123.937 244.354 123.937H226.584V124.848H244.354C246.177 124.848 247.817 126.489 247.909 128.494L253.376 207.048C253.467 208.05 253.103 208.962 252.465 209.691C251.918 210.329 251.098 210.602 250.278 210.602H164.98V211.422Z" fill="#34234D"/>
<path d="M124.883 211.422V210.511C123.06 210.511 121.42 208.871 121.329 206.866L115.861 128.311C115.77 127.309 116.134 126.398 116.772 125.669C117.319 125.031 118.139 124.757 118.959 124.757H167.714V123.846H118.959C117.866 123.846 116.863 124.302 116.134 125.031C115.314 125.851 114.949 127.036 115.041 128.311L120.508 206.866C120.599 209.417 122.604 211.422 124.883 211.422Z" fill="#34234D"/>
<path d="M196.238 217.163C196.055 216.161 194.324 205.863 193.322 200.304C192.957 198.208 191.134 196.659 189.038 196.659H184.391L173.091 228.099C174.458 228.099 201.432 228.099 213.097 228.099C213.37 228.099 213.188 227.461 212.915 227.461C197.058 227.917 196.602 219.624 196.238 217.163Z" fill="#34234D"/>
<path d="M195.053 219.077C194.962 218.621 192.775 206.046 191.681 199.94C191.317 198.026 189.676 196.659 187.762 196.659L163.977 196.75C161.517 196.75 159.603 199.028 160.059 201.489C161.152 207.139 162.884 215.979 162.975 217.346C163.157 219.533 162.884 222.813 158.965 224.18C154.318 225.912 142.744 227.279 142.562 227.461C142.106 227.826 142.562 228.19 142.744 228.19L172.817 228.008C172.908 228.008 172.908 228.008 172.999 228.008C174.366 227.917 189.129 226.55 189.221 226.55C193.23 226.003 195.6 223.36 195.053 219.077Z" fill="#E6E6E6"/>
<path d="M142.926 228.646L172.544 228.464V227.552L143.564 227.735C143.838 227.735 144.202 227.643 144.658 227.552C148.303 227.005 155.776 225.912 159.33 224.545C162.428 223.36 163.977 220.9 163.613 217.255C163.522 215.888 161.973 207.777 160.697 201.307C160.515 200.304 160.788 199.211 161.426 198.391C162.064 197.57 163.066 197.115 164.16 197.115H187.762V196.203L163.977 196.295C162.702 196.295 161.426 196.841 160.606 197.935C159.785 198.937 159.421 200.304 159.694 201.58C161.517 210.693 162.519 216.343 162.611 217.437C162.884 220.717 161.699 222.813 158.874 223.816C155.32 225.092 147.665 226.276 144.384 226.732C142.471 227.005 142.471 227.005 142.38 227.097C142.106 227.37 142.015 227.643 142.106 228.008C142.197 228.372 142.562 228.646 142.926 228.646Z" fill="#34234D"/>
<path d="M199.427 155.65H144.749V156.562H199.427V155.65Z" fill="#34234D"/>
<path d="M199.245 159.569H144.567V160.48H199.245V159.569Z" fill="#34234D"/>
<path d="M308.054 222.358H212.459V228.555H308.054V222.358Z" fill="white"/>
<path d="M308.328 228.828H212.185V221.993H308.328V228.828ZM212.732 228.19H307.781V222.631H212.732V228.19Z" fill="#34234D"/>
<path d="M228.862 29.3439H169.445C165.344 29.3439 162.064 32.6246 162.064 36.7255V96.1424C162.064 100.243 165.344 103.524 169.445 103.524H228.862C232.963 103.524 236.244 100.243 236.244 96.1424V36.7255C236.244 32.6246 232.963 29.3439 228.862 29.3439Z" fill="url(#paint8_linear)"/>
<path d="M228.862 103.889H169.445C165.162 103.889 161.699 100.426 161.699 96.1424V36.7255C161.699 32.4424 165.162 28.9794 169.445 28.9794H228.862C233.145 28.9794 236.608 32.4424 236.608 36.7255V96.1424C236.608 100.426 233.145 103.889 228.862 103.889ZM169.445 29.7085C165.618 29.7085 162.428 32.8069 162.428 36.7255V96.1424C162.428 99.9699 165.527 103.159 169.445 103.159H228.862C232.69 103.159 235.879 100.061 235.879 96.1424V36.7255C235.879 32.898 232.781 29.7085 228.862 29.7085H169.445Z" fill="#34234D"/>
<path d="M228.862 34.994H169.445C168.534 34.994 167.714 35.7231 167.714 36.7255V96.1425C167.714 97.0538 168.443 97.8739 169.445 97.8739H228.862C229.774 97.8739 230.594 97.1449 230.594 96.1425V36.7255C230.594 35.8142 229.865 34.994 228.862 34.994ZM229.682 96.1425C229.682 96.5981 229.318 96.8715 228.953 96.8715H169.536C169.081 96.8715 168.807 96.507 168.807 96.1425V36.7255C168.807 36.2699 169.172 35.9965 169.536 35.9965H228.953C229.409 35.9965 229.682 36.361 229.682 36.7255V96.1425Z" fill="white"/>
<path d="M149.761 47.7523V48.6636C154.865 48.6636 157.234 50.6684 159.603 52.5822C161.882 54.4959 164.251 56.5008 168.899 56.5008V55.5895C164.524 55.5895 162.428 53.858 160.15 51.9442C157.781 49.8483 155.229 47.7523 149.761 47.7523Z" fill="#34234D"/>
<path d="M170.63 53.858C169.445 53.858 168.443 54.8604 168.443 56.0451C168.443 57.2298 169.445 58.2322 170.63 58.2322C171.815 58.2322 172.817 57.2298 172.817 56.0451C172.817 54.7693 171.815 53.858 170.63 53.858ZM170.63 57.3209C169.901 57.3209 169.354 56.7741 169.354 56.0451C169.354 55.3161 169.901 54.7693 170.63 54.7693C171.359 54.7693 171.906 55.3161 171.906 56.0451C171.906 56.683 171.359 57.3209 170.63 57.3209Z" fill="#34234D"/>
<path d="M148.03 46.0208C146.845 46.0208 145.843 47.0232 145.843 48.2079C145.843 49.3926 146.845 50.395 148.03 50.395C149.214 50.395 150.217 49.3926 150.217 48.2079C150.217 47.0232 149.214 46.0208 148.03 46.0208ZM148.03 49.4837C147.301 49.4837 146.754 48.937 146.754 48.2079C146.754 47.4789 147.301 46.9321 148.03 46.9321C148.759 46.9321 149.305 47.4789 149.305 48.2079C149.305 48.8458 148.759 49.4837 148.03 49.4837Z" fill="#34234D"/>
<path d="M170.63 64.5202C169.445 64.5202 168.443 65.5227 168.443 66.7074C168.443 67.892 169.445 68.8945 170.63 68.8945C171.815 68.8945 172.817 67.892 172.817 66.7074C172.817 65.5227 171.815 64.5202 170.63 64.5202ZM170.63 67.9832C169.901 67.9832 169.354 67.4364 169.354 66.7074C169.354 65.9783 169.901 65.4315 170.63 65.4315C171.359 65.4315 171.906 65.9783 171.906 66.7074C171.906 67.4364 171.359 67.9832 170.63 67.9832Z" fill="#34234D"/>
<path d="M148.03 64.5202C146.845 64.5202 145.843 65.5227 145.843 66.7074C145.843 67.892 146.845 68.8945 148.03 68.8945C149.214 68.8945 150.217 67.892 150.217 66.7074C150.217 65.5227 149.214 64.5202 148.03 64.5202ZM148.03 67.9832C147.301 67.9832 146.754 67.4364 146.754 66.7074C146.754 65.9783 147.301 65.4315 148.03 65.4315C148.759 65.4315 149.305 65.9783 149.305 66.7074C149.305 67.4364 148.759 67.9832 148.03 67.9832Z" fill="#34234D"/>
<path d="M168.899 66.2517H149.761V67.163H168.899V66.2517Z" fill="#34234D"/>
<path d="M149.761 84.8423V85.7536C155.229 85.7536 157.781 83.6576 160.15 81.5616C162.428 79.6479 164.524 77.9164 168.899 77.9164V77.0051C164.16 77.0051 161.882 79.01 159.603 80.9237C157.234 82.8374 154.865 84.8423 149.761 84.8423Z" fill="#34234D"/>
<path d="M170.63 75.2736C169.445 75.2736 168.443 76.276 168.443 77.4607C168.443 78.6454 169.445 79.6479 170.63 79.6479C171.815 79.6479 172.817 78.6454 172.817 77.4607C172.817 76.276 171.815 75.2736 170.63 75.2736ZM170.63 78.7366C169.901 78.7366 169.354 78.1898 169.354 77.4607C169.354 76.7317 169.901 76.1849 170.63 76.1849C171.359 76.1849 171.906 76.7317 171.906 77.4607C171.906 78.1898 171.359 78.7366 170.63 78.7366Z" fill="#34234D"/>
<path d="M148.03 83.1108C146.845 83.1108 145.843 84.1133 145.843 85.2979C145.843 86.4826 146.845 87.4851 148.03 87.4851C149.214 87.4851 150.217 86.4826 150.217 85.2979C150.217 84.1133 149.214 83.1108 148.03 83.1108ZM148.03 86.5738C147.301 86.5738 146.754 86.027 146.754 85.2979C146.754 84.5689 147.301 84.0221 148.03 84.0221C148.759 84.0221 149.305 84.5689 149.305 85.2979C149.305 86.027 148.759 86.5738 148.03 86.5738Z" fill="#34234D"/>
<path d="M223.768 41.2022L173.943 90.9989L174.587 91.6435L224.412 41.8468L223.768 41.2022Z" fill="white"/>
<path d="M174.593 41.2551L173.948 41.8994L223.759 91.7102L224.404 91.0658L174.593 41.2551Z" fill="white"/>
<path d="M45.6873 173H10.6178C5.83012 173 2 176.89 2 181.618V226.382C2 231.17 5.88996 235 10.6178 235H45.6873C50.4749 235 54.305 231.11 54.305 226.382V181.618C54.305 176.89 50.4749 173 45.6873 173ZM53.2876 226.382C53.2876 230.571 49.8764 233.983 45.6873 233.983H10.6178C6.42857 233.983 3.01737 230.571 3.01737 226.382V181.618C3.01737 177.429 6.42857 174.017 10.6178 174.017H45.6873C49.8764 174.017 53.2876 177.429 53.2876 181.618V226.382Z" fill="white"/>
<path d="M13.195 179.486L9.00562 183.675L9.72501 184.394L13.9144 180.205L13.195 179.486Z" fill="white"/>
<path d="M9.68057 179.532L8.96118 180.252L13.1505 184.441L13.8699 183.722L9.68057 179.532Z" fill="white"/>
<path d="M23.5443 194.127V198.256H22.9458C22.4072 198.256 22.0481 198.376 21.7489 198.615C21.5095 198.855 21.2701 199.154 21.2103 199.633C21.1504 199.872 21.0906 200.59 21.0906 201.727C21.0906 202.864 20.9709 203.762 20.7315 204.42C20.552 204.899 20.3126 205.318 20.0134 205.617C19.774 205.856 19.3551 206.096 18.8165 206.335C19.3551 206.575 19.774 206.874 20.0732 207.173C20.3724 207.472 20.6118 207.891 20.7914 208.49C20.9709 209.088 21.0906 209.986 21.0906 211.243C21.0906 212.38 21.1504 213.098 21.2701 213.457C21.3898 213.816 21.5694 214.055 21.8686 214.175C22.1678 214.295 22.7064 214.414 23.5443 214.414V218.544H21.9284C20.2528 218.544 19.1157 218.364 18.3975 218.005C17.6794 217.646 17.2006 217.107 16.9014 216.449C16.6022 215.791 16.4825 214.714 16.4825 213.337C16.4825 213.038 16.4825 212.739 16.4825 212.439C16.4825 212.26 16.4825 212.08 16.4825 211.841C16.4825 210.883 16.4226 210.165 16.2431 209.746C16.0636 209.328 15.8242 209.028 15.4651 208.849C15.106 208.669 14.6273 208.55 14.0288 208.55V204.181C14.6871 204.181 15.1659 204.061 15.4651 203.882C15.7643 203.702 16.0636 203.343 16.1833 202.924C16.3628 202.505 16.4226 201.787 16.4226 200.829V200.351C16.4226 200.171 16.4226 199.992 16.4226 199.752C16.4226 198.256 16.5423 197.179 16.7817 196.521C17.0211 195.862 17.3802 195.324 17.7991 194.965C18.0983 194.665 18.5771 194.486 19.1157 194.366C19.8937 194.187 20.7315 194.127 21.689 194.127H23.5443Z" fill="white"/>
<path d="M34.496 194.125C35.4535 194.125 36.2914 194.185 37.0694 194.365C37.608 194.485 38.0868 194.724 38.386 194.963C38.8049 195.322 39.164 195.801 39.4034 196.519C39.6427 197.178 39.7624 198.255 39.7624 199.751C39.7624 199.931 39.7624 200.17 39.7624 200.349V200.768C39.7624 201.786 39.8223 202.444 40.0018 202.863C40.1813 203.282 40.4207 203.581 40.72 203.82C41.0192 204 41.5578 204.12 42.1562 204.12V208.488C41.4979 208.488 41.0192 208.608 40.72 208.788C40.3609 208.967 40.1215 209.266 39.942 209.685C39.7624 210.104 39.7026 210.822 39.7026 211.78C39.7026 211.959 39.7026 212.139 39.7026 212.378C39.7026 212.678 39.7026 212.977 39.7026 213.276C39.7026 214.653 39.5829 215.67 39.2837 216.388C38.9844 217.106 38.5057 217.585 37.7875 217.944C37.0694 218.303 35.9323 218.483 34.2566 218.483H32.7605V214.353C33.5983 214.353 34.1369 214.293 34.4362 214.114C34.7354 213.994 34.9149 213.755 35.0346 213.396C35.1543 213.037 35.2142 212.319 35.2142 211.181C35.2142 209.925 35.3339 208.967 35.5134 208.429C35.6929 207.83 35.9323 207.411 36.2315 207.112C36.5308 206.813 36.9497 206.573 37.4883 206.274C36.9497 206.035 36.5308 205.795 36.2914 205.556C35.9922 205.257 35.7528 204.838 35.5732 204.359C35.3339 203.701 35.2142 202.803 35.2142 201.666C35.2142 200.529 35.1543 199.811 35.0945 199.571C34.9748 199.093 34.7952 198.734 34.5559 198.554C34.3165 198.315 33.8976 198.195 33.359 198.195H32.7605V194.066H34.496V194.125Z" fill="white"/>
<path d="M437.733 139.065H368.565C366.742 139.065 365.284 137.607 365.284 135.784V88.7609C365.284 86.9383 366.742 85.4802 368.565 85.4802H437.733C439.555 85.4802 441.013 86.9383 441.013 88.7609V135.784C440.922 137.607 439.464 139.065 437.733 139.065Z" fill="url(#paint9_linear)"/>
<path d="M396.177 121.477L377.313 113.275V108.718L396.177 100.517V105.893L383.055 110.906L396.177 116.1V121.477Z" fill="white"/>
<path d="M397.909 125.122L404.744 96.6892H408.662L401.736 125.122H397.909Z" fill="white"/>
<path d="M410.394 121.568V116.282L423.517 111.088L410.394 105.985V100.699L429.258 108.901V113.366L410.394 121.568Z" fill="white"/>
<defs>
<linearGradient id="paint0_linear" x1="44.8974" y1="78.6965" x2="47.2836" y2="-46.1891" gradientUnits="userSpaceOnUse">
<stop stop-color="#6E1FEA"/>
<stop offset="0.955555" stop-color="#4289FF"/>
</linearGradient>
<linearGradient id="paint1_linear" x1="26.9917" y1="262.432" x2="26.9917" y2="329.709" gradientUnits="userSpaceOnUse">
<stop stop-color="#4289FF"/>
<stop offset="1" stop-color="#01FDD6"/>
</linearGradient>
<linearGradient id="paint2_linear" x1="60.1236" y1="250.381" x2="60.1236" y2="329.709" gradientUnits="userSpaceOnUse">
<stop stop-color="#4289FF"/>
<stop offset="1" stop-color="#01FDD6"/>
</linearGradient>
<linearGradient id="paint3_linear" x1="333.48" y1="18.2261" x2="333.48" y2="73.0865" gradientUnits="userSpaceOnUse">
<stop stop-color="#4289FF"/>
<stop offset="1" stop-color="#01FDD6"/>
</linearGradient>
<linearGradient id="paint4_linear" x1="251.661" y1="227.691" x2="257.421" y2="-15.6409" gradientUnits="userSpaceOnUse">
<stop stop-color="#6E1FEA"/>
<stop offset="0.955555" stop-color="#4289FF"/>
</linearGradient>
<linearGradient id="paint5_linear" x1="317.992" y1="289.415" x2="329.602" y2="-97.5513" gradientUnits="userSpaceOnUse">
<stop stop-color="#6E1FEA"/>
<stop offset="0.955555" stop-color="#4289FF"/>
</linearGradient>
<linearGradient id="paint6_linear" x1="300.819" y1="241.046" x2="301.545" y2="163.541" gradientUnits="userSpaceOnUse">
<stop stop-color="#6E1FEA"/>
<stop offset="0.955555" stop-color="#4289FF"/>
</linearGradient>
<linearGradient id="paint7_linear" x1="304.892" y1="233.205" x2="312.912" y2="-31.1204" gradientUnits="userSpaceOnUse">
<stop stop-color="#6E1FEA"/>
<stop offset="0.955555" stop-color="#4289FF"/>
</linearGradient>
<linearGradient id="paint8_linear" x1="199.154" y1="29.3439" x2="199.154" y2="103.524" gradientUnits="userSpaceOnUse">
<stop stop-color="#FF3E6C"/>
<stop offset="1" stop-color="#FC5E51"/>
</linearGradient>
<linearGradient id="paint9_linear" x1="352.323" y1="80.8608" x2="381.627" y2="148.402" gradientUnits="userSpaceOnUse">
<stop stop-color="#FFCC3E"/>
<stop offset="1" stop-color="#F79C41"/>
</linearGradient>
</defs>
</svg>
